<svg width="16" height="17" viewBox="0 0 16 17" fill="none" xmlns="http://www.w3.org/2000/svg">
<g clip-path="url(#clip0_470_624)">
<path d="M12.6667 15.1667H3.33333C1.49533 15.1667 0 13.6713 0 11.8333V5.16667C0 3.32867 1.49533 1.83334 3.33333 1.83334H12.6667C14.5047 1.83334 16 3.32867 16 5.16667V11.8333C16 13.6713 14.5047 15.1667 12.6667 15.1667ZM3.33333 3.16667C2.23067 3.16667 1.33333 4.064 1.33333 5.16667V11.8333C1.33333 12.936 2.23067 13.8333 3.33333 13.8333H12.6667C13.7693 13.8333 14.6667 12.936 14.6667 11.8333V5.16667C14.6667 4.064 13.7693 3.16667 12.6667 3.16667H3.33333ZM12 9.16667H9.33333C8.598 9.16667 8 8.56867 8 7.83334V6.5C8 5.76467 8.598 5.16667 9.33333 5.16667H12C12.7353 5.16667 13.3333 5.76467 13.3333 6.5V7.83334C13.3333 8.56867 12.7353 9.16667 12 9.16667ZM9.33333 6.5V7.83334H12.0007V6.5H9.33333ZM6.66667 8.5C6.66667 8.132 6.368 7.83334 6 7.83334H3.33333C2.96533 7.83334 2.66667 8.132 2.66667 8.5C2.66667 8.868 2.96533 9.16667 3.33333 9.16667H6C6.368 9.16667 6.66667 8.868 6.66667 8.5ZM13.3333 11.1667C13.3333 10.7987 13.0347 10.5 12.6667 10.5H3.33333C2.96533 10.5 2.66667 10.7987 2.66667 11.1667C2.66667 11.5347 2.96533 11.8333 3.33333 11.8333H12.6667C13.0347 11.8333 13.3333 11.5347 13.3333 11.1667Z" fill="#FF654E"/>
</g>
<defs>
<clipPath id="clip0_470_624">
<rect width="16" height="16" fill="white" transform="translate(0 0.5)"/>
</clipPath>
</defs>
</svg>
