<svg width="16" height="17" viewBox="0 0 16 17" fill="none" xmlns="http://www.w3.org/2000/svg">
<g clip-path="url(#clip0_470_597)">
<path d="M15.3647 11.9647L12.486 14.588C11.132 15.8213 9.378 16.5 7.54733 16.5H0.666667C0.298 16.5 0 16.202 0 15.8333C0 15.4647 0.298 15.1667 0.666667 15.1667H7.54667C9.04467 15.1667 10.4793 14.6113 11.5873 13.602L14.4433 11.0007C14.6747 10.7687 14.73 10.3713 14.5473 10.118C14.4273 9.952 14.2527 9.852 14.054 9.83533C13.86 9.82267 13.6673 9.89 13.5287 10.0287L10.706 12.6193C10.3473 12.958 9.86467 13.1667 9.33333 13.1667H6C5.63133 13.1667 5.33333 12.8687 5.33333 12.5C5.33333 12.1313 5.63133 11.8333 6 11.8333H9.33333C9.50133 11.8333 10 11.7567 10 11.1667C10 10.7987 9.70133 10.5 9.33333 10.5H6.05867C4.45667 10.5 2.94933 11.1247 1.816 12.2573L1.15067 12.9593C1.01933 13.0973 0.843333 13.1673 0.666667 13.1673C0.502 13.1673 0.336667 13.1067 0.208 12.9847C-0.0586667 12.7307 -0.07 12.3087 0.183333 12.042L0.861333 11.328C2.25933 9.93067 4.10067 9.168 6.05933 9.168H9.334C10.158 9.168 10.8673 9.66933 11.1733 10.3827L12.6073 9.06667C13.0013 8.67133 13.578 8.45666 14.1613 8.50733C14.748 8.554 15.2833 8.85733 15.63 9.33933C16.1927 10.122 16.0787 11.25 15.3653 11.9653L15.3647 11.9647ZM2.67067 1.94133C2.64267 1.554 2.78533 1.17266 3.06267 0.895998C3.33933 0.618665 3.72067 0.473331 4.10867 0.503998C6.02667 0.639331 7.29867 1.30066 8 2.57866C8.702 1.30066 9.97333 0.639331 11.892 0.503998C12.286 0.471998 12.6613 0.618665 12.9373 0.895998C13.2147 1.17266 13.3573 1.554 13.3293 1.942C13.122 4.884 11.676 6.30533 8.66667 6.48066V7.166C8.66667 7.53466 8.36867 7.83266 8 7.83266C7.63133 7.83266 7.33333 7.53466 7.33333 7.166V6.48066C4.324 6.30466 2.878 4.884 2.67067 1.94133ZM8.688 5.14533C10.9287 4.996 11.844 4.054 12 1.848C9.78067 1.99066 8.83733 2.90466 8.688 5.14533ZM4.014 1.83333C4.15667 4.05266 5.07067 4.996 7.31133 5.14533C7.162 2.90466 6.22 1.98933 4.014 1.83333Z" fill="#FF654E"/>
</g>
<defs>
<clipPath id="clip0_470_597">
<rect width="16" height="16" fill="white" transform="translate(0 0.5)"/>
</clipPath>
</defs>
</svg>
