<svg width="16" height="17" viewBox="0 0 16 17" fill="none" xmlns="http://www.w3.org/2000/svg">
<g clip-path="url(#clip0_470_615)">
<path d="M14.8 1.94201C14.4252 1.62863 13.986 1.40161 13.5137 1.27706C13.0413 1.1525 12.5472 1.13348 12.0667 1.22135L9.51867 1.68401C8.9304 1.79204 8.39553 2.0947 8 2.54335C7.60344 2.09392 7.06704 1.7912 6.47733 1.68401L3.93333 1.22135C3.45277 1.13341 2.95875 1.15218 2.48625 1.27633C2.01375 1.40048 1.57431 1.62697 1.19904 1.93978C0.823778 2.25259 0.521857 2.64406 0.314655 3.08648C0.107452 3.52891 3.25416e-05 4.01147 0 4.50001L0 11.6953C3.83039e-05 12.4759 0.273984 13.2316 0.774089 13.8309C1.27419 14.4302 1.96874 14.835 2.73667 14.9747L6.92733 15.7367C7.63664 15.8656 8.36336 15.8656 9.07267 15.7367L13.2667 14.9747C14.034 14.8343 14.7278 14.4292 15.2272 13.83C15.7266 13.2308 16.0001 12.4754 16 11.6953V4.50001C16.0003 4.01164 15.8929 3.52921 15.6855 3.08707C15.4781 2.64494 15.1758 2.25397 14.8 1.94201ZM7.33333 14.452C7.27733 14.444 7.22133 14.4347 7.16533 14.4247L2.97533 13.6633C2.51451 13.5795 2.09773 13.3366 1.79766 12.9769C1.49759 12.6173 1.33326 12.1637 1.33333 11.6953V4.50001C1.33333 3.96958 1.54405 3.46087 1.91912 3.0858C2.29419 2.71073 2.8029 2.50001 3.33333 2.50001C3.45406 2.5003 3.57453 2.51123 3.69333 2.53268L6.24 2.99935C6.54641 3.05541 6.82351 3.21699 7.02323 3.45604C7.22294 3.69509 7.33266 3.99652 7.33333 4.30801V14.452ZM14.6667 11.6953C14.6667 12.1637 14.5024 12.6173 14.2023 12.9769C13.9023 13.3366 13.4855 13.5795 13.0247 13.6633L8.83467 14.4247C8.77867 14.4347 8.72267 14.444 8.66667 14.452V4.30801C8.66662 3.99575 8.77617 3.69338 8.97622 3.45362C9.17626 3.21385 9.45412 3.05191 9.76133 2.99601L12.3087 2.52935C12.5971 2.47686 12.8936 2.48845 13.1771 2.56329C13.4606 2.63812 13.7242 2.77439 13.9492 2.96242C14.1742 3.15045 14.3551 3.38565 14.4791 3.65136C14.6031 3.91707 14.6671 4.2068 14.6667 4.50001V11.6953Z" fill="#FF654E"/>
</g>
<defs>
<clipPath id="clip0_470_615">
<rect width="16" height="16" fill="white" transform="translate(0 0.5)"/>
</clipPath>
</defs>
</svg>
