<svg width="16" height="17" viewBox="0 0 16 17" fill="none" xmlns="http://www.w3.org/2000/svg">
<g clip-path="url(#clip0_470_584)">
<path d="M12.6667 0.5H3.33333C2.4496 0.501059 1.60237 0.852588 0.97748 1.47748C0.352588 2.10237 0.00105857 2.9496 0 3.83333L0 13.1667C0.00105857 14.0504 0.352588 14.8976 0.97748 15.5225C1.60237 16.1474 2.4496 16.4989 3.33333 16.5H12.6667C13.5504 16.4989 14.3976 16.1474 15.0225 15.5225C15.6474 14.8976 15.9989 14.0504 16 13.1667V3.83333C15.9989 2.9496 15.6474 2.10237 15.0225 1.47748C14.3976 0.852588 13.5504 0.501059 12.6667 0.5V0.5ZM13.3333 7.83333H14.6667V9.16667H13.3333V7.83333ZM13.3333 6.5V5.16667H14.6667V6.5H13.3333ZM12 7.83333H4V1.83333H12V7.83333ZM2.66667 9.16667H1.33333V7.83333H2.66667V9.16667ZM2.66667 6.5H1.33333V5.16667H2.66667V6.5ZM1.33333 10.5H2.66667V11.8333H1.33333V10.5ZM4 9.16667H12V15.1667H4V9.16667ZM13.3333 10.5H14.6667V11.8333H13.3333V10.5ZM14.6667 3.83333H13.3333V1.956C13.7219 2.09339 14.0586 2.34749 14.2973 2.68353C14.5359 3.01958 14.665 3.42116 14.6667 3.83333ZM2.66667 1.956V3.83333H1.33333C1.33504 3.42116 1.46406 3.01958 1.70273 2.68353C1.94139 2.34749 2.27806 2.09339 2.66667 1.956ZM1.33333 13.1667H2.66667V15.044C2.27806 14.9066 1.94139 14.6525 1.70273 14.3165C1.46406 13.9804 1.33504 13.5788 1.33333 13.1667ZM13.3333 15.044V13.1667H14.6667C14.665 13.5788 14.5359 13.9804 14.2973 14.3165C14.0586 14.6525 13.7219 14.9066 13.3333 15.044Z" fill="#FF654E"/>
</g>
<defs>
<clipPath id="clip0_470_584">
<rect width="16" height="16" fill="white" transform="translate(0 0.5)"/>
</clipPath>
</defs>
</svg>
