<svg width="16" height="17" viewBox="0 0 16 17" fill="none" xmlns="http://www.w3.org/2000/svg">
<g clipPath="url(#clip0_470_578)">
<path d="M6 0.500002C6.17612 0.496276 6.35117 0.528218 6.51462 0.593905C6.67807 0.659592 6.82655 0.757667 6.95111 0.882229C7.07567 1.00679 7.17374 1.15526 7.23943 1.31872C7.30512 1.48217 7.33706 1.65722 7.33333 1.83334L7.33333 6.5L12.3547 6.5L13.1807 5.508C13.68 4.806 15.8053 3.78867 16 5.16667C16 5.34348 15.9298 5.51305 15.8047 5.63807C15.6797 5.7631 15.5101 5.83334 15.3333 5.83334C15.1181 5.83318 14.9054 5.88041 14.7105 5.97166C14.5156 6.06291 14.3431 6.19595 14.2053 6.36134L13.3333 7.408V7.83334C13.3323 8.71707 12.9807 9.5643 12.3559 10.1892C11.731 10.8141 10.8837 11.1656 10 11.1667H8.09L9.82333 13.2467C10.1878 13.1294 10.5816 13.1412 10.9384 13.2801C11.2952 13.4191 11.5933 13.6766 11.7826 14.0094C11.9718 14.3423 12.0407 14.7302 11.9776 15.1078C11.9146 15.4855 11.7234 15.8299 11.4362 16.0832C11.149 16.3365 10.7834 16.4832 10.4008 16.4986C10.0182 16.514 9.64202 16.3972 9.33541 16.1678C9.02881 15.9385 8.81052 15.6106 8.71726 15.2392C8.62401 14.8678 8.66146 14.4757 8.82333 14.1287L6.66667 11.5413L4.51067 14.1287C4.67254 14.4757 4.70999 14.8678 4.61673 15.2392C4.52348 15.6106 4.30519 15.9385 3.99859 16.1678C3.69198 16.3972 3.31575 16.514 2.93316 16.4986C2.55058 16.4832 2.18496 16.3365 1.8978 16.0832C1.61064 15.8299 1.41945 15.4855 1.35637 15.1078C1.29328 14.7302 1.36216 14.3423 1.55143 14.0094C1.74069 13.6766 2.03879 13.4191 2.3956 13.2801C2.75241 13.1412 3.14617 13.1294 3.51067 13.2467L5.24333 11.1667L3.33333 11.1667C2.4496 11.1656 1.60237 10.8141 0.977479 10.1892C0.352587 9.5643 0.00105857 8.71707 0 7.83334L0 7.16667C0 0.576003 5.94 0.500002 6 0.500002ZM1.35933 6.5L6 6.5L6 1.83334C4.77132 1.85442 3.59925 2.35366 2.73274 3.22502C1.86624 4.09639 1.37355 5.27122 1.35933 6.5ZM3.33333 9.83334L10 9.83334C10.5304 9.83334 11.0391 9.62262 11.4142 9.24755C11.7893 8.87248 12 8.36377 12 7.83334L1.33333 7.83334C1.33333 8.36377 1.54405 8.87248 1.91912 9.24755C2.29419 9.62262 2.8029 9.83334 3.33333 9.83334Z" fill="#FF654E"/>
</g>
<defs>
<clipPath id="clip0_470_578">
<rect width="16" height="16" fill="white" transform="translate(0 0.5)"/>
</clipPath>
</defs>
</svg>
