<svg width="16" height="16" viewBox="0 0 16 16" fill="none" xmlns="http://www.w3.org/2000/svg">
<g clip-path="url(#clip0_470_626)">
<path d="M10.862 6.17066C10.6013 6.43133 10.6013 6.85333 10.862 7.11333C11.1227 7.37399 11.5447 7.37399 11.8047 7.11333C12.0653 6.85266 12.0653 6.43066 11.8047 6.17066C11.544 5.90999 11.122 5.90999 10.862 6.17066ZM1.62733 10.2273L2.00399 10.604C2.02199 11.426 2.34066 12.242 2.96066 12.87L5.07199 15.0087C5.70066 15.6453 6.53933 15.9973 7.43399 16H7.44533C8.33533 16 9.17199 15.6533 9.80133 15.024L14.7453 10.122C15.1787 9.68933 15.388 9.09399 15.3213 8.48666L14.8113 3.87599C14.7773 3.57199 14.542 3.32999 14.2393 3.28866L9.64666 2.66066C9.02533 2.57799 8.39999 2.78933 7.96133 3.22799L2.97799 8.16933C2.71999 8.42733 2.51332 8.71799 2.35732 9.02799C1.81599 8.25066 1.89199 7.16466 2.58533 6.47133L7.64599 1.53466C7.79866 1.38199 8.00933 1.31133 8.21333 1.33999L12.806 1.96799C13.172 2.01733 13.5073 1.76199 13.5573 1.39799C13.6067 1.03333 13.3513 0.697326 12.9873 0.647326L8.39399 0.018659C7.77999 -0.0686744 7.14799 0.145992 6.70866 0.586659L1.64933 5.52333C0.351993 6.81999 0.344658 8.92799 1.62799 10.228L1.62733 10.2273ZM3.91932 9.11399L8.90266 4.17266C9.05133 4.02399 9.25999 3.95533 9.46733 3.98133L13.544 4.53933L13.9967 8.63266C14.0187 8.83466 13.9493 9.03333 13.8053 9.17666L8.86133 14.0787C8.48199 14.4587 7.97999 14.666 7.44599 14.666H7.43933C6.90199 14.6647 6.39866 14.4533 6.02199 14.0707L3.91066 11.932C3.14066 11.152 3.14466 9.88733 3.91999 9.11266L3.91932 9.11399Z" fill="#FF654E"/>
</g>
<defs>
<clipPath id="clip0_470_626">
<rect width="16" height="16" fill="white" transform="matrix(-1 0 0 1 16 0)"/>
</clipPath>
</defs>
</svg>
