<svg width="16" height="16" viewBox="0 0 16 16" fill="none" xmlns="http://www.w3.org/2000/svg">
<g clipPath="url(#clip0_765_25)">
<path d="M8 1.33325C3.514 1.33325 0 3.23659 0 5.66659V10.3333C0 12.7633 3.514 14.6666 8 14.6666C12.486 14.6666 16 12.7633 16 10.3333V5.66659C16 3.23659 12.486 1.33325 8 1.33325ZM1.33333 10.3333V8.09325C1.53533 8.25792 1.75867 8.41459 2 8.56192V11.5793C1.56867 11.1793 1.33333 10.7499 1.33333 10.3339V10.3333ZM4.66667 12.9106C4.17533 12.7759 3.72867 12.6133 3.33333 12.4313V9.20792C3.74867 9.36725 4.19467 9.50525 4.66667 9.61925V12.9099V12.9106ZM7.33333 13.3179C6.86867 13.2966 6.42333 13.2526 6 13.1893V9.86859C6.43067 9.92659 6.876 9.96592 7.33333 9.98525V13.3173V13.3179ZM10 13.1893C9.57667 13.2526 9.13133 13.2959 8.66667 13.3179V9.98592C9.124 9.96659 9.56933 9.92725 10 9.86925V13.1899V13.1893ZM12.6667 12.4319C12.2713 12.6139 11.8247 12.7759 11.3333 12.9113V9.62059C11.8053 9.50659 12.2513 9.36859 12.6667 9.20925V12.4326V12.4319ZM14.6667 10.3339C14.6667 10.7499 14.4313 11.1793 14 11.5793V8.56192C14.2413 8.41459 14.4647 8.25859 14.6667 8.09325V10.3333V10.3339ZM8 8.66725C4.07133 8.66725 1.33333 7.08592 1.33333 5.66725C1.33333 4.24859 4.07133 2.66659 8 2.66659C11.9287 2.66659 14.6667 4.24792 14.6667 5.66659C14.6667 7.08525 11.9287 8.66659 8 8.66659V8.66725Z" fill="#FF654E"/>
</g>
<defs>
<clipPath id="clip0_765_25">
<rect width="16" height="16" fill="white"/>
</clipPath>
</defs>
</svg>
