<svg width="16" height="17" viewBox="0 0 16 17" fill="none" xmlns="http://www.w3.org/2000/svg">
<g clip-path="url(#clip0_470_593)">
<path d="M14.7048 3.98666L9.78877 1.64466C8.70664 0.998286 7.35977 0.986818 6.26677 1.61466L1.29546 3.98666C1.2768 3.99601 1.25746 4.00601 1.23946 4.01666C0.0597062 4.69122 -0.349856 6.19444 0.324706 7.37419C0.553362 7.77413 0.889706 8.10182 1.29546 8.32001L2.6668 8.97335V12.24C2.66761 13.7007 3.61808 14.9912 5.0128 15.4253C5.98339 15.7061 6.9898 15.8436 8.00014 15.8333C9.01033 15.8447 10.0167 15.7083 10.9875 15.4287C12.3822 14.9946 13.3327 13.7041 13.3335 12.2433V8.97201L14.6668 8.33466V13.8333C14.6668 14.2015 14.9653 14.5 15.3335 14.5C15.7017 14.5 16.0001 14.2015 16.0001 13.8333V5.83332C16.0046 5.05047 15.3865 4.32729 14.7048 3.98666ZM12.0001 12.2433C12.0005 13.1171 11.4336 13.8899 10.6001 14.152C9.75493 14.3935 8.87908 14.5107 8.00011 14.5C7.12114 14.5107 6.2453 14.3935 5.40011 14.152C4.56664 13.8899 3.99977 13.1171 4.00011 12.2433V9.60869L6.21146 10.662C6.75708 10.986 7.38024 11.1563 8.0148 11.1547C8.6188 11.159 9.21264 10.9991 9.7328 10.692L12.0001 9.60866V12.2433ZM14.1335 7.11666L9.10546 9.51666C8.40439 9.92488 7.53542 9.91332 6.84546 9.48666L1.92611 7.14666C1.37777 6.85097 1.17296 6.16676 1.46864 5.61844C1.56864 5.43301 1.71858 5.27929 1.90146 5.17466L6.89811 2.78801C7.59939 2.38069 8.46789 2.39222 9.15811 2.81801L14.0741 5.16001C14.4356 5.36076 14.6618 5.73985 14.6668 6.15335C14.6674 6.54504 14.4657 6.90929 14.1335 7.11666Z" fill="#FF654E"/>
</g>
<defs>
<clipPath id="clip0_470_593">
<rect width="16" height="16" fill="white" transform="translate(0 0.5)"/>
</clipPath>
</defs>
</svg>
