<svg width="16" height="17" viewBox="0 0 16 17" fill="none" xmlns="http://www.w3.org/2000/svg">
<g clip-path="url(#clip0_470_617)">
<path d="M15.4666 1.03333C15.2193 0.784001 14.905 0.611933 14.5617 0.538074C14.2184 0.464214 13.8611 0.491749 13.5332 0.617325L2.10323 5.11933C1.35631 5.41471 0.741931 5.97105 0.374123 6.68509C0.00631416 7.39913 -0.0899396 8.22236 0.103227 9.00199C0.587916 10.7712 1.52469 12.3838 2.82145 13.6812C4.1182 14.9787 5.73029 15.9163 7.49923 16.402C8.27966 16.5939 9.10322 16.4965 9.81727 16.1276C10.5313 15.7587 11.0874 15.1435 11.3826 14.396L15.8879 2.94799C16.0094 2.62215 16.0343 2.26817 15.9595 1.92854C15.8848 1.58891 15.7136 1.27807 15.4666 1.03333ZM7.83056 15.1073C6.29125 14.6849 4.88835 13.8692 3.75971 12.7404C2.63106 11.6117 1.81552 10.2087 1.39323 8.66932C1.29584 8.27214 1.32474 7.85447 1.4759 7.47448C1.62706 7.09448 1.89296 6.77109 2.23656 6.54933C2.30548 8.57312 3.14012 10.4953 4.57181 11.9274C6.00349 13.3594 7.92545 14.1946 9.94923 14.264C9.72769 14.6075 9.40453 14.8733 9.02477 15.0245C8.64501 15.1757 8.22755 15.2046 7.83056 15.1073ZM10.5152 12.956C6.38789 12.8893 3.61189 10.1127 3.54456 5.98466L14.0066 1.86466C14.0939 1.83117 14.1892 1.82406 14.2806 1.84421C14.3719 1.86435 14.4554 1.91087 14.5206 1.97799C14.5871 2.04018 14.6339 2.12046 14.6554 2.20895C14.6768 2.29744 14.6719 2.39026 14.6412 2.47599L14.1999 3.59666C10.3612 2.27666 8.23856 7.73599 11.9246 9.37533L10.5152 12.956ZM12.4132 8.13466C11.9951 7.95032 11.6645 7.61136 11.4907 7.18876C11.3168 6.76615 11.3132 6.29268 11.4806 5.86749C11.6481 5.44229 11.9735 5.09836 12.3888 4.9077C12.804 4.71705 13.277 4.69445 13.7086 4.84466L12.4132 8.13466Z" fill="#FF654E"/>
<path d="M7.33333 6.5C6.97971 6.5 6.64057 6.64048 6.39052 6.89052C6.14048 7.14057 6 7.47971 6 7.83333C6 8.18696 6.14048 8.52609 6.39052 8.77614C6.64057 9.02619 6.97971 9.16667 7.33333 9.16667C7.68696 9.16667 8.02609 9.02619 8.27614 8.77614C8.52619 8.52609 8.66667 8.18696 8.66667 7.83333C8.66667 7.47971 8.52619 7.14057 8.27614 6.89052C8.02609 6.64048 7.68696 6.5 7.33333 6.5Z" fill="#FF654E"/>
</g>
<defs>
<clipPath id="clip0_470_617">
<rect width="16" height="16" fill="white" transform="translate(0 0.5)"/>
</clipPath>
</defs>
</svg>
