<svg width="16" height="17" viewBox="0 0 16 17" fill="none" xmlns="http://www.w3.org/2000/svg">
<g clip-path="url(#clip0_470_580)">
<path d="M3.33333 9.16667C2.67406 9.16667 2.0296 9.36216 1.48143 9.72844C0.93327 10.0947 0.506029 10.6153 0.253736 11.2244C0.00144428 11.8335 -0.0645668 12.5037 0.0640506 13.1503C0.192668 13.7969 0.510137 14.3908 0.976312 14.857C1.44249 15.3232 2.03643 15.6407 2.68303 15.7693C3.32964 15.8979 3.99986 15.8319 4.60895 15.5796C5.21803 15.3273 5.73863 14.9001 6.1049 14.3519C6.47117 13.8037 6.66667 13.1593 6.66667 12.5C6.66561 11.6163 6.31408 10.769 5.68919 10.1441C5.0643 9.51926 4.21706 9.16773 3.33333 9.16667ZM3.33333 14.5C2.93777 14.5 2.55109 14.3827 2.22219 14.1629C1.8933 13.9432 1.63695 13.6308 1.48558 13.2654C1.3342 12.8999 1.29459 12.4978 1.37176 12.1098C1.44893 11.7219 1.63942 11.3655 1.91912 11.0858C2.19883 10.8061 2.55519 10.6156 2.94315 10.5384C3.33112 10.4613 3.73325 10.5009 4.0987 10.6522C4.46415 10.8036 4.77651 11.06 4.99627 11.3889C5.21604 11.7178 5.33333 12.1044 5.33333 12.5C5.33333 13.0304 5.12262 13.5391 4.74755 13.9142C4.37248 14.2893 3.86377 14.5 3.33333 14.5ZM12.6667 9.16667C12.0074 9.16667 11.3629 9.36216 10.8148 9.72844C10.2666 10.0947 9.83936 10.6153 9.58707 11.2244C9.33478 11.8335 9.26877 12.5037 9.39738 13.1503C9.526 13.7969 9.84347 14.3908 10.3096 14.857C10.7758 15.3232 11.3698 15.6407 12.0164 15.7693C12.663 15.8979 13.3332 15.8319 13.9423 15.5796C14.5514 15.3273 15.072 14.9001 15.4382 14.3519C15.8045 13.8037 16 13.1593 16 12.5C15.9989 11.6163 15.6474 10.769 15.0225 10.1441C14.3976 9.51926 13.5504 9.16773 12.6667 9.16667ZM12.6667 14.5C12.2711 14.5 11.8844 14.3827 11.5555 14.1629C11.2266 13.9432 10.9703 13.6308 10.8189 13.2654C10.6675 12.8999 10.6279 12.4978 10.7051 12.1098C10.7823 11.7219 10.9727 11.3655 11.2525 11.0858C11.5322 10.8061 11.8885 10.6156 12.2765 10.5384C12.6644 10.4613 13.0666 10.5009 13.432 10.6522C13.7975 10.8036 14.1098 11.06 14.3296 11.3889C14.5494 11.7178 14.6667 12.1044 14.6667 12.5C14.6667 13.0304 14.456 13.5391 14.0809 13.9142C13.7058 14.2893 13.1971 14.5 12.6667 14.5ZM6.90934 8.018C6.83977 7.95869 6.78331 7.88554 6.74355 7.80321C6.70379 7.72089 6.68161 7.63119 6.67841 7.53982C6.67521 7.44846 6.69107 7.35742 6.72497 7.27252C6.75888 7.18762 6.81008 7.1107 6.87533 7.04667C6.988 6.94 8.644 5.42 8.644 5.42L10.862 7.638C10.9877 7.75944 11.1561 7.82664 11.3309 7.82512C11.5057 7.8236 11.6729 7.75349 11.7965 7.62988C11.9202 7.50627 11.9903 7.33907 11.9918 7.16427C11.9933 6.98947 11.9261 6.82107 11.8047 6.69533L9.138 4.02867C9.11253 4.00258 9.08487 3.97872 9.05534 3.95733C8.3413 3.45185 7.49014 3.17603 6.61533 3.16667C5.68067 3.16667 3.33333 3.96 3.33333 5.83333C3.33333 6.36377 3.54405 6.87248 3.91912 7.24755C4.29419 7.62262 4.8029 7.83333 5.33333 7.83333C5.34933 7.83333 5.364 7.83 5.37933 7.82933C5.45124 8.295 5.68577 8.72015 6.04134 9.02933L7.33333 10.1393V12.5C7.33333 12.6768 7.40357 12.8464 7.5286 12.9714C7.65362 13.0964 7.82319 13.1667 8 13.1667C8.17681 13.1667 8.34638 13.0964 8.47141 12.9714C8.59643 12.8464 8.66667 12.6768 8.66667 12.5V9.83333C8.66666 9.7372 8.64586 9.64221 8.6057 9.55487C8.56554 9.46754 8.50697 9.38991 8.434 9.32733L6.90934 8.018ZM4.66667 5.83333C4.66667 5.024 6.11467 4.5 6.61533 4.5C6.91914 4.50161 7.22064 4.55273 7.508 4.65133C7.508 4.65133 5.964 6.074 5.946 6.09133C5.692 6.33267 5.48333 6.5 5.33333 6.5C5.15652 6.5 4.98695 6.42976 4.86193 6.30474C4.73691 6.17971 4.66667 6.01015 4.66667 5.83333ZM9.33333 2.16667C9.33333 1.83703 9.43108 1.5148 9.61422 1.24072C9.79735 0.966635 10.0577 0.753014 10.3622 0.626868C10.6667 0.500722 11.0019 0.467717 11.3252 0.532025C11.6485 0.596334 11.9454 0.755069 12.1785 0.988156C12.4116 1.22124 12.5703 1.51822 12.6346 1.84152C12.699 2.16482 12.6659 2.49993 12.5398 2.80447C12.4137 3.10902 12.2 3.36931 11.926 3.55245C11.6519 3.73559 11.3296 3.83333 11 3.83333C10.558 3.83333 10.1341 3.65774 9.82149 3.34518C9.50893 3.03262 9.33333 2.6087 9.33333 2.16667Z" fill="#FF654E"/>
</g>
<defs>
<clipPath id="clip0_470_580">
<rect width="16" height="16" fill="white" transform="translate(0 0.5)"/>
</clipPath>
</defs>
</svg>
