<svg width="16" height="17" viewBox="0 0 16 17" fill="none" xmlns="http://www.w3.org/2000/svg">
<g clip-path="url(#clip0_470_582)">
<path d="M15.3334 7.83333C15.3334 6.36267 14.1374 5.16667 12.6667 5.16667V3.83333C12.6667 1.99533 11.1714 0.5 9.33342 0.5H6.66675C4.82875 0.5 3.33341 1.99533 3.33341 3.83333V5.16667C1.86275 5.16667 0.666748 6.36267 0.666748 7.83333V11.1667C0.666748 11.178 0.666748 11.19 0.667415 11.2013C0.686081 12.288 1.57541 13.1667 2.66675 13.1667H7.33342V15.1667H4.66675C4.29875 15.1667 4.00008 15.4647 4.00008 15.8333C4.00008 16.202 4.29875 16.5 4.66675 16.5H11.3334C11.7014 16.5 12.0001 16.202 12.0001 15.8333C12.0001 15.4647 11.7014 15.1667 11.3334 15.1667H8.66675V13.1667H13.3334C14.4247 13.1667 15.3141 12.288 15.3327 11.2013C15.3327 11.19 15.3334 11.1787 15.3334 11.1667V7.83333ZM14.0001 7.83333V9.28133C13.7914 9.20733 13.5674 9.16667 13.3334 9.16667H12.6667V6.5C13.4021 6.5 14.0001 7.098 14.0001 7.83333ZM4.66675 3.83333C4.66675 2.73067 5.56408 1.83333 6.66675 1.83333H9.33342C10.4361 1.83333 11.3334 2.73067 11.3334 3.83333V9.16667H4.66675V3.83333ZM3.33341 6.5V9.16667H2.66675C2.43275 9.16667 2.20875 9.20733 2.00008 9.28133V7.83333C2.00008 7.098 2.59808 6.5 3.33341 6.5ZM13.3334 11.8333H2.66675C2.29941 11.8333 2.00008 11.5347 2.00008 11.1667C2.00008 10.7987 2.29941 10.5 2.66675 10.5H13.3334C13.7007 10.5 14.0001 10.7987 14.0001 11.1667C14.0001 11.5347 13.7007 11.8333 13.3334 11.8333Z" fill="#FF654E"/>
</g>
<defs>
<clipPath id="clip0_470_582">
<rect width="16" height="16" fill="white" transform="translate(0 0.5)"/>
</clipPath>
</defs>
</svg>
