<svg width="16" height="17" viewBox="0 0 16 17" fill="none" xmlns="http://www.w3.org/2000/svg">
<path d="M14.805 3.85268C14.2075 2.85684 13.1452 2.19293 11.9502 2.19293H3.98341C2.78837 2.19293 1.72616 2.85684 1.12863 3.85268C0.398344 5.18049 0 6.64109 0 8.16806C0 11.8195 1.46059 14.8071 3.3195 14.8071C4.31534 14.8071 5.11203 13.8776 5.70953 11.9523C5.77591 11.6867 6.04147 11.4876 6.37344 11.4876H9.62656C9.89212 11.4876 10.1577 11.6867 10.2905 11.9523C10.888 13.8776 11.6847 14.8071 12.6805 14.8071C14.5394 14.8071 16 11.8195 16 8.16806C15.9336 6.64109 15.5353 5.18049 14.805 3.85268ZM12.6141 13.4792C12.4149 13.4792 11.9502 12.9481 11.4855 11.5539C11.2199 10.6909 10.4232 10.1597 9.56016 10.1597H6.37344C5.51038 10.1597 4.71369 10.7572 4.44812 11.5539C3.98341 12.9481 3.51866 13.4792 3.3195 13.4792C2.65559 13.4792 1.32781 11.4212 1.32781 8.16806C1.32781 6.90665 1.65975 5.64524 2.25728 4.51662C2.65563 3.91912 3.31953 3.52078 3.98344 3.52078H11.9502C12.6142 3.52078 13.2781 3.91912 13.6764 4.51662C14.2739 5.64524 14.6059 6.90665 14.6059 8.16806C14.6058 11.4212 13.278 13.4792 12.6141 13.4792Z" fill="#FF654E"/>
<path d="M6.00003 6.5H5.33337V5.83334C5.33337 5.43334 5.06672 5.16669 4.66672 5.16669C4.26672 5.16669 4.00006 5.43334 4.00006 5.83334V6.5H3.3334C2.9334 6.5 2.66675 6.76666 2.66675 7.16666C2.66675 7.56666 2.9334 7.83331 3.3334 7.83331H4.00003V8.5C4.00003 8.9 4.26669 9.16666 4.66669 9.16666C5.06669 9.16666 5.33334 8.9 5.33334 8.5V7.83334H6.00003C6.40003 7.83334 6.66669 7.56669 6.66669 7.16669C6.66669 6.76666 6.40003 6.5 6.00003 6.5Z" fill="#FF654E"/>
<path d="M12.3333 7.16666C12.8855 7.16666 13.3333 6.71894 13.3333 6.16666C13.3333 5.61437 12.8855 5.16666 12.3333 5.16666C11.781 5.16666 11.3333 5.61437 11.3333 6.16666C11.3333 6.71894 11.781 7.16666 12.3333 7.16666Z" fill="#FF654E"/>
<path d="M10.3333 9.16666C10.8855 9.16666 11.3333 8.71894 11.3333 8.16666C11.3333 7.61437 10.8855 7.16666 10.3333 7.16666C9.78097 7.16666 9.33325 7.61437 9.33325 8.16666C9.33325 8.71894 9.78097 9.16666 10.3333 9.16666Z" fill="#FF654E"/>
</svg>
