<svg width="16" height="17" viewBox="0 0 16 17" fill="none" xmlns="http://www.w3.org/2000/svg">
<g clip-path="url(#clip0_470_591)">
<path d="M13.3333 5.16667H12.1747C12.5516 4.8344 12.8508 4.42325 13.051 3.9624C13.2513 3.50154 13.3477 3.00227 13.3333 2.5C13.3333 2.32319 13.2631 2.15362 13.1381 2.0286C13.013 1.90357 12.8435 1.83333 12.6667 1.83333C12.4899 1.83333 12.3203 1.90357 12.1953 2.0286C12.0702 2.15362 12 2.32319 12 2.5C12 4.248 10.4193 4.85333 9.21733 5.06067C9.66099 4.27404 9.92806 3.40025 10 2.5C10 1.96957 9.78929 1.46086 9.41421 1.08579C9.03914 0.710714 8.53043 0.5 8 0.5C7.46957 0.5 6.96086 0.710714 6.58579 1.08579C6.21071 1.46086 6 1.96957 6 2.5C6.07194 3.40025 6.33901 4.27404 6.78267 5.06067C5.58067 4.85333 4 4.248 4 2.5C4 2.32319 3.92976 2.15362 3.80474 2.0286C3.67971 1.90357 3.51014 1.83333 3.33333 1.83333C3.15652 1.83333 2.98695 1.90357 2.86193 2.0286C2.7369 2.15362 2.66667 2.32319 2.66667 2.5C2.65234 3.00227 2.74872 3.50154 2.94896 3.9624C3.1492 4.42325 3.4484 4.8344 3.82533 5.16667H2.66667C1.95942 5.16667 1.28115 5.44762 0.781049 5.94772C0.280952 6.44781 0 7.12609 0 7.83333L0 8.5C0 8.85362 0.140476 9.19276 0.390524 9.44281C0.640573 9.69286 0.979711 9.83333 1.33333 9.83333V13.1667C1.33439 14.0504 1.68592 14.8976 2.31081 15.5225C2.93571 16.1474 3.78294 16.4989 4.66667 16.5H11.3333C12.2171 16.4989 13.0643 16.1474 13.6892 15.5225C14.3141 14.8976 14.6656 14.0504 14.6667 13.1667V9.83333C15.0203 9.83333 15.3594 9.69286 15.6095 9.44281C15.8595 9.19276 16 8.85362 16 8.5V7.83333C16 7.12609 15.719 6.44781 15.219 5.94772C14.7189 5.44762 14.0406 5.16667 13.3333 5.16667ZM8 1.83333C8.17681 1.83333 8.34638 1.90357 8.47141 2.0286C8.59643 2.15362 8.66667 2.32319 8.66667 2.5C8.58619 3.20855 8.35915 3.89261 8 4.50867C7.64085 3.89261 7.41381 3.20855 7.33333 2.5C7.33333 2.32319 7.40357 2.15362 7.5286 2.0286C7.65362 1.90357 7.82319 1.83333 8 1.83333ZM1.33333 7.83333C1.33333 7.47971 1.47381 7.14057 1.72386 6.89052C1.97391 6.64048 2.31304 6.5 2.66667 6.5H7.33333V8.5H1.33333V7.83333ZM2.66667 13.1667V9.83333H7.33333V15.1667H4.66667C4.13623 15.1667 3.62753 14.956 3.25245 14.5809C2.87738 14.2058 2.66667 13.6971 2.66667 13.1667ZM13.3333 13.1667C13.3333 13.6971 13.1226 14.2058 12.7475 14.5809C12.3725 14.956 11.8638 15.1667 11.3333 15.1667H8.66667V9.83333H13.3333V13.1667ZM8.66667 8.5V6.5H13.3333C13.687 6.5 14.0261 6.64048 14.2761 6.89052C14.5262 7.14057 14.6667 7.47971 14.6667 7.83333V8.5H8.66667Z" fill="#FF654E"/>
</g>
<defs>
<clipPath id="clip0_470_591">
<rect width="16" height="16" fill="white" transform="translate(0 0.5)"/>
</clipPath>
</defs>
</svg>
