<svg width="16" height="17" viewBox="0 0 16 17" fill="none" xmlns="http://www.w3.org/2000/svg">
<g clip-path="url(#clip0_470_601)">
<path d="M14 7.16661H11.7954L8.96405 1.54194C8.79194 1.22654 8.53804 0.963321 8.22904 0.779962C7.92004 0.596604 7.56735 0.499874 7.20805 0.499941H7.08671C6.81463 0.499565 6.54619 0.562517 6.30264 0.683814C6.05909 0.805112 5.84711 0.981427 5.68348 1.19881C5.51985 1.41619 5.40905 1.66867 5.35985 1.93627C5.31066 2.20387 5.32442 2.47924 5.40005 2.74061L6.68538 7.16661H5.09605C4.83321 7.1673 4.57285 7.11586 4.33003 7.01528C4.08721 6.91469 3.86674 6.76695 3.68138 6.58061L2.73671 5.63327C2.49526 5.39207 2.18324 5.23405 1.84592 5.18214C1.5086 5.13024 1.16351 5.18715 0.860713 5.34461C0.673352 5.44127 0.507741 5.57524 0.374063 5.73826C0.240384 5.90129 0.141463 6.08994 0.0833799 6.29261C0.019141 6.51005 -0.000508188 6.73823 0.0256114 6.96345C0.051731 7.18868 0.123081 7.40631 0.23538 7.60327L1.31138 9.48661C1.60349 9.99634 2.02483 10.42 2.53292 10.715C3.04101 11.0099 3.61788 11.1657 4.20538 11.1666H6.67938L5.56738 14.1313C5.46783 14.3964 5.43403 14.6818 5.46887 14.9629C5.50371 15.244 5.60616 15.5124 5.76743 15.7452C5.92871 15.9781 6.14401 16.1684 6.39491 16.2998C6.6458 16.4312 6.92481 16.4999 7.20805 16.4999C7.56114 16.5018 7.90832 16.4093 8.21365 16.232C8.51898 16.0546 8.77138 15.7989 8.94471 15.4913L11.6427 11.1666H14C14.5305 11.1666 15.0392 10.9559 15.4143 10.5808C15.7893 10.2057 16 9.69704 16 9.16661C16 8.63618 15.7893 8.12747 15.4143 7.75239C15.0392 7.37732 14.5305 7.16661 14 7.16661ZM6.68338 2.36994C6.66529 2.30739 6.662 2.2415 6.67375 2.17746C6.6855 2.11342 6.71198 2.05299 6.7511 2.00094C6.79022 1.94889 6.8409 1.90665 6.89915 1.87755C6.95739 1.84845 7.0216 1.8333 7.08671 1.83327H7.20805C7.32429 1.83227 7.43873 1.86202 7.53977 1.91951C7.64081 1.97699 7.72485 2.06017 7.78338 2.16061L10.3034 7.16661H8.07338L6.68338 2.36994ZM14 9.83328H11.2727C11.1596 9.83335 11.0483 9.86221 10.9494 9.91714C10.8505 9.97207 10.7672 10.0513 10.7074 10.1473L7.79338 14.8193C7.73601 14.9244 7.65138 15.0121 7.54838 15.0733C7.44538 15.1344 7.32782 15.1666 7.20805 15.1666C7.14028 15.1667 7.07351 15.1503 7.01347 15.1188C6.95343 15.0874 6.90192 15.0419 6.86337 14.9861C6.82481 14.9304 6.80037 14.8661 6.79212 14.7989C6.78388 14.7316 6.79209 14.6633 6.81605 14.5999L8.26538 10.7333C8.30306 10.6324 8.31576 10.5239 8.30238 10.4171C8.289 10.3103 8.24995 10.2083 8.18855 10.1198C8.12716 10.0314 8.04526 9.9591 7.94986 9.9092C7.85445 9.8593 7.74838 9.83325 7.64071 9.83328H4.20538C3.8533 9.83269 3.50762 9.73918 3.20327 9.56219C2.89891 9.38519 2.64668 9.13099 2.47205 8.82528L1.39271 6.94127C1.37013 6.9011 1.35573 6.85685 1.35035 6.81108C1.34497 6.76531 1.34872 6.71892 1.36138 6.67461C1.36806 6.64507 1.38089 6.61728 1.39904 6.59304C1.41719 6.5688 1.44025 6.54866 1.46671 6.53394C1.50781 6.51212 1.55352 6.50047 1.60005 6.49994C1.6716 6.50044 1.74017 6.52863 1.79138 6.57861L2.73605 7.52327C3.04528 7.83405 3.4131 8.0804 3.8182 8.24805C4.2233 8.41569 4.65763 8.50131 5.09605 8.49994H14C14.1769 8.49994 14.3464 8.57018 14.4715 8.6952C14.5965 8.82023 14.6667 8.9898 14.6667 9.16661C14.6667 9.34342 14.5965 9.51299 14.4715 9.63801C14.3464 9.76304 14.1769 9.83328 14 9.83328Z" fill="#FF654E"/>
</g>
<defs>
<clipPath id="clip0_470_601">
<rect width="16" height="16" fill="white" transform="translate(0 0.5)"/>
</clipPath>
</defs>
</svg>
