<svg width="16" height="17" viewBox="0 0 16 17" fill="none" xmlns="http://www.w3.org/2000/svg">
<g clip-path="url(#clip0_470_603)">
<path d="M15.5312 6.52267C15.1512 6.08467 14.6006 5.83333 14.0199 5.83333H13.9626C13.6299 2.83733 11.0832 0.5 7.9999 0.5C4.91657 0.5 2.3699 2.83733 2.03723 5.83333H1.9999C1.4199 5.83333 0.869901 6.08467 0.489235 6.52267C0.108568 6.96067 -0.0620989 7.54133 0.0199011 8.11667L0.727234 13.066C1.00723 15.024 2.7099 16.5 4.68723 16.5H11.3332C13.3106 16.5 15.0132 15.0233 15.2932 13.066L16.0006 8.11667C16.0826 7.542 15.9112 6.96133 15.5312 6.52267ZM7.9999 1.83333C10.3466 1.83333 12.2939 3.57533 12.6186 5.83333H3.38123C3.7059 3.57533 5.65323 1.83333 7.9999 1.83333ZM14.6806 7.928L13.9732 12.8773C13.7866 14.1827 12.6519 15.1673 11.3332 15.1673H4.68723C3.3679 15.1673 2.23323 14.1827 2.04723 12.8773L1.3399 7.928C1.3119 7.734 1.3679 7.54533 1.4959 7.39667C1.62457 7.248 1.80323 7.16667 1.99923 7.16667H14.0199C14.2159 7.16667 14.3946 7.248 14.5239 7.39667C14.6519 7.54533 14.7079 7.734 14.6799 7.928H14.6806ZM8.66657 9.16667V13.1667C8.66657 13.5353 8.36857 13.8333 7.9999 13.8333C7.63123 13.8333 7.33323 13.5353 7.33323 13.1667V9.16667C7.33323 8.798 7.63123 8.5 7.9999 8.5C8.36857 8.5 8.66657 8.798 8.66657 9.16667ZM11.9999 9.16667V13.1667C11.9999 13.5353 11.7019 13.8333 11.3332 13.8333C10.9646 13.8333 10.6666 13.5353 10.6666 13.1667V9.16667C10.6666 8.798 10.9646 8.5 11.3332 8.5C11.7019 8.5 11.9999 8.798 11.9999 9.16667ZM5.33323 9.16667V13.1667C5.33323 13.5353 5.03523 13.8333 4.66657 13.8333C4.2979 13.8333 3.9999 13.5353 3.9999 13.1667V9.16667C3.9999 8.798 4.2979 8.5 4.66657 8.5C5.03523 8.5 5.33323 8.798 5.33323 9.16667Z" fill="#FF654E"/>
</g>
<defs>
<clipPath id="clip0_470_603">
<rect width="16" height="16" fill="white" transform="translate(0 0.5)"/>
</clipPath>
</defs>
</svg>
