<svg width="16" height="17" viewBox="0 0 16 17" fill="none" xmlns="http://www.w3.org/2000/svg">
<g clip-path="url(#clip0_470_620)">
<path d="M14.6667 0.5H12C11.8232 0.5 11.6536 0.570238 11.5286 0.695262C11.4036 0.820286 11.3334 0.989856 11.3334 1.16667C11.3334 1.34348 11.4036 1.51305 11.5286 1.63807C11.6536 1.7631 11.8232 1.83333 12 1.83333H13.724L12.124 3.43333C11.3944 2.88232 10.5178 2.55983 9.60505 2.50655C8.69226 2.45328 7.78416 2.67161 6.99536 3.134C6.40084 2.79047 5.73774 2.58258 5.05351 2.52521C4.36928 2.46784 3.68082 2.56241 3.0374 2.80215C2.39398 3.04189 1.8115 3.42087 1.33163 3.91198C0.851766 4.4031 0.486375 4.9942 0.261603 5.643C0.0368316 6.2918 -0.0417647 6.98226 0.0314376 7.66498C0.10464 8.3477 0.327832 9.00581 0.685044 9.59221C1.04226 10.1786 1.52466 10.6788 2.09774 11.057C2.67081 11.4352 3.3204 11.6821 4.00002 11.78V13.1667H2.66669C2.48988 13.1667 2.32031 13.2369 2.19528 13.3619C2.07026 13.487 2.00002 13.6565 2.00002 13.8333C2.00002 14.0101 2.07026 14.1797 2.19528 14.3047C2.32031 14.4298 2.48988 14.5 2.66669 14.5H4.00002V15.8333C4.00002 16.0101 4.07026 16.1797 4.19528 16.3047C4.32031 16.4298 4.48988 16.5 4.66669 16.5C4.8435 16.5 5.01307 16.4298 5.13809 16.3047C5.26312 16.1797 5.33336 16.0101 5.33336 15.8333V14.5H6.66669C6.8435 14.5 7.01307 14.4298 7.13809 14.3047C7.26312 14.1797 7.33336 14.0101 7.33336 13.8333C7.33336 13.6565 7.26312 13.487 7.13809 13.3619C7.01307 13.2369 6.8435 13.1667 6.66669 13.1667H5.33336V11.7847C5.91939 11.6973 6.48318 11.4982 6.99402 11.198C7.92283 11.7413 9.01109 11.9461 10.0739 11.7778C11.1366 11.6095 12.1083 11.0784 12.8238 10.2748C13.5394 9.47116 13.9545 8.44455 13.9988 7.36945C14.0431 6.29435 13.7137 5.23708 13.0667 4.37733L14.6667 2.77733V4.5C14.6667 4.67681 14.7369 4.84638 14.862 4.9714C14.987 5.09643 15.1565 5.16667 15.3334 5.16667C15.5102 5.16667 15.6797 5.09643 15.8048 4.9714C15.9298 4.84638 16 4.67681 16 4.5V1.83333C16 1.47971 15.8595 1.14057 15.6095 0.890524C15.3595 0.640476 15.0203 0.5 14.6667 0.5V0.5ZM1.33336 7.16667C1.3302 6.62523 1.45975 6.09127 1.71067 5.61148C1.9616 5.1317 2.32626 4.7207 2.77276 4.41443C3.21926 4.10817 3.73401 3.91597 4.27197 3.85465C4.80992 3.79333 5.35472 3.86475 5.85869 4.06267C5.09132 4.91441 4.66665 6.02022 4.66665 7.16667C4.66665 8.31311 5.09132 9.41892 5.85869 10.2707C5.35472 10.4686 4.80992 10.54 4.27197 10.4787C3.73401 10.4174 3.21926 10.2252 2.77276 9.9189C2.32626 9.61264 1.9616 9.20164 1.71067 8.72185C1.45975 8.24206 1.3302 7.7081 1.33336 7.16667ZM9.33336 10.5C8.67409 10.5 8.02962 10.3045 7.48146 9.93823C6.93329 9.57196 6.50605 9.05136 6.25376 8.44228C6.00147 7.83319 5.93545 7.16297 6.06407 6.51637C6.19269 5.86976 6.51016 5.27582 6.97633 4.80964C7.44251 4.34347 8.03645 4.026 8.68306 3.89738C9.32966 3.76877 9.99988 3.83478 10.609 4.08707C11.2181 4.33936 11.7387 4.7666 12.1049 5.31477C12.4712 5.86293 12.6667 6.5074 12.6667 7.16667C12.6656 8.0504 12.3141 8.89763 11.6892 9.52252C11.0643 10.1474 10.2171 10.4989 9.33336 10.5Z" fill="#FF654E"/>
</g>
<defs>
<clipPath id="clip0_470_620">
<rect width="16" height="16" fill="white" transform="translate(0 0.5)"/>
</clipPath>
</defs>
</svg>
