<svg width="16" height="17" viewBox="0 0 16 17" fill="none" xmlns="http://www.w3.org/2000/svg">
<g clip-path="url(#clip0_470_622)">
<path d="M10.0301 0.499996C10.0121 0.49933 5.98808 0.49933 5.97008 0.499996C4.14608 0.515996 2.66675 2.00533 2.66675 3.83266V13.166C2.66675 15.004 4.16208 16.4993 6.00008 16.4993H10.0001C11.8381 16.4993 13.3334 15.004 13.3334 13.166V3.83333C13.3334 2.00533 11.8541 0.516663 10.0301 0.499996ZM12.0001 13.166C12.0001 14.2687 11.1027 15.166 10.0001 15.166H6.00008C4.89741 15.166 4.00008 14.2687 4.00008 13.166V3.83333C4.00008 2.86466 4.69208 2.05533 5.60741 1.872L6.07008 2.798C6.18275 3.024 6.41408 3.16666 6.66675 3.16666H9.33342C9.58608 3.16666 9.81675 3.024 9.93008 2.798L10.3927 1.872C11.3081 2.05466 12.0001 2.86466 12.0001 3.83333V13.1667V13.166ZM8.66675 13.8327H7.33342C6.96542 13.8327 6.66675 13.534 6.66675 13.166C6.66675 12.798 6.96542 12.4993 7.33342 12.4993H8.66675C9.03475 12.4993 9.33342 12.798 9.33342 13.166C9.33342 13.534 9.03475 13.8327 8.66675 13.8327Z" fill="#FF654E"/>
</g>
<defs>
<clipPath id="clip0_470_622">
<rect width="16" height="16" fill="white" transform="translate(0 0.5)"/>
</clipPath>
</defs>
</svg>
