<svg width="16" height="17" viewBox="0 0 16 17" fill="none" xmlns="http://www.w3.org/2000/svg">
<path d="M15.2947 5.058L13.8401 3.60267L14.4714 2.97134C14.5351 2.90984 14.5859 2.83628 14.6208 2.75494C14.6557 2.6736 14.6741 2.58612 14.6749 2.4976C14.6757 2.40908 14.6588 2.3213 14.6253 2.23937C14.5918 2.15744 14.5423 2.083 14.4797 2.02041C14.4171 1.95781 14.3426 1.90831 14.2607 1.87479C14.1788 1.84127 14.091 1.8244 14.0025 1.82517C13.9139 1.82594 13.8265 1.84433 13.7451 1.87927C13.6638 1.91421 13.5902 1.965 13.5287 2.02867L12.8974 2.66L11.4421 1.20534C10.9834 0.768218 10.374 0.524384 9.7404 0.524384C9.10677 0.524384 8.49744 0.768218 8.03874 1.20534C7.81511 1.42878 7.63771 1.6941 7.51667 1.98614C7.39563 2.27818 7.33333 2.59121 7.33333 2.90734C7.33333 3.22346 7.39563 3.53649 7.51667 3.82853C7.63771 4.12057 7.81511 4.38589 8.03874 4.60934L9.4934 6.064L5.56407 9.99334L4.10874 8.53867C3.65003 8.10155 3.0407 7.85772 2.40707 7.85772C1.77344 7.85772 1.16411 8.10155 0.705402 8.53867C0.481775 8.76211 0.304373 9.02744 0.183336 9.31948C0.0622988 9.61151 0 9.92454 0 10.2407C0 10.5568 0.0622988 10.8698 0.183336 11.1619C0.304373 11.4539 0.481775 11.7192 0.705402 11.9427L2.16007 13.3973L1.52874 14.0287C1.46506 14.0902 1.41427 14.1637 1.37933 14.2451C1.3444 14.3264 1.326 14.4139 1.32524 14.5024C1.32447 14.5909 1.34133 14.6787 1.37485 14.7606C1.40838 14.8426 1.45788 14.917 1.52047 14.9796C1.58307 15.0422 1.6575 15.0917 1.73943 15.1252C1.82136 15.1587 1.90915 15.1756 1.99767 15.1748C2.08619 15.1741 2.17367 15.1557 2.25501 15.1207C2.33634 15.0858 2.4099 15.035 2.4714 14.9713L3.10274 14.34L4.55807 15.7947C4.7815 16.0182 5.04678 16.1955 5.33876 16.3165C5.63074 16.4375 5.94369 16.4997 6.25974 16.4997C6.57578 16.4997 6.88874 16.4375 7.18071 16.3165C7.47269 16.1955 7.73797 16.0182 7.9614 15.7947C8.18501 15.5713 8.3624 15.306 8.48343 15.014C8.60445 14.722 8.66675 14.4091 8.66675 14.093C8.66675 13.7769 8.60445 13.464 8.48343 13.172C8.3624 12.88 8.18501 12.6147 7.9614 12.3913L6.50674 10.9367L10.4401 7.00667L11.8947 8.46134C12.1182 8.68486 12.3834 8.86218 12.6754 8.98316C12.9674 9.10414 13.2804 9.1664 13.5964 9.1664C13.9125 9.1664 14.2254 9.10414 14.5174 8.98316C14.8094 8.86218 15.0746 8.68486 15.2981 8.46134C15.5217 8.23795 15.6991 7.97268 15.8201 7.6807C15.9411 7.38872 16.0034 7.07574 16.0034 6.75967C16.0034 6.4436 15.9411 6.13062 15.8201 5.83864C15.6991 5.54666 15.5217 5.28139 15.2981 5.058H15.2947ZM7.3334 14.0933C7.33369 14.2343 7.30603 14.3739 7.25202 14.5042C7.19801 14.6344 7.11872 14.7526 7.01874 14.852C6.8144 15.0475 6.54252 15.1566 6.25974 15.1566C5.97695 15.1566 5.70508 15.0475 5.50074 14.852L1.64807 10.9993C1.44677 10.798 1.33368 10.525 1.33368 10.2403C1.33368 9.95566 1.44677 9.68264 1.64807 9.48134C1.84937 9.28004 2.12239 9.16695 2.40707 9.16695C2.69175 9.16695 2.96477 9.28004 3.16607 9.48134L7.01874 13.334C7.1188 13.4335 7.19813 13.5518 7.25215 13.6821C7.30616 13.8125 7.33378 13.9522 7.3334 14.0933ZM14.3521 7.51867C14.1477 7.71414 13.8758 7.82324 13.5931 7.82324C13.3103 7.82324 13.0384 7.71414 12.8341 7.51867L8.9814 3.666C8.88173 3.56633 8.80266 3.448 8.74872 3.31777C8.69478 3.18754 8.66702 3.04796 8.66702 2.907C8.66702 2.62232 8.7801 2.3493 8.9814 2.148C9.1827 1.9467 9.45572 1.83361 9.7404 1.83361C10.0251 1.83361 10.2981 1.9467 10.4994 2.148L14.3521 6.00067C14.4518 6.10029 14.531 6.21861 14.585 6.34884C14.639 6.47908 14.6668 6.61868 14.6668 6.75967C14.6668 6.90066 14.639 7.04026 14.585 7.17049C14.531 7.30073 14.4518 7.41904 14.3521 7.51867Z" fill="#FF654E"/>
</svg>
