<svg width="16" height="17" viewBox="0 0 16 17" fill="none" xmlns="http://www.w3.org/2000/svg">
<g clip-path="url(#clip0_470_599)">
<path d="M5.44263 5.83333C5.05646 5.82729 4.68437 5.68731 4.38997 5.43733C3.77587 4.87414 3.40384 4.09495 3.35197 3.26333C3.18997 1.60133 4.09663 0.620663 5.07597 0.511329C5.31193 0.485167 5.55075 0.506743 5.77821 0.574774C6.00567 0.642806 6.21711 0.755901 6.39997 0.907329C6.67275 1.15322 6.89423 1.45061 7.05166 1.78241C7.20909 2.1142 7.29937 2.47385 7.3173 2.84066C7.46663 4.39 6.75197 5.83333 5.44263 5.83333ZM5.22397 1.83333C4.8393 1.876 4.60997 2.422 4.6793 3.13066C4.69861 3.60675 4.89499 4.05847 5.22997 4.39733C5.29343 4.45967 5.37776 4.49625 5.46663 4.5C5.70063 4.474 6.0773 3.87266 5.98863 2.96666C5.76063 1.72266 5.24063 1.83333 5.22397 1.83666V1.83333ZM2.1093 9.83333C1.72313 9.82729 1.35104 9.68731 1.05663 9.43733C0.44254 8.87414 0.0705077 8.09495 0.0186326 7.26333C-0.143367 5.60133 0.763299 4.62066 1.74263 4.51133C1.97859 4.48547 2.21733 4.5072 2.44475 4.57521C2.67216 4.64323 2.88362 4.75616 3.06663 4.90733C3.33942 5.15322 3.56089 5.45061 3.71832 5.78241C3.87576 6.1142 3.96603 6.47385 3.98397 6.84066C4.1333 8.39 3.38463 9.83333 2.1093 9.83333ZM1.89063 5.83333C1.50597 5.876 1.27663 6.422 1.34597 7.13066C1.36528 7.60675 1.56166 8.05847 1.89663 8.39733C1.96072 8.45874 2.04468 8.49516 2.1333 8.5C2.3673 8.474 2.74397 7.87266 2.6553 6.96666C2.47863 5.748 1.9073 5.83333 1.89063 5.83666V5.83333ZM10.5573 5.83333C9.41863 5.84133 8.53463 4.38933 8.68597 2.83866C8.7039 2.47185 8.79418 2.1122 8.95161 1.78041C9.10904 1.44861 9.33051 1.15122 9.6033 0.905329C9.78598 0.754809 9.99695 0.642398 10.2238 0.574729C10.4506 0.50706 10.6887 0.485503 10.924 0.511329C11.9033 0.620663 12.81 1.60133 12.648 3.26333C12.5963 4.09519 12.2242 4.87465 11.61 5.438C11.3155 5.68774 10.9434 5.82747 10.5573 5.83333ZM10.0133 2.96666C9.92463 3.87 10.3013 4.47133 10.5353 4.5C10.6225 4.49656 10.7057 4.46231 10.77 4.40333C11.1049 4.06447 11.3013 3.61275 11.3206 3.13666C11.4606 1.38933 10.1333 1.50333 10.0133 2.96666ZM13.8906 9.83333C12.6493 9.83333 11.868 8.38933 12.0193 6.83866C12.0372 6.47185 12.1275 6.1122 12.2849 5.78041C12.4424 5.44861 12.6638 5.15122 12.9366 4.90533C13.119 4.75426 13.3299 4.64137 13.5568 4.57334C13.7837 4.50532 14.0219 4.48355 14.2573 4.50933C15.2366 4.61866 16.1433 5.59933 15.9813 7.26133C15.9296 8.09319 15.5575 8.87265 14.9433 9.436C14.6491 9.68646 14.277 9.82691 13.8906 9.83333ZM13.3466 6.96666C13.258 7.87 13.6346 8.47133 13.8686 8.5C13.9556 8.49541 14.0384 8.46131 14.1033 8.40333C14.4383 8.06447 14.6347 7.61275 14.654 7.13666C14.7206 6.428 14.494 5.882 14.1093 5.83933C14.0926 5.83333 13.41 5.774 13.3466 6.96666ZM10.6666 16.5C10.0968 16.5114 9.534 16.372 9.0353 16.096C8.7161 15.9278 8.36075 15.84 7.99997 15.84C7.63918 15.84 7.28383 15.9278 6.96463 16.096C4.95597 17.222 2.61463 15.9847 2.66663 13.1667C2.66663 10.0767 5.6713 7.16666 7.99997 7.16666C10.3286 7.16666 13.3333 10.076 13.3333 13.1667C13.3333 15.1293 12.2366 16.5 10.6666 16.5ZM7.99997 14.5C8.56973 14.4888 9.1324 14.6279 9.6313 14.9033C11.1226 15.7153 12.0233 14.6147 12 13.1667C12 10.9133 9.65263 8.5 7.99997 8.5C6.3473 8.5 3.99997 10.9133 3.99997 13.1667C3.97863 14.6127 4.87197 15.7153 6.36863 14.9033C6.86753 14.6279 7.4302 14.4888 7.99997 14.5Z" fill="#FF654E"/>
</g>
<defs>
<clipPath id="clip0_470_599">
<rect width="16" height="16" fill="white" transform="translate(0 0.5)"/>
</clipPath>
</defs>
</svg>
