<svg width="58" height="58" viewBox="0 0 58 58" fill="none" xmlns="http://www.w3.org/2000/svg">
<path d="M18.125 31.4167C15.9741 31.4167 13.8716 30.7789 12.0832 29.5839C10.2948 28.3889 8.90091 26.6905 8.07781 24.7034C7.25471 22.7162 7.03935 20.5296 7.45896 18.4201C7.87857 16.3105 8.91432 14.3728 10.4352 12.8519C11.9561 11.331 13.8939 10.2952 16.0034 9.87563C18.1129 9.45602 20.2995 9.67138 22.2867 10.4945C24.2738 11.3176 25.9723 12.7115 27.1672 14.4998C28.3622 16.2882 29 18.3908 29 20.5417C28.9968 23.4249 27.85 26.1892 25.8113 28.2279C23.7725 30.2667 21.0082 31.4135 18.125 31.4167V31.4167ZM33.8333 58H2.41667C1.77573 58 1.16104 57.7454 0.707825 57.2922C0.254612 56.839 0 56.2243 0 55.5833V54.375C0 49.568 1.90959 44.9578 5.30869 41.5587C8.70779 38.1596 13.318 36.25 18.125 36.25C22.932 36.25 27.5422 38.1596 30.9413 41.5587C34.3404 44.9578 36.25 49.568 36.25 54.375V55.5833C36.25 56.2243 35.9954 56.839 35.5422 57.2922C35.089 57.7454 34.4743 58 33.8333 58ZM42.2917 21.75C40.1408 21.75 38.0382 21.1122 36.2498 19.9172C34.4615 18.7223 33.0676 17.0238 32.2445 15.0367C31.4214 13.0495 31.206 10.8629 31.6256 8.7534C32.0452 6.64385 33.081 4.70611 34.6019 3.18522C36.1228 1.66432 38.0605 0.628579 40.1701 0.208965C42.2796 -0.210649 44.4662 0.00471199 46.4533 0.827815C48.4405 1.65092 50.1389 3.04479 51.3339 4.83318C52.5289 6.62156 53.1667 8.72413 53.1667 10.875C53.1635 13.7583 52.0167 16.5225 49.9779 18.5613C47.9392 20.6 45.1749 21.7468 42.2917 21.75V21.75ZM38.8576 26.6341C36.6068 26.9361 34.4426 27.6996 32.5006 28.8769C30.5585 30.0541 28.8806 31.6198 27.5718 33.4757C32.9872 35.935 37.2423 40.3927 39.4473 45.9167H55.5833C56.2243 45.9167 56.839 45.6621 57.2922 45.2088C57.7454 44.7556 58 44.1409 58 43.5V43.4082C57.9975 40.9992 57.4811 38.6186 56.4854 36.4251C55.4896 34.2316 54.0374 32.2758 52.2257 30.6882C50.4139 29.1006 48.2843 27.9177 45.9791 27.2186C43.6738 26.5195 41.246 26.3203 38.8576 26.6341V26.6341Z" fill="#FF654E"/>
</svg>
