<svg width="415" height="264" viewBox="0 0 415 264" fill="none" xmlns="http://www.w3.org/2000/svg">
<path d="M262.881 132.723C262.881 143.14 258.746 153.131 251.385 160.502C244.024 167.873 234.038 172.021 223.621 172.035H209.332V209.491H170.568V224.859C170.349 235.139 166.113 244.924 158.766 252.117C151.418 259.31 141.546 263.338 131.264 263.338C120.982 263.338 111.109 259.31 103.762 252.117C96.4145 244.924 92.1778 235.139 91.9597 224.859V209.491H55.7594V172.035H39.3128C28.8864 172.035 18.887 167.893 11.5144 160.521C4.14187 153.148 0 143.149 0 132.723C0 122.296 4.14187 112.297 11.5144 104.924C18.887 97.5517 28.8864 93.4098 39.3128 93.4098H55.7594V55.9539H93.2153V72.4713C93.1043 77.7029 94.0389 82.9041 95.9642 87.7698C97.8896 92.6355 100.767 97.0678 104.428 100.807C108.088 104.546 112.459 107.517 117.282 109.545C122.106 111.573 127.286 112.618 132.519 112.618C137.752 112.618 142.932 111.573 147.756 109.545C152.58 107.517 156.95 104.546 160.611 100.807C164.271 97.0678 167.149 92.6355 169.074 87.7698C171 82.9041 171.934 77.7029 171.823 72.4713V56.0247H209.279V93.4806H223.621C234.026 93.4946 244.001 97.6329 251.36 104.989C258.719 112.344 262.862 122.318 262.881 132.723V132.723Z" fill="#1B5F3D"/>
<g opacity="0.5">
<path d="M262.881 132.723C262.881 143.14 258.746 153.131 251.385 160.502C244.024 167.873 234.038 172.021 223.621 172.035H209.332V209.491H170.568V224.859C170.349 235.139 166.113 244.924 158.766 252.117C151.418 259.31 141.546 263.338 131.264 263.338C120.982 263.338 111.109 259.31 103.762 252.117C96.4145 244.924 92.1778 235.139 91.9597 224.859V209.491H55.7594V172.035H39.3128C28.8864 172.035 18.887 167.893 11.5144 160.521C4.14187 153.148 0 143.149 0 132.723C0 122.296 4.14187 112.297 11.5144 104.924C18.887 97.5517 28.8864 93.4098 39.3128 93.4098H55.7594V55.9539H93.2153V72.4713C93.1043 77.7029 94.0389 82.9041 95.9642 87.7698C97.8896 92.6355 100.767 97.0678 104.428 100.807C108.088 104.546 112.459 107.517 117.282 109.545C122.106 111.573 127.286 112.618 132.519 112.618C137.752 112.618 142.932 111.573 147.756 109.545C152.58 107.517 156.95 104.546 160.611 100.807C164.271 97.0678 167.149 92.6355 169.074 87.7698C171 82.9041 171.934 77.7029 171.823 72.4713V56.0247H209.279V93.4806H223.621C234.026 93.4946 244.001 97.6329 251.36 104.989C258.719 112.344 262.862 122.318 262.881 132.723V132.723Z" fill="#31A169"/>
</g>
<path d="M223.763 171.841H207.316V209.297H360.853V171.841H375.125C385.551 171.841 395.551 167.699 402.923 160.326C410.296 152.954 414.438 142.954 414.438 132.528C414.438 122.102 410.296 112.102 402.923 104.73C395.551 97.3571 385.551 93.2153 375.125 93.2153H360.853V55.7594H323.397V39.3128C323.397 28.8864 319.256 18.887 311.883 11.5144C304.51 4.14187 294.511 0 284.085 0C273.658 0 263.659 4.14187 256.286 11.5144C248.914 18.887 244.772 28.8864 244.772 39.3128V55.7594H207.316V93.2153H223.763C234.189 93.2153 244.188 97.3571 251.561 104.73C258.934 112.102 263.075 122.102 263.075 132.528C263.075 142.954 258.934 152.954 251.561 160.326C244.188 167.699 234.189 171.841 223.763 171.841Z" fill="#43CF89"/>
<g opacity="0.3">
<path d="M223.763 171.841H207.316V209.297H360.853V171.841H375.125C385.551 171.841 395.551 167.699 402.923 160.326C410.296 152.954 414.438 142.954 414.438 132.528C414.438 122.102 410.296 112.102 402.923 104.73C395.551 97.3571 385.551 93.2153 375.125 93.2153H360.853V55.7594H323.397V39.3128C323.397 28.8864 319.256 18.887 311.883 11.5144C304.51 4.14187 294.511 0 284.085 0C273.658 0 263.659 4.14187 256.286 11.5144C248.914 18.887 244.772 28.8864 244.772 39.3128V55.7594H207.316V93.2153H223.763C234.189 93.2153 244.188 97.3571 251.561 104.73C258.934 112.102 263.075 122.102 263.075 132.528C263.075 142.954 258.934 152.954 251.561 160.326C244.188 167.699 234.189 171.841 223.763 171.841Z" fill="white"/>
</g>
</svg>
