<svg width="58" height="58" viewBox="0 0 58 58" fill="none" xmlns="http://www.w3.org/2000/svg">
<g clipPath="url(#clip0_642_12)">
<path d="M44.9041 5.1717L29.7637 0.123283C29.2679 -0.0418266 28.732 -0.0418266 28.2363 0.123283L13.0959 5.1717C10.6887 5.97133 8.59465 7.50924 7.11137 9.56692C5.62809 11.6246 4.83099 14.0974 4.83332 16.6339V29C4.83332 47.2773 27.0667 57.3717 28.0188 57.7922C28.3277 57.9294 28.662 58.0003 29 58.0003C29.338 58.0003 29.6723 57.9294 29.9812 57.7922C30.9333 57.3717 53.1667 47.2773 53.1667 29V16.6339C53.169 14.0974 52.3719 11.6246 50.8886 9.56692C49.4053 7.50924 47.3113 5.97133 44.9041 5.1717V5.1717ZM40.4018 23.4828L30.0778 33.8068C29.6553 34.2321 29.1526 34.5692 28.5988 34.7986C28.0449 35.0281 27.451 35.1452 26.8516 35.1432H26.7718C26.1601 35.1338 25.5567 35.0005 24.998 34.7513C24.4393 34.5021 23.937 34.1421 23.5214 33.6932L17.9486 27.8932C17.7072 27.6693 17.5142 27.3984 17.3813 27.0972C17.2484 26.796 17.1784 26.4708 17.1757 26.1416C17.1729 25.8124 17.2375 25.4861 17.3654 25.1827C17.4933 24.8793 17.6819 24.6053 17.9195 24.3774C18.1571 24.1495 18.4388 23.9726 18.7472 23.8575C19.0557 23.7424 19.3844 23.6915 19.7132 23.708C20.042 23.7244 20.364 23.8079 20.6594 23.9533C20.9548 24.0987 21.2173 24.3029 21.431 24.5534L26.854 30.2084L36.975 20.0584C37.4308 19.6182 38.0412 19.3746 38.6749 19.3801C39.3085 19.3856 39.9146 19.6397 40.3627 20.0878C40.8108 20.5359 41.0649 21.142 41.0704 21.7756C41.076 22.4093 40.8324 23.0197 40.3922 23.4755L40.4018 23.4828Z" fill="#FF654E"/>
</g>
<defs>
<clipPath id="clip0_642_12">
<rect width="58" height="58" fill="white"/>
</clipPath>
</defs>
</svg>
