<svg width="58" height="58" viewBox="0 0 58 58" fill="none" xmlns="http://www.w3.org/2000/svg">
<g clipPath="url(#clip0_641_4)">
<path d="M55.5833 38.6667C55.2093 38.6666 54.8403 38.5798 54.5055 38.4129L49.6722 35.9963C49.0985 35.7098 48.6622 35.2071 48.4592 34.5989C48.2561 33.9907 48.303 33.3267 48.5895 32.7531C48.876 32.1794 49.3786 31.7431 49.9869 31.5401C50.5951 31.337 51.259 31.3839 51.8327 31.6704L56.666 34.0871C57.1538 34.3302 57.5452 34.7311 57.7764 35.2247C58.0077 35.7183 58.0653 36.2756 57.9399 36.806C57.8144 37.3365 57.5134 37.8089 57.0856 38.1467C56.6578 38.4845 56.1284 38.6677 55.5833 38.6667V38.6667ZM51.8303 16.675L56.6636 14.2583C57.2372 13.9718 57.6736 13.4692 57.8766 12.861C58.0796 12.2528 58.0328 11.5888 57.7463 11.0152C57.4598 10.4415 56.9571 10.0052 56.3489 9.80215C55.7407 9.59911 55.0767 9.646 54.5031 9.9325L49.6698 12.3492C49.0961 12.6357 48.6598 13.1383 48.4567 13.7465C48.2537 14.3547 48.3006 15.0187 48.5871 15.5923C48.8736 16.166 49.3762 16.6023 49.9844 16.8053C50.5927 17.0084 51.2566 16.9615 51.8303 16.675V16.675ZM58 24.1667C58 23.5257 57.7454 22.911 57.2922 22.4578C56.839 22.0046 56.2243 21.75 55.5833 21.75H50.75C50.1091 21.75 49.4944 22.0046 49.0412 22.4578C48.5879 22.911 48.3333 23.5257 48.3333 24.1667C48.3333 24.8076 48.5879 25.4223 49.0412 25.8755C49.4944 26.3287 50.1091 26.5833 50.75 26.5833H55.5833C56.2243 26.5833 56.839 26.3287 57.2922 25.8755C57.7454 25.4223 58 24.8076 58 24.1667ZM43.5 45.9167V2.41667C43.5 1.77573 43.2454 1.16104 42.7922 0.707825C42.339 0.254612 41.7243 0 41.0833 0C40.4424 0 39.8277 0.254612 39.3745 0.707825C38.9213 1.16104 38.6667 1.77573 38.6667 2.41667C38.6667 9.54342 32.4244 12.0833 26.5833 12.0833H9.66667C7.10291 12.0833 4.64415 13.1018 2.8313 14.9146C1.01845 16.7275 0 19.1862 0 21.75L0 26.5833C0 29.1471 1.01845 31.6058 2.8313 33.4187C4.64415 35.2316 7.10291 36.25 9.66667 36.25H26.5833C32.4244 36.25 38.6667 38.7899 38.6667 45.9167C38.6667 46.5576 38.9213 47.1723 39.3745 47.6255C39.8277 48.0787 40.4424 48.3333 41.0833 48.3333C41.7243 48.3333 42.339 48.0787 42.7922 47.6255C43.2454 47.1723 43.5 46.5576 43.5 45.9167ZM19.7828 41.0833H9.66667C8.5415 41.0788 7.42068 40.9434 6.32683 40.6798L12.3685 54.1696C12.8759 55.3097 13.7029 56.2784 14.7495 56.9582C15.796 57.638 17.0172 57.9999 18.2652 58C19.2581 57.9987 20.2348 57.7489 21.1065 57.2734C21.9781 56.7979 22.7169 56.1119 23.2555 55.2778C23.7941 54.4437 24.1154 53.488 24.1902 52.498C24.2649 51.5079 24.0907 50.5148 23.6833 49.6093L19.7828 41.0833Z" fill="#FF654E"/>
</g>
<defs>
<clipPath id="clip0_641_4">
<rect width="58" height="58" fill="white"/>
</clipPath>
</defs>
</svg>
