<svg width="32" height="32" viewBox="0 0 32 32" fill="none" xmlns="http://www.w3.org/2000/svg">
<g clip-path="url(#clip0_470_624)">
<path d="M25.3333 29.3333H6.66667C2.99067 29.3333 0 26.3427 0 22.6667V9.33333C0 5.65733 2.99067 2.66666 6.66667 2.66666H25.3333C29.0093 2.66666 32 5.65733 32 9.33333V22.6667C32 26.3427 29.0093 29.3333 25.3333 29.3333ZM6.66667 5.33333C4.46133 5.33333 2.66667 7.128 2.66667 9.33333V22.6667C2.66667 24.872 4.46133 26.6667 6.66667 26.6667H25.3333C27.5387 26.6667 29.3333 24.872 29.3333 22.6667V9.33333C29.3333 7.128 27.5387 5.33333 25.3333 5.33333H6.66667ZM24 17.3333H18.6667C17.196 17.3333 16 16.1373 16 14.6667V12C16 10.5293 17.196 9.33333 18.6667 9.33333H24C25.4707 9.33333 26.6667 10.5293 26.6667 12V14.6667C26.6667 16.1373 25.4707 17.3333 24 17.3333ZM18.6667 12V14.6667H24.0013V12H18.6667ZM13.3333 16C13.3333 15.264 12.736 14.6667 12 14.6667H6.66667C5.93067 14.6667 5.33333 15.264 5.33333 16C5.33333 16.736 5.93067 17.3333 6.66667 17.3333H12C12.736 17.3333 13.3333 16.736 13.3333 16ZM26.6667 21.3333C26.6667 20.5973 26.0693 20 25.3333 20H6.66667C5.93067 20 5.33333 20.5973 5.33333 21.3333C5.33333 22.0693 5.93067 22.6667 6.66667 22.6667H25.3333C26.0693 22.6667 26.6667 22.0693 26.6667 21.3333Z" fill="#FF654E"/>
</g>
<defs>
<clipPath id="clip0_470_624">
<rect width="32" height="32" fill="white"/>
</clipPath>
</defs>
</svg>
