<svg width="32" height="32" viewBox="0 0 32 32" fill="none" xmlns="http://www.w3.org/2000/svg">
<g clip-path="url(#clip0_470_597)">
<path d="M30.7293 22.9293L24.972 28.176C22.264 30.6427 18.756 32 15.0947 32H1.33333C0.596 32 0 31.404 0 30.6667C0 29.9293 0.596 29.3333 1.33333 29.3333H15.0933C18.0893 29.3333 20.9587 28.2227 23.1747 26.204L28.8867 21.0013C29.3493 20.5373 29.46 19.7427 29.0947 19.236C28.8547 18.904 28.5053 18.704 28.108 18.6707C27.72 18.6453 27.3347 18.78 27.0573 19.0573L21.412 24.2387C20.6947 24.916 19.7293 25.3333 18.6667 25.3333H12C11.2627 25.3333 10.6667 24.7373 10.6667 24C10.6667 23.2627 11.2627 22.6667 12 22.6667H18.6667C19.0027 22.6667 20 22.5133 20 21.3333C20 20.5973 19.4027 20 18.6667 20H12.1173C8.91333 20 5.89867 21.2493 3.632 23.5147L2.30133 24.9187C2.03867 25.1947 1.68667 25.3347 1.33333 25.3347C1.004 25.3347 0.673333 25.2133 0.416 24.9693C-0.117333 24.4613 -0.14 23.6173 0.366667 23.084L1.72267 21.656C4.51867 18.8613 8.20133 17.336 12.1187 17.336H18.668C20.316 17.336 21.7347 18.3387 22.3467 19.7653L25.2147 17.1333C26.0027 16.3427 27.156 15.9133 28.3227 16.0147C29.496 16.108 30.5667 16.7147 31.26 17.6787C32.3853 19.244 32.1573 21.5 30.7307 22.9307L30.7293 22.9293ZM5.34133 2.88266C5.28533 2.108 5.57067 1.34533 6.12533 0.791996C6.67867 0.237329 7.44133 -0.0533375 8.21733 0.00799585C12.0533 0.278663 14.5973 1.60133 16 4.15733C17.404 1.60133 19.9467 0.278663 23.784 0.00799585C24.572 -0.0560042 25.3227 0.237329 25.8747 0.791996C26.4293 1.34533 26.7147 2.108 26.6587 2.884C26.244 8.768 23.352 11.6107 17.3333 11.9613V13.332C17.3333 14.0693 16.7373 14.6653 16 14.6653C15.2627 14.6653 14.6667 14.0693 14.6667 13.332V11.9613C8.648 11.6093 5.756 8.768 5.34133 2.88266V2.88266ZM17.376 9.29066C21.8573 8.992 23.688 7.108 24 2.696C19.5613 2.98133 17.6747 4.80933 17.376 9.29066ZM8.028 2.66666C8.31333 7.10533 10.1413 8.992 14.6227 9.29066C14.324 4.80933 12.44 2.97866 8.028 2.66666V2.66666Z" fill="#FF654E"/>
</g>
<defs>
<clipPath id="clip0_470_597">
<rect width="32" height="32" fill="white"/>
</clipPath>
</defs>
</svg>
