<svg width="32" height="32" viewBox="0 0 32 32" fill="none" xmlns="http://www.w3.org/2000/svg">
<g clip-path="url(#clip0_470_615)">
<path d="M29.6 2.88399C28.8504 2.25723 27.9721 1.80318 27.0273 1.55408C26.0825 1.30498 25.0945 1.26694 24.1333 1.44266L19.0373 2.36799C17.8608 2.58405 16.7911 3.18936 16 4.08666C15.2069 3.18781 14.1341 2.58236 12.9547 2.36799L7.86667 1.44266C6.90554 1.26679 5.91751 1.30433 4.9725 1.55263C4.0275 1.80093 3.14862 2.25392 2.39809 2.87953C1.64756 3.50514 1.04371 4.28809 0.62931 5.17294C0.214904 6.05779 6.50833e-05 7.02291 0 7.99999L0 22.3907C7.66078e-05 23.9517 0.547969 25.4633 1.54818 26.6618C2.54839 27.8604 3.93748 28.6699 5.47333 28.9493L13.8547 30.4733C15.2733 30.7311 16.7267 30.7311 18.1453 30.4733L26.5333 28.9493C28.068 28.6685 29.4555 27.8584 30.4544 26.66C31.4533 25.4615 32.0002 23.9508 32 22.3907V7.99999C32.0006 7.02325 31.7859 6.05839 31.371 5.17412C30.9562 4.28984 30.3515 3.50791 29.6 2.88399V2.88399ZM14.6667 27.904C14.5547 27.888 14.4427 27.8693 14.3307 27.8493L5.95067 26.3267C5.02902 26.159 4.19546 25.6731 3.59532 24.9538C2.99518 24.2346 2.66653 23.3274 2.66667 22.3907V7.99999C2.66667 6.93913 3.08809 5.92171 3.83824 5.17157C4.58839 4.42142 5.6058 3.99999 6.66667 3.99999C6.90812 4.00057 7.14905 4.02243 7.38667 4.06533L12.48 4.99866C13.0928 5.1108 13.647 5.43396 14.0465 5.91205C14.4459 6.39015 14.6653 6.993 14.6667 7.61599V27.904ZM29.3333 22.3907C29.3335 23.3274 29.0048 24.2346 28.4047 24.9538C27.8045 25.6731 26.971 26.159 26.0493 26.3267L17.6693 27.8493C17.5573 27.8693 17.4453 27.888 17.3333 27.904V7.61599C17.3332 6.99148 17.5523 6.38673 17.9524 5.9072C18.3525 5.42768 18.9082 5.10378 19.5227 4.99199L24.6173 4.05866C25.1943 3.95369 25.7873 3.97686 26.3543 4.12654C26.9213 4.27622 27.4484 4.54874 27.8984 4.9248C28.3484 5.30086 28.7102 5.77127 28.9582 6.30269C29.2061 6.83412 29.3342 7.41356 29.3333 7.99999V22.3907Z" fill="#FF654E"/>
</g>
<defs>
<clipPath id="clip0_470_615">
<rect width="32" height="32" fill="white"/>
</clipPath>
</defs>
</svg>
