<svg width="32" height="32" viewBox="0 0 32 32" fill="none" xmlns="http://www.w3.org/2000/svg">
<g clip-path="url(#clip0_470_578)">
<path d="M12 4.63207e-06C12.3522 -0.00744779 12.7023 0.0564351 13.0292 0.187809C13.3561 0.319184 13.6531 0.515334 13.9022 0.764457C14.1513 1.01358 14.3475 1.31053 14.4789 1.63743C14.6102 1.96433 14.6741 2.31444 14.6667 2.66667L14.6667 12L24.7093 12L26.3613 10.016C27.36 8.612 31.6107 6.57734 32 9.33334C32 9.68696 31.8595 10.0261 31.6095 10.2761C31.3594 10.5262 31.0203 10.6667 30.6667 10.6667C30.2362 10.6664 29.8109 10.7608 29.421 10.9433C29.0311 11.1258 28.6862 11.3919 28.4107 11.7227L26.6667 13.816V14.6667C26.6645 16.4341 25.9615 18.1286 24.7117 19.3784C23.4619 20.6282 21.7675 21.3312 20 21.3333H16.18L19.6467 25.4933C20.3757 25.2588 21.1632 25.2825 21.8768 25.5603C22.5904 25.8381 23.1866 26.3532 23.5651 27.0189C23.9437 27.6846 24.0814 28.4603 23.9553 29.2157C23.8291 29.971 23.4467 30.6599 22.8724 31.1664C22.2981 31.673 21.5668 31.9663 20.8017 31.9971C20.0365 32.028 19.284 31.7944 18.6708 31.3357C18.0576 30.877 17.621 30.2211 17.4345 29.4784C17.248 28.7356 17.3229 27.9513 17.6467 27.2573L13.3333 22.0827L9.02133 27.2573C9.34508 27.9513 9.41999 28.7356 9.23347 29.4784C9.04695 30.2211 8.61039 30.877 7.99717 31.3357C7.38396 31.7944 6.6315 32.028 5.86633 31.9971C5.10115 31.9663 4.36993 31.673 3.79561 31.1664C3.22128 30.6599 2.83889 29.971 2.71273 29.2157C2.58657 28.4603 2.72433 27.6846 3.10285 27.0189C3.48137 26.3532 4.07757 25.8381 4.79119 25.5603C5.50481 25.2825 6.29233 25.2588 7.02133 25.4933L10.4867 21.3333L6.66667 21.3333C4.89921 21.3312 3.20474 20.6282 1.95496 19.3784C0.705174 18.1286 0.00211619 16.4341 -9.53674e-07 14.6667L-9.53674e-07 13.3333C-9.53674e-07 0.152006 11.88 4.63207e-06 12 4.63207e-06ZM2.71867 12L12 12L12 2.66667C9.54263 2.70884 7.1985 3.70732 5.46549 5.45005C3.73247 7.19277 2.7471 9.54244 2.71867 12V12ZM6.66667 18.6667L20 18.6667C21.0609 18.6667 22.0783 18.2452 22.8284 17.4951C23.5786 16.745 24 15.7275 24 14.6667L2.66667 14.6667C2.66667 15.7275 3.08809 16.745 3.83824 17.4951C4.58838 18.2452 5.6058 18.6667 6.66667 18.6667V18.6667Z" fill="#FF654E"/>
</g>
<defs>
<clipPath id="clip0_470_578">
<rect width="32" height="32" fill="white"/>
</clipPath>
</defs>
</svg>
