<svg width="32" height="32" viewBox="0 0 32 32" fill="none" xmlns="http://www.w3.org/2000/svg">
<g clip-path="url(#clip0_470_584)">
<path d="M25.3333 0H6.66667C4.89921 0.00211714 3.20474 0.705176 1.95496 1.95496C0.705176 3.20474 0.00211714 4.89921 0 6.66667L0 25.3333C0.00211714 27.1008 0.705176 28.7953 1.95496 30.045C3.20474 31.2948 4.89921 31.9979 6.66667 32H25.3333C27.1008 31.9979 28.7953 31.2948 30.045 30.045C31.2948 28.7953 31.9979 27.1008 32 25.3333V6.66667C31.9979 4.89921 31.2948 3.20474 30.045 1.95496C28.7953 0.705176 27.1008 0.00211714 25.3333 0V0ZM26.6667 14.6667H29.3333V17.3333H26.6667V14.6667ZM26.6667 12V9.33333H29.3333V12H26.6667ZM24 14.6667H8V2.66667H24V14.6667ZM5.33333 17.3333H2.66667V14.6667H5.33333V17.3333ZM5.33333 12H2.66667V9.33333H5.33333V12ZM2.66667 20H5.33333V22.6667H2.66667V20ZM8 17.3333H24V29.3333H8V17.3333ZM26.6667 20H29.3333V22.6667H26.6667V20ZM29.3333 6.66667H26.6667V2.912C27.4439 3.18678 28.1172 3.69498 28.5945 4.36707C29.0719 5.03916 29.3299 5.84232 29.3333 6.66667ZM5.33333 2.912V6.66667H2.66667C2.67008 5.84232 2.92811 5.03916 3.40545 4.36707C3.88279 3.69498 4.55612 3.18678 5.33333 2.912ZM2.66667 25.3333H5.33333V29.088C4.55612 28.8132 3.88279 28.305 3.40545 27.6329C2.92811 26.9608 2.67008 26.1577 2.66667 25.3333ZM26.6667 29.088V25.3333H29.3333C29.3299 26.1577 29.0719 26.9608 28.5945 27.6329C28.1172 28.305 27.4439 28.8132 26.6667 29.088V29.088Z" fill="#FF654E"/>
</g>
<defs>
<clipPath id="clip0_470_584">
<rect width="32" height="32" fill="white"/>
</clipPath>
</defs>
</svg>
