<svg width="32" height="32" viewBox="0 0 32 32" fill="none" xmlns="http://www.w3.org/2000/svg">
<g clip-path="url(#clip0_470_626)">
<path d="M21.724 12.3413C21.2027 12.8627 21.2027 13.7067 21.724 14.2267C22.2453 14.748 23.0893 14.748 23.6093 14.2267C24.1307 13.7053 24.1307 12.8613 23.6093 12.3413C23.088 11.82 22.244 11.82 21.724 12.3413ZM3.25465 20.4547L4.00798 21.208C4.04398 22.852 4.68132 24.484 5.92132 25.74L10.144 30.0173C11.4013 31.2907 13.0787 31.9947 14.868 32H14.8907C16.6707 32 18.344 31.3067 19.6027 30.048L29.4907 20.244C30.3573 19.3787 30.776 18.188 30.6427 16.9733L29.6227 7.752C29.5547 7.144 29.084 6.66 28.4787 6.57733L19.2933 5.32133C18.0507 5.156 16.8 5.57867 15.9227 6.456L5.95598 16.3387C5.43998 16.8547 5.02665 17.436 4.71465 18.056C3.63198 16.5013 3.78398 14.3293 5.17065 12.9427L15.292 3.06933C15.5973 2.764 16.0187 2.62267 16.4267 2.68L25.612 3.936C26.344 4.03467 27.0147 3.524 27.1147 2.796C27.2133 2.06667 26.7027 1.39467 25.9747 1.29467L16.788 0.0373332C15.56 -0.137334 14.296 0.292 13.4173 1.17333L3.29865 11.0467C0.703985 13.64 0.689316 17.856 3.25598 20.456L3.25465 20.4547ZM7.83865 18.228L17.8053 8.34533C18.1027 8.048 18.52 7.91067 18.9347 7.96267L27.088 9.07867L27.9933 17.2653C28.0373 17.6693 27.8987 18.0667 27.6107 18.3533L17.7227 28.1573C16.964 28.9173 15.96 29.332 14.892 29.332H14.8787C13.804 29.3293 12.7973 28.9067 12.044 28.1413L7.82132 23.864C6.28132 22.304 6.28932 19.7747 7.83998 18.2253L7.83865 18.228Z" fill="#FF654E"/>
</g>
<defs>
<clipPath id="clip0_470_626">
<rect width="32" height="32" fill="white" transform="matrix(-1 0 0 1 32 0)"/>
</clipPath>
</defs>
</svg>
