<svg width="32" height="32" viewBox="0 0 32 32" fill="none" xmlns="http://www.w3.org/2000/svg">
<path d="M29.6099 6.70536C28.4149 4.71368 26.2904 3.38586 23.9004 3.38586H7.96681C5.57675 3.38586 3.45231 4.71368 2.25725 6.70536C0.796688 9.36099 0 12.2822 0 15.3361C0 22.639 2.92119 28.6141 6.639 28.6141C8.63069 28.6141 10.2241 26.7552 11.4191 22.9046C11.5518 22.3734 12.0829 21.9751 12.7469 21.9751H19.2531C19.7842 21.9751 20.3154 22.3734 20.5809 22.9046C21.7759 26.7552 23.3693 28.6141 25.361 28.6141C29.0788 28.6141 32 22.639 32 15.3361C31.8672 12.2822 31.0706 9.36099 29.6099 6.70536ZM25.2282 25.9585C24.8299 25.9585 23.9004 24.8962 22.9709 22.1079C22.4398 20.3817 20.8464 19.3195 19.1203 19.3195H12.7469C11.0207 19.3195 9.42737 20.5145 8.89625 22.1079C7.96681 24.8962 7.03731 25.9585 6.639 25.9585C5.31119 25.9585 2.65563 21.8423 2.65563 15.3361C2.65563 12.8133 3.3195 10.2905 4.51456 8.03324C5.31125 6.83824 6.63906 6.04155 7.96688 6.04155H23.9005C25.2283 6.04155 26.5561 6.83824 27.3528 8.03324C28.5478 10.2905 29.2118 12.8133 29.2118 15.3361C29.2116 21.8423 26.556 25.9585 25.2282 25.9585Z" fill="#FF654E"/>
<path d="M12.0001 12H10.6667V10.6667C10.6667 9.86669 10.1334 9.33337 9.33343 9.33337C8.53343 9.33337 8.00012 9.86669 8.00012 10.6667V12H6.66681C5.86681 12 5.3335 12.5333 5.3335 13.3333C5.3335 14.1333 5.86681 14.6666 6.66681 14.6666H8.00006V16C8.00006 16.8 8.53337 17.3333 9.33337 17.3333C10.1334 17.3333 10.6667 16.8 10.6667 16V14.6667H12.0001C12.8001 14.6667 13.3334 14.1334 13.3334 13.3334C13.3334 12.5333 12.8001 12 12.0001 12Z" fill="#FF654E"/>
<path d="M24.6667 13.3333C25.7713 13.3333 26.6667 12.4379 26.6667 11.3333C26.6667 10.2287 25.7713 9.33331 24.6667 9.33331C23.5622 9.33331 22.6667 10.2287 22.6667 11.3333C22.6667 12.4379 23.5622 13.3333 24.6667 13.3333Z" fill="#FF654E"/>
<path d="M20.6667 17.3333C21.7713 17.3333 22.6667 16.4379 22.6667 15.3333C22.6667 14.2287 21.7713 13.3333 20.6667 13.3333C19.5622 13.3333 18.6667 14.2287 18.6667 15.3333C18.6667 16.4379 19.5622 17.3333 20.6667 17.3333Z" fill="#FF654E"/>
</svg>
