<svg width="32" height="32" viewBox="0 0 32 32" fill="none" xmlns="http://www.w3.org/2000/svg">
<g clip-path="url(#clip0_900_6)">
<path d="M16 2.6665C7.028 2.6665 0 6.47317 0 11.3332V20.6665C0 25.5265 7.028 29.3332 16 29.3332C24.972 29.3332 32 25.5265 32 20.6665V11.3332C32 6.47317 24.972 2.6665 16 2.6665ZM2.66667 20.6665V16.1865C3.07067 16.5158 3.51733 16.8292 4 17.1238V23.1585C3.13733 22.3585 2.66667 21.4998 2.66667 20.6678V20.6665ZM9.33333 25.8212C8.35067 25.5518 7.45733 25.2265 6.66667 24.8625V18.4158C7.49733 18.7345 8.38933 19.0105 9.33333 19.2385V25.8198V25.8212ZM14.6667 26.6358C13.7373 26.5932 12.8467 26.5052 12 26.3785V19.7372C12.8613 19.8532 13.752 19.9318 14.6667 19.9705V26.6345V26.6358ZM20 26.3785C19.1533 26.5052 18.2627 26.5918 17.3333 26.6358V19.9718C18.248 19.9332 19.1387 19.8545 20 19.7385V26.3798V26.3785ZM25.3333 24.8638C24.5427 25.2278 23.6493 25.5518 22.6667 25.8225V19.2412C23.6107 19.0132 24.5027 18.7372 25.3333 18.4185V24.8652V24.8638ZM29.3333 20.6678C29.3333 21.4998 28.8627 22.3585 28 23.1585V17.1238C28.4827 16.8292 28.9293 16.5172 29.3333 16.1865V20.6665V20.6678ZM16 17.3345C8.14267 17.3345 2.66667 14.1718 2.66667 11.3345C2.66667 8.49717 8.14267 5.33317 16 5.33317C23.8573 5.33317 29.3333 8.49584 29.3333 11.3332C29.3333 14.1705 23.8573 17.3332 16 17.3332V17.3345Z" fill="#FF654E"/>
</g>
<defs>
<clipPath id="clip0_900_6">
<rect width="32" height="32" fill="white"/>
</clipPath>
</defs>
</svg>
