<svg width="32" height="32" viewBox="0 0 32 32" fill="none" xmlns="http://www.w3.org/2000/svg">
<g clip-path="url(#clip0_470_593)">
<path d="M29.4093 6.97331L19.5773 2.28931C17.413 0.996558 14.7193 0.97362 12.5333 2.22931L2.59067 6.97331C2.55336 6.992 2.51467 7.012 2.47867 7.03331C0.119168 8.38243 -0.699957 11.3889 0.649168 13.7484C1.10648 14.5482 1.77917 15.2036 2.59067 15.64L5.33336 16.9467V23.48C5.33498 26.4014 7.23592 28.9824 10.0254 29.8507C11.9665 30.4122 13.9794 30.6872 16 30.6667C18.0204 30.6893 20.0332 30.4167 21.9747 29.8574C24.7642 28.9892 26.6651 26.4081 26.6667 23.4867V16.944L29.3334 15.6693V26.6666C29.3334 27.403 29.9304 27.9999 30.6667 27.9999C31.4031 27.9999 32 27.403 32 26.6666V10.6666C32.0089 9.10093 30.7727 7.65456 29.4093 6.97331ZM24 23.4867C24.0007 25.2341 22.8669 26.7798 21.2 27.304C19.5096 27.787 17.7579 28.0214 16 28C14.242 28.0214 12.4904 27.787 10.8 27.304C9.13304 26.7797 7.99929 25.2341 7.99998 23.4867V18.2174L12.4227 20.3241C13.5139 20.9721 14.7602 21.3126 16.0294 21.3094C17.2374 21.3179 18.425 20.9981 19.4654 20.3841L24 18.2173V23.4867ZM28.2667 13.2333L18.2107 18.0333C16.8085 18.8497 15.0706 18.8266 13.6907 17.9733L3.85198 13.2933C2.75529 12.7019 2.34567 11.3335 2.93704 10.2369C3.13704 9.86599 3.43692 9.55856 3.80267 9.34931L13.796 4.576C15.1985 3.76137 16.9355 3.78443 18.316 4.636L28.148 9.31999C28.871 9.72149 29.3234 10.4797 29.3333 11.3067C29.3346 12.0901 28.9312 12.8186 28.2667 13.2333Z" fill="#FF654E"/>
</g>
<defs>
<clipPath id="clip0_470_593">
<rect width="32" height="32" fill="white"/>
</clipPath>
</defs>
</svg>
