<svg width="32" height="32" viewBox="0 0 32 32" fill="none" xmlns="http://www.w3.org/2000/svg">
<g clip-path="url(#clip0_470_580)">
<path d="M6.66667 17.3333C5.34813 17.3333 4.0592 17.7243 2.96287 18.4569C1.86654 19.1894 1.01206 20.2306 0.507473 21.4488C0.00288856 22.667 -0.129134 24.0074 0.128101 25.3006C0.385336 26.5938 1.02027 27.7817 1.95262 28.714C2.88497 29.6464 4.07286 30.2813 5.36607 30.5386C6.65927 30.7958 7.99972 30.6638 9.21789 30.1592C10.4361 29.6546 11.4773 28.8001 12.2098 27.7038C12.9423 26.6075 13.3333 25.3185 13.3333 24C13.3312 22.2325 12.6282 20.5381 11.3784 19.2883C10.1286 18.0385 8.43413 17.3355 6.66667 17.3333V17.3333ZM6.66667 28C5.87554 28 5.10219 27.7654 4.44439 27.3259C3.78659 26.8864 3.2739 26.2616 2.97115 25.5307C2.6684 24.7998 2.58919 23.9956 2.74353 23.2196C2.89787 22.4437 3.27883 21.731 3.83824 21.1716C4.39765 20.6122 5.11038 20.2312 5.88631 20.0769C6.66223 19.9225 7.4665 20.0017 8.1974 20.3045C8.92831 20.6072 9.55302 21.1199 9.99255 21.7777C10.4321 22.4355 10.6667 23.2089 10.6667 24C10.6667 25.0609 10.2452 26.0783 9.4951 26.8284C8.74495 27.5786 7.72754 28 6.66667 28ZM25.3333 17.3333C24.0148 17.3333 22.7259 17.7243 21.6295 18.4569C20.5332 19.1894 19.6787 20.2306 19.1741 21.4488C18.6696 22.667 18.5375 24.0074 18.7948 25.3006C19.052 26.5938 19.6869 27.7817 20.6193 28.714C21.5516 29.6464 22.7395 30.2813 24.0327 30.5386C25.3259 30.7958 26.6664 30.6638 27.8846 30.1592C29.1027 29.6546 30.1439 28.8001 30.8765 27.7038C31.609 26.6075 32 25.3185 32 24C31.9979 22.2325 31.2948 20.5381 30.045 19.2883C28.7953 18.0385 27.1008 17.3355 25.3333 17.3333V17.3333ZM25.3333 28C24.5422 28 23.7689 27.7654 23.1111 27.3259C22.4533 26.8864 21.9406 26.2616 21.6378 25.5307C21.3351 24.7998 21.2559 23.9956 21.4102 23.2196C21.5645 22.4437 21.9455 21.731 22.5049 21.1716C23.0643 20.6122 23.7771 20.2312 24.553 20.0769C25.3289 19.9225 26.1332 20.0017 26.8641 20.3045C27.595 20.6072 28.2197 21.1199 28.6592 21.7777C29.0987 22.4355 29.3333 23.2089 29.3333 24C29.3333 25.0609 28.9119 26.0783 28.1618 26.8284C27.4116 27.5786 26.3942 28 25.3333 28ZM13.8187 15.036C13.6795 14.9174 13.5666 14.7711 13.4871 14.6064C13.4076 14.4418 13.3632 14.2624 13.3568 14.0796C13.3504 13.8969 13.3821 13.7148 13.4499 13.545C13.5178 13.3752 13.6202 13.2214 13.7507 13.0933C13.976 12.88 17.288 9.84 17.288 9.84L21.724 14.276C21.9755 14.5189 22.3123 14.6533 22.6619 14.6502C23.0115 14.6472 23.3459 14.507 23.5931 14.2598C23.8403 14.0125 23.9805 13.6781 23.9836 13.3285C23.9866 12.9789 23.8522 12.6421 23.6093 12.3907L18.276 7.05734C18.2251 7.00516 18.1697 6.95743 18.1107 6.91467C16.6826 5.90369 14.9803 5.35207 13.2307 5.33333C11.3613 5.33333 6.66667 6.92 6.66667 10.6667C6.66667 11.7275 7.0881 12.745 7.83824 13.4951C8.58839 14.2452 9.6058 14.6667 10.6667 14.6667C10.6987 14.6667 10.728 14.66 10.7587 14.6587C10.9025 15.59 11.3715 16.4403 12.0827 17.0587L14.6667 19.2787V24C14.6667 24.3536 14.8071 24.6928 15.0572 24.9428C15.3072 25.1929 15.6464 25.3333 16 25.3333C16.3536 25.3333 16.6928 25.1929 16.9428 24.9428C17.1929 24.6928 17.3333 24.3536 17.3333 24V18.6667C17.3333 18.4744 17.2917 18.2844 17.2114 18.1097C17.1311 17.9351 17.0139 17.7798 16.868 17.6547L13.8187 15.036ZM9.33334 10.6667C9.33334 9.048 12.2293 8 13.2307 8C13.8383 8.00323 14.4413 8.10545 15.016 8.30267C15.016 8.30267 11.928 11.148 11.892 11.1827C11.384 11.6653 10.9667 12 10.6667 12C10.313 12 9.97391 11.8595 9.72386 11.6095C9.47381 11.3594 9.33334 11.0203 9.33334 10.6667V10.6667ZM18.6667 3.33334C18.6667 2.67406 18.8622 2.0296 19.2284 1.48143C19.5947 0.93327 20.1153 0.506029 20.7244 0.253736C21.3335 0.00144428 22.0037 -0.0645668 22.6503 0.0640506C23.2969 0.192668 23.8909 0.510137 24.357 0.976312C24.8232 1.44249 25.1407 2.03643 25.2693 2.68303C25.3979 3.32964 25.3319 3.99986 25.0796 4.60895C24.8273 5.21803 24.4001 5.73863 23.8519 6.1049C23.3037 6.47117 22.6593 6.66667 22 6.66667C21.1159 6.66667 20.2681 6.31548 19.643 5.69036C19.0179 5.06524 18.6667 4.21739 18.6667 3.33334Z" fill="#FF654E"/>
</g>
<defs>
<clipPath id="clip0_470_580">
<rect width="32" height="32" fill="white"/>
</clipPath>
</defs>
</svg>
