<svg width="32" height="32" viewBox="0 0 32 32" fill="none" xmlns="http://www.w3.org/2000/svg">
<g clip-path="url(#clip0_470_617)">
<path d="M30.9334 1.06668C30.4389 0.568032 29.8102 0.223897 29.1237 0.076178C28.4371 -0.0715412 27.7225 -0.0164718 27.0667 0.234681L4.2067 9.23868C2.71287 9.82945 1.48411 10.9421 0.748489 12.3702C0.0128725 13.7983 -0.179635 15.4448 0.206699 17.004C1.17608 20.5424 3.04962 23.7676 5.64313 26.3625C8.23665 28.9574 11.4608 30.8327 14.9987 31.804V31.804C16.5596 32.1879 18.2067 31.9929 19.6348 31.2552C21.0629 30.5175 22.1751 29.2871 22.7654 27.792L31.776 4.89601C32.019 4.24433 32.0688 3.53637 31.9193 2.85711C31.7698 2.17785 31.4275 1.55617 30.9334 1.06668V1.06668ZM15.6614 29.2147C12.5828 28.3698 9.77694 26.7384 7.51966 24.4809C5.26237 22.2234 3.63129 19.4174 2.7867 16.3387C2.59193 15.5443 2.64973 14.709 2.95205 13.949C3.25437 13.189 3.78616 12.5422 4.47337 12.0987C4.6112 16.1463 6.28048 19.9906 9.14386 22.8547C12.0072 25.7189 15.8511 27.3891 19.8987 27.528C19.4556 28.215 18.8093 28.7467 18.0498 29.049C17.2903 29.3513 16.4554 29.4093 15.6614 29.2147ZM21.0307 24.912C12.776 24.7787 7.22403 19.2253 7.08937 10.9693L28.0134 2.72935C28.1881 2.66237 28.3786 2.64815 28.5614 2.68844C28.7441 2.72874 28.911 2.82177 29.0414 2.95601C29.1744 3.08039 29.2681 3.24095 29.311 3.41793C29.3538 3.5949 29.344 3.78055 29.2827 3.95201L28.4 6.19335C20.7227 3.55335 16.4774 14.472 23.8494 17.7507L21.0307 24.912ZM24.8267 15.2693C23.9904 14.9007 23.3292 14.2228 22.9816 13.3775C22.6339 12.5323 22.6267 11.5854 22.9615 10.735C23.2964 9.88462 23.9472 9.19675 24.7778 8.81543C25.6083 8.43412 26.5542 8.38894 27.4174 8.68935L24.8267 15.2693Z" fill="#FF654E"/>
<path d="M14.6667 12C13.9594 12 13.2811 12.281 12.781 12.781C12.281 13.2811 12 13.9594 12 14.6667C12 15.3739 12.281 16.0522 12.781 16.5523C13.2811 17.0524 13.9594 17.3333 14.6667 17.3333C15.3739 17.3333 16.0522 17.0524 16.5523 16.5523C17.0524 16.0522 17.3333 15.3739 17.3333 14.6667C17.3333 13.9594 17.0524 13.2811 16.5523 12.781C16.0522 12.281 15.3739 12 14.6667 12Z" fill="#FF654E"/>
</g>
<defs>
<clipPath id="clip0_470_617">
<rect width="32" height="32" fill="white"/>
</clipPath>
</defs>
</svg>
