<svg width="32" height="32" viewBox="0 0 32 32" fill="none" xmlns="http://www.w3.org/2000/svg">
<g clip-path="url(#clip0_470_582)">
<path d="M30.6666 14.6667C30.6666 11.7253 28.2746 9.33333 25.3333 9.33333V6.66667C25.3333 2.99067 22.3426 0 18.6666 0H13.3333C9.65725 0 6.66659 2.99067 6.66659 6.66667V9.33333C3.72525 9.33333 1.33325 11.7253 1.33325 14.6667V21.3333C1.33325 21.356 1.33325 21.38 1.33459 21.4027C1.37192 23.576 3.15059 25.3333 5.33325 25.3333H14.6666V29.3333H9.33325C8.59725 29.3333 7.99992 29.9293 7.99992 30.6667C7.99992 31.404 8.59725 32 9.33325 32H22.6666C23.4026 32 23.9999 31.404 23.9999 30.6667C23.9999 29.9293 23.4026 29.3333 22.6666 29.3333H17.3333V25.3333H26.6666C28.8493 25.3333 30.6279 23.576 30.6653 21.4027C30.6653 21.38 30.6666 21.3573 30.6666 21.3333V14.6667ZM27.9999 14.6667V17.5627C27.5826 17.4147 27.1346 17.3333 26.6666 17.3333H25.3333V12C26.8039 12 27.9999 13.196 27.9999 14.6667ZM9.33325 6.66667C9.33325 4.46133 11.1279 2.66667 13.3333 2.66667H18.6666C20.8719 2.66667 22.6666 4.46133 22.6666 6.66667V17.3333H9.33325V6.66667ZM6.66659 12V17.3333H5.33325C4.86525 17.3333 4.41725 17.4147 3.99992 17.5627V14.6667C3.99992 13.196 5.19592 12 6.66659 12ZM26.6666 22.6667H5.33325C4.59859 22.6667 3.99992 22.0693 3.99992 21.3333C3.99992 20.5973 4.59859 20 5.33325 20H26.6666C27.4013 20 27.9999 20.5973 27.9999 21.3333C27.9999 22.0693 27.4013 22.6667 26.6666 22.6667Z" fill="#FF654E"/>
</g>
<defs>
<clipPath id="clip0_470_582">
<rect width="32" height="32" fill="white"/>
</clipPath>
</defs>
</svg>
