<svg width="32" height="32" viewBox="0 0 32 32" fill="none" xmlns="http://www.w3.org/2000/svg">
<g clip-path="url(#clip0_470_591)">
<path d="M26.6667 9.33333H24.3493C25.1032 8.66879 25.7016 7.8465 26.1021 6.9248C26.5026 6.00309 26.6953 5.00455 26.6667 4C26.6667 3.64638 26.5262 3.30724 26.2761 3.05719C26.0261 2.80714 25.687 2.66667 25.3333 2.66667C24.9797 2.66667 24.6406 2.80714 24.3905 3.05719C24.1405 3.30724 24 3.64638 24 4C24 7.496 20.8387 8.70667 18.4347 9.12133C19.322 7.54807 19.8561 5.80049 20 4C20 2.93913 19.5786 1.92172 18.8284 1.17157C18.0783 0.421427 17.0609 0 16 0C14.9391 0 13.9217 0.421427 13.1716 1.17157C12.4214 1.92172 12 2.93913 12 4C12.1439 5.80049 12.678 7.54807 13.5653 9.12133C11.1613 8.70667 8 7.496 8 4C8 3.64638 7.85952 3.30724 7.60948 3.05719C7.35943 2.80714 7.02029 2.66667 6.66667 2.66667C6.31304 2.66667 5.97391 2.80714 5.72386 3.05719C5.47381 3.30724 5.33333 3.64638 5.33333 4C5.30468 5.00455 5.49743 6.00309 5.89792 6.9248C6.2984 7.8465 6.8968 8.66879 7.65067 9.33333H5.33333C3.91885 9.33333 2.56229 9.89524 1.5621 10.8954C0.561903 11.8956 0 13.2522 0 14.6667L0 16C0 16.7072 0.280952 17.3855 0.781049 17.8856C1.28115 18.3857 1.95942 18.6667 2.66667 18.6667V25.3333C2.66878 27.1008 3.37184 28.7953 4.62163 30.045C5.87141 31.2948 7.56587 31.9979 9.33333 32H22.6667C24.4341 31.9979 26.1286 31.2948 27.3784 30.045C28.6282 28.7953 29.3312 27.1008 29.3333 25.3333V18.6667C30.0406 18.6667 30.7189 18.3857 31.219 17.8856C31.719 17.3855 32 16.7072 32 16V14.6667C32 13.2522 31.4381 11.8956 30.4379 10.8954C29.4377 9.89524 28.0812 9.33333 26.6667 9.33333ZM16 2.66667C16.3536 2.66667 16.6928 2.80714 16.9428 3.05719C17.1929 3.30724 17.3333 3.64638 17.3333 4C17.1724 5.4171 16.7183 6.78521 16 8.01733C15.2817 6.78521 14.8276 5.4171 14.6667 4C14.6667 3.64638 14.8071 3.30724 15.0572 3.05719C15.3072 2.80714 15.6464 2.66667 16 2.66667V2.66667ZM2.66667 14.6667C2.66667 13.9594 2.94762 13.2811 3.44772 12.781C3.94781 12.281 4.62609 12 5.33333 12H14.6667V16H2.66667V14.6667ZM5.33333 25.3333V18.6667H14.6667V29.3333H9.33333C8.27247 29.3333 7.25505 28.9119 6.50491 28.1618C5.75476 27.4116 5.33333 26.3942 5.33333 25.3333V25.3333ZM26.6667 25.3333C26.6667 26.3942 26.2452 27.4116 25.4951 28.1618C24.7449 28.9119 23.7275 29.3333 22.6667 29.3333H17.3333V18.6667H26.6667V25.3333ZM17.3333 16V12H26.6667C27.3739 12 28.0522 12.281 28.5523 12.781C29.0524 13.2811 29.3333 13.9594 29.3333 14.6667V16H17.3333Z" fill="#FF654E"/>
</g>
<defs>
<clipPath id="clip0_470_591">
<rect width="32" height="32" fill="white"/>
</clipPath>
</defs>
</svg>
