<svg width="32" height="32" viewBox="0 0 32 32" fill="none" xmlns="http://www.w3.org/2000/svg">
<g clip-path="url(#clip0_470_601)">
<path d="M28.0001 13.3333H23.5908L17.9281 2.08394C17.5839 1.45313 17.0761 0.926703 16.4581 0.559986C15.8401 0.193269 15.1347 -0.000190699 14.4161 -5.76908e-05H14.1734C13.6293 -0.000809179 13.0924 0.125094 12.6053 0.367689C12.1182 0.610285 11.6942 0.962914 11.367 1.39767C11.0397 1.83243 10.8181 2.33739 10.7197 2.87259C10.6213 3.4078 10.6488 3.95855 10.8001 4.48128L13.3708 13.3333H10.1921C9.66643 13.3347 9.14571 13.2318 8.66006 13.0306C8.17441 12.8294 7.73347 12.534 7.36276 12.1613L5.47343 10.2666C4.99052 9.78419 4.36649 9.46816 3.69184 9.36435C3.0172 9.26054 2.32702 9.37435 1.72143 9.68928C1.3467 9.8826 1.01548 10.1505 0.748126 10.4766C0.480769 10.8026 0.282926 11.1799 0.16676 11.5853C0.038282 12.0202 -0.00101638 12.4765 0.0512228 12.927C0.103462 13.3774 0.246162 13.8127 0.47076 14.2066L2.62276 17.9733C3.20697 18.9927 4.04965 19.8401 5.06583 20.4301C6.08201 21.02 7.23577 21.3315 8.41076 21.3333H13.3588L11.1348 27.2626C10.9357 27.7929 10.8681 28.3636 10.9377 28.9258C11.0074 29.488 11.2123 30.0249 11.5349 30.4906C11.8574 30.9562 12.288 31.3368 12.7898 31.5997C13.2916 31.8625 13.8496 31.9999 14.4161 31.9999C15.1223 32.0037 15.8166 31.8186 16.4273 31.464C17.038 31.1093 17.5428 30.5979 17.8894 29.9826L23.2854 21.3333H28.0001C29.061 21.3333 30.0784 20.9119 30.8285 20.1617C31.5787 19.4116 32.0001 18.3941 32.0001 17.3333C32.0001 16.2724 31.5787 15.255 30.8285 14.5049C30.0784 13.7547 29.061 13.3333 28.0001 13.3333ZM13.3668 3.73994C13.3306 3.61485 13.324 3.48306 13.3475 3.35498C13.371 3.2269 13.424 3.10604 13.5022 3.00194C13.5804 2.89785 13.6818 2.81336 13.7983 2.75517C13.9148 2.69697 14.0432 2.66665 14.1734 2.66661H14.4161C14.6486 2.66461 14.8775 2.72411 15.0795 2.83908C15.2816 2.95405 15.4497 3.1204 15.5668 3.32128L20.6068 13.3333H16.1468L13.3668 3.73994ZM28.0001 18.6666H22.5454C22.3192 18.6668 22.0967 18.7245 21.8989 18.8343C21.701 18.9442 21.5345 19.1026 21.4148 19.2946L15.5868 28.6386C15.472 28.8489 15.3028 29.0244 15.0968 29.1466C14.8908 29.2688 14.6556 29.3333 14.4161 29.3333C14.2806 29.3334 14.147 29.3006 14.0269 29.2377C13.9069 29.1749 13.8038 29.0838 13.7267 28.9723C13.6496 28.8608 13.6007 28.7323 13.5842 28.5978C13.5678 28.4633 13.5842 28.3267 13.6321 28.1999L16.5308 20.4666C16.6061 20.2649 16.6315 20.0479 16.6048 19.8343C16.578 19.6206 16.4999 19.4166 16.3771 19.2397C16.2543 19.0628 16.0905 18.9183 15.8997 18.8185C15.7089 18.7187 15.4968 18.6666 15.2814 18.6666H8.41076C7.70661 18.6654 7.01524 18.4784 6.40654 18.1244C5.79783 17.7704 5.29335 17.262 4.94409 16.6506L2.78543 12.8826C2.74025 12.8023 2.71145 12.7138 2.7007 12.6222C2.68994 12.5307 2.69744 12.4379 2.72276 12.3493C2.73612 12.2902 2.76179 12.2346 2.79809 12.1861C2.83439 12.1377 2.8805 12.0974 2.93343 12.0679C3.01561 12.0243 3.10705 12.001 3.20009 11.9999C3.34319 12.0009 3.48035 12.0573 3.58276 12.1573L5.47209 14.0466C6.09057 14.6682 6.8262 15.1609 7.6364 15.4962C8.4466 15.8314 9.31526 16.0027 10.1921 15.9999H28.0001C28.3537 15.9999 28.6929 16.1404 28.9429 16.3905C29.193 16.6405 29.3334 16.9797 29.3334 17.3333C29.3334 17.6869 29.193 18.026 28.9429 18.2761C28.6929 18.5261 28.3537 18.6666 28.0001 18.6666Z" fill="#FF654E"/>
</g>
<defs>
<clipPath id="clip0_470_601">
<rect width="32" height="32" fill="white"/>
</clipPath>
</defs>
</svg>
