<svg width="32" height="32" viewBox="0 0 32 32" fill="none" xmlns="http://www.w3.org/2000/svg">
<g clip-path="url(#clip0_470_603)">
<path d="M31.0627 12.0453C30.3027 11.1693 29.2014 10.6667 28.04 10.6667H27.9254C27.26 4.67467 22.1667 0 16 0C9.83338 0 4.74005 4.67467 4.07471 10.6667H4.00005C2.84005 10.6667 1.74005 11.1693 0.978713 12.0453C0.21738 12.9213 -0.123954 14.0827 0.0400464 15.2333L1.45471 25.132C2.01471 29.048 5.42005 32 9.37471 32H22.6667C26.6214 32 30.0267 29.0467 30.5867 25.132L32.0014 15.2333C32.1654 14.084 31.8227 12.9227 31.0627 12.0453ZM16 2.66667C20.6934 2.66667 24.588 6.15067 25.2374 10.6667H6.76271C7.41205 6.15067 11.3067 2.66667 16 2.66667ZM29.3614 14.856L27.9467 24.7547C27.5734 27.3653 25.304 29.3347 22.6667 29.3347H9.37471C6.73605 29.3347 4.46671 27.3653 4.09471 24.7547L2.68005 14.856C2.62405 14.468 2.73605 14.0907 2.99205 13.7933C3.24938 13.496 3.60671 13.3333 3.99871 13.3333H28.04C28.432 13.3333 28.7894 13.496 29.048 13.7933C29.304 14.0907 29.416 14.468 29.36 14.856H29.3614ZM17.3334 17.3333V25.3333C17.3334 26.0707 16.7374 26.6667 16 26.6667C15.2627 26.6667 14.6667 26.0707 14.6667 25.3333V17.3333C14.6667 16.596 15.2627 16 16 16C16.7374 16 17.3334 16.596 17.3334 17.3333ZM24 17.3333V25.3333C24 26.0707 23.404 26.6667 22.6667 26.6667C21.9294 26.6667 21.3334 26.0707 21.3334 25.3333V17.3333C21.3334 16.596 21.9294 16 22.6667 16C23.404 16 24 16.596 24 17.3333ZM10.6667 17.3333V25.3333C10.6667 26.0707 10.0707 26.6667 9.33338 26.6667C8.59605 26.6667 8.00005 26.0707 8.00005 25.3333V17.3333C8.00005 16.596 8.59605 16 9.33338 16C10.0707 16 10.6667 16.596 10.6667 17.3333Z" fill="#FF654E"/>
</g>
<defs>
<clipPath id="clip0_470_603">
<rect width="32" height="32" fill="white"/>
</clipPath>
</defs>
</svg>
