<svg width="32" height="32" viewBox="0 0 32 32" fill="none" xmlns="http://www.w3.org/2000/svg">
<g clip-path="url(#clip0_470_620)">
<path d="M29.3334 0H24C23.6464 0 23.3073 0.140476 23.0572 0.390524C22.8072 0.640573 22.6667 0.979711 22.6667 1.33333C22.6667 1.68696 22.8072 2.02609 23.0572 2.27614C23.3073 2.52619 23.6464 2.66667 24 2.66667H27.448L24.248 5.86667C22.7887 4.76465 21.0357 4.11965 19.2101 4.01311C17.3845 3.90656 15.5683 4.34323 13.9907 5.268C12.8017 4.58093 11.4755 4.16516 10.107 4.05042C8.73856 3.93568 7.36165 4.12482 6.07481 4.60429C4.78796 5.08377 3.623 5.84174 2.66327 6.82397C1.70353 7.8062 0.97275 8.9884 0.523207 10.286C0.0736632 11.5836 -0.0835295 12.9645 0.0628753 14.33C0.20928 15.6954 0.655663 17.0116 1.37009 18.1844C2.08451 19.3572 3.04932 20.3576 4.19547 21.114C5.34163 21.8705 6.6408 22.3642 8.00005 22.56V25.3333H5.33338C4.97976 25.3333 4.64062 25.4738 4.39057 25.7239C4.14052 25.9739 4.00005 26.313 4.00005 26.6667C4.00005 27.0203 4.14052 27.3594 4.39057 27.6095C4.64062 27.8595 4.97976 28 5.33338 28H8.00005V30.6667C8.00005 31.0203 8.14052 31.3594 8.39057 31.6095C8.64062 31.8595 8.97976 32 9.33338 32C9.687 32 10.0261 31.8595 10.2762 31.6095C10.5262 31.3594 10.6667 31.0203 10.6667 30.6667V28H13.3334C13.687 28 14.0261 27.8595 14.2762 27.6095C14.5262 27.3594 14.6667 27.0203 14.6667 26.6667C14.6667 26.313 14.5262 25.9739 14.2762 25.7239C14.0261 25.4738 13.687 25.3333 13.3334 25.3333H10.6667V22.5693C11.8388 22.3947 12.9664 21.9964 13.988 21.396C15.8457 22.4825 18.0222 22.8923 20.1477 22.5557C22.2732 22.2191 24.2167 21.1569 25.6477 19.5496C27.0787 17.9423 27.909 15.8891 27.9976 13.7389C28.0861 11.5887 27.4274 9.47417 26.1334 7.75467L29.3334 4.55467V8C29.3334 8.35362 29.4739 8.69276 29.7239 8.94281C29.974 9.19286 30.3131 9.33333 30.6667 9.33333C31.0203 9.33333 31.3595 9.19286 31.6095 8.94281C31.8596 8.69276 32 8.35362 32 8V2.66667C32 1.95942 31.7191 1.28115 31.219 0.781049C30.7189 0.280952 30.0406 0 29.3334 0V0ZM2.66671 13.3333C2.66039 12.2505 2.91949 11.1825 3.42134 10.223C3.9232 9.26339 4.65252 8.44139 5.54553 7.82887C6.43853 7.21634 7.46801 6.83195 8.54393 6.7093C9.61985 6.58666 10.7094 6.7295 11.7174 7.12533C10.1826 8.82883 9.3333 11.0404 9.3333 13.3333C9.3333 15.6262 10.1826 17.8378 11.7174 19.5413C10.7094 19.9372 9.61985 20.08 8.54393 19.9574C7.46801 19.8347 6.43853 19.4503 5.54553 18.8378C4.65252 18.2253 3.9232 17.4033 3.42134 16.4437C2.91949 15.4841 2.66039 14.4162 2.66671 13.3333V13.3333ZM18.6667 20C17.3482 20 16.0592 19.609 14.9629 18.8765C13.8666 18.1439 13.0121 17.1027 12.5075 15.8846C12.0029 14.6664 11.8709 13.3259 12.1281 12.0327C12.3854 10.7395 13.0203 9.55164 13.9527 8.61929C14.885 7.68694 16.0729 7.052 17.3661 6.79477C18.6593 6.53753 19.9998 6.66955 21.2179 7.17414C22.4361 7.67872 23.4773 8.5332 24.2098 9.62953C24.9424 10.7259 25.3334 12.0148 25.3334 13.3333C25.3313 15.1008 24.6282 16.7953 23.3784 18.045C22.1286 19.2948 20.4342 19.9979 18.6667 20Z" fill="#FF654E"/>
</g>
<defs>
<clipPath id="clip0_470_620">
<rect width="32" height="32" fill="white"/>
</clipPath>
</defs>
</svg>
