<svg width="32" height="32" viewBox="0 0 32 32" fill="none" xmlns="http://www.w3.org/2000/svg">
<g clip-path="url(#clip0_470_622)">
<path d="M20.0599 5.49355e-07C20.0239 -0.00133278 11.9759 -0.00133278 11.9399 5.49355e-07C8.29192 0.0320006 5.33325 3.01067 5.33325 6.66533V25.332C5.33325 29.008 8.32392 31.9987 11.9999 31.9987H19.9999C23.6759 31.9987 26.6666 29.008 26.6666 25.332V6.66667C26.6666 3.01067 23.7079 0.0333339 20.0599 5.49355e-07ZM23.9999 25.332C23.9999 27.5373 22.2053 29.332 19.9999 29.332H11.9999C9.79459 29.332 7.99992 27.5373 7.99992 25.332V6.66667C7.99992 4.72933 9.38392 3.11067 11.2146 2.744L12.1399 4.596C12.3653 5.048 12.8279 5.33333 13.3333 5.33333H18.6666C19.1719 5.33333 19.6333 5.048 19.8599 4.596L20.7853 2.744C22.6159 3.10933 23.9999 4.72933 23.9999 6.66667V25.3333V25.332ZM17.3333 26.6653H14.6666C13.9306 26.6653 13.3333 26.068 13.3333 25.332C13.3333 24.596 13.9306 23.9987 14.6666 23.9987H17.3333C18.0693 23.9987 18.6666 24.596 18.6666 25.332C18.6666 26.068 18.0693 26.6653 17.3333 26.6653Z" fill="#FF654E"/>
</g>
<defs>
<clipPath id="clip0_470_622">
<rect width="32" height="32" fill="white"/>
</clipPath>
</defs>
</svg>
