<svg width="32" height="32" viewBox="0 0 32 32" fill="none" xmlns="http://www.w3.org/2000/svg">
<g clip-path="url(#clip0_470_595)">
<path d="M30.5895 9.11601L27.6801 6.20534L28.9428 4.94267C29.0702 4.81968 29.1717 4.67255 29.2416 4.50988C29.3115 4.34721 29.3483 4.17225 29.3498 3.99521C29.3513 3.81817 29.3176 3.6426 29.2506 3.47873C29.1835 3.31487 29.0845 3.166 28.9593 3.04081C28.8341 2.91562 28.6853 2.81662 28.5214 2.74958C28.3575 2.68254 28.182 2.6488 28.0049 2.65034C27.8279 2.65188 27.6529 2.68866 27.4903 2.75854C27.3276 2.82842 27.1805 2.92999 27.0575 3.05734L25.7948 4.32001L22.8841 1.41067C21.9667 0.536435 20.7481 0.0487671 19.4808 0.0487671C18.2135 0.0487671 16.9949 0.536435 16.0775 1.41067C15.6302 1.85756 15.2754 2.38821 15.0333 2.97228C14.7913 3.55636 14.6667 4.18242 14.6667 4.81467C14.6667 5.44693 14.7913 6.07298 15.0333 6.65706C15.2754 7.24114 15.6302 7.77179 16.0775 8.21867L18.9868 11.128L11.1281 18.9867L8.21747 16.0773C7.30006 15.2031 6.0814 14.7154 4.81414 14.7154C3.54688 14.7154 2.32822 15.2031 1.4108 16.0773C0.963549 16.5242 0.608745 17.0549 0.366671 17.6389C0.124598 18.223 0 18.8491 0 19.4813C0 20.1136 0.124598 20.7397 0.366671 21.3237C0.608745 21.9078 0.963549 22.4385 1.4108 22.8853L4.32014 25.7947L3.05747 27.0573C2.93012 27.1803 2.82855 27.3275 2.75867 27.4901C2.68879 27.6528 2.65201 27.8278 2.65047 28.0048C2.64893 28.1818 2.68267 28.3574 2.74971 28.5213C2.81675 28.6851 2.91575 28.834 3.04095 28.9592C3.16614 29.0844 3.315 29.1834 3.47887 29.2504C3.64273 29.3175 3.8183 29.3512 3.99534 29.3497C4.17238 29.3481 4.34734 29.3114 4.51001 29.2415C4.67268 29.1716 4.81981 29.07 4.94281 28.9427L6.20547 27.68L9.11614 30.5893C9.563 31.0364 10.0936 31.391 10.6775 31.633C11.2615 31.8749 11.8874 31.9995 12.5195 31.9995C13.1516 31.9995 13.7775 31.8749 14.3614 31.633C14.9454 31.391 15.4759 31.0364 15.9228 30.5893C16.37 30.1426 16.7248 29.612 16.9669 29.0281C17.2089 28.4441 17.3335 27.8182 17.3335 27.186C17.3335 26.5539 17.2089 25.9279 16.9669 25.3439C16.7248 24.76 16.37 24.2294 15.9228 23.7827L13.0135 20.8733L20.8801 13.0133L23.7895 15.9227C24.2363 16.3697 24.7669 16.7244 25.3509 16.9663C25.9348 17.2083 26.5607 17.3328 27.1928 17.3328C27.8249 17.3328 28.4508 17.2083 29.0348 16.9663C29.6187 16.7244 30.1493 16.3697 30.5961 15.9227C31.0434 15.4759 31.3981 14.9454 31.6402 14.3614C31.8822 13.7774 32.0068 13.1515 32.0068 12.5193C32.0068 11.8872 31.8822 11.2612 31.6402 10.6773C31.3981 10.0933 31.0434 9.56278 30.5961 9.11601H30.5895ZM14.6668 27.1867C14.6674 27.4686 14.6121 27.7479 14.504 28.0083C14.396 28.2688 14.2374 28.5052 14.0375 28.704C13.6288 29.095 13.085 29.3132 12.5195 29.3132C11.9539 29.3132 11.4102 29.095 11.0015 28.704L3.29614 20.9987C2.89354 20.5961 2.66736 20.05 2.66736 19.4807C2.66736 18.9113 2.89354 18.3653 3.29614 17.9627C3.69874 17.5601 4.24478 17.3339 4.81414 17.3339C5.3835 17.3339 5.92954 17.5601 6.33214 17.9627L14.0375 25.668C14.2376 25.8669 14.3963 26.1036 14.5043 26.3643C14.6123 26.625 14.6676 26.9045 14.6668 27.1867ZM28.7041 14.0373C28.2955 14.4283 27.7517 14.6465 27.1861 14.6465C26.6206 14.6465 26.0768 14.4283 25.6681 14.0373L17.9628 6.33201C17.7635 6.13266 17.6053 5.896 17.4974 5.63554C17.3896 5.37508 17.334 5.09592 17.334 4.81401C17.334 4.24465 17.5602 3.6986 17.9628 3.29601C18.3654 2.89341 18.9114 2.66723 19.4808 2.66723C20.0502 2.66723 20.5962 2.89341 20.9988 3.29601L28.7041 11.0013C28.9037 11.2006 29.0619 11.4372 29.1699 11.6977C29.2779 11.9582 29.3335 12.2374 29.3335 12.5193C29.3335 12.8013 29.2779 13.0805 29.1699 13.341C29.0619 13.6015 28.9037 13.8381 28.7041 14.0373V14.0373Z" fill="#FF654E"/>
</g>
<defs>
<clipPath id="clip0_470_595">
<rect width="32" height="32" fill="white"/>
</clipPath>
</defs>
</svg>
