<svg width="32" height="32" viewBox="0 0 32 32" fill="none" xmlns="http://www.w3.org/2000/svg">
<g clip-path="url(#clip0_470_599)">
<path d="M10.8855 10.6667C10.1132 10.6546 9.36899 10.3746 8.78018 9.87466C7.55199 8.74829 6.80793 7.18991 6.70418 5.52666C6.38018 2.20266 8.19351 0.241325 10.1522 0.0226584C10.6241 -0.0296662 11.1018 0.0134868 11.5567 0.149549C12.0116 0.285611 12.4345 0.511802 12.8002 0.814658C13.3457 1.30644 13.7887 1.90123 14.1036 2.56482C14.4184 3.22841 14.599 3.9477 14.6348 4.68133C14.9335 7.77999 13.5042 10.6667 10.8855 10.6667ZM10.4482 2.66666C9.67884 2.75199 9.22018 3.84399 9.35884 5.26133C9.39747 6.2135 9.79023 7.11694 10.4602 7.79466C10.5871 7.91933 10.7558 7.9925 10.9335 7.99999C11.4015 7.94799 12.1548 6.74533 11.9775 4.93333C11.5215 2.44533 10.4815 2.66666 10.4482 2.67333V2.66666ZM4.21884 18.6667C3.4465 18.6546 2.70232 18.3746 2.11351 17.8747C0.885325 16.7483 0.14126 15.1899 0.0375093 13.5267C-0.286491 10.2027 1.52684 8.24133 3.48551 8.02266C3.95742 7.97095 4.43491 8.01439 4.88974 8.15043C5.34456 8.28646 5.76749 8.51233 6.13351 8.81466C6.67908 9.30644 7.12203 9.90123 7.43689 10.5648C7.75176 11.2284 7.93231 11.9477 7.96818 12.6813C8.26684 15.78 6.76951 18.6667 4.21884 18.6667ZM3.78151 10.6667C3.01218 10.752 2.55351 11.844 2.69218 13.2613C2.7308 14.2135 3.12356 15.1169 3.79351 15.7947C3.92168 15.9175 4.0896 15.9903 4.26684 16C4.73484 15.948 5.48818 14.7453 5.31084 12.9333C4.95751 10.496 3.81484 10.6667 3.78151 10.6733V10.6667ZM21.1148 10.6667C18.8375 10.6827 17.0695 7.77866 17.3722 4.67733C17.408 3.9437 17.5886 3.22441 17.9035 2.56082C18.2183 1.89723 18.6613 1.30244 19.2068 0.810658C19.5722 0.509617 19.9941 0.284796 20.4478 0.149458C20.9014 0.0141195 21.3776 -0.0289948 21.8482 0.0226584C23.8068 0.241325 25.6202 2.20266 25.2962 5.52666C25.1928 7.19038 24.4487 8.74929 23.2202 9.87599C22.6312 10.3755 21.887 10.6549 21.1148 10.6667V10.6667ZM20.0268 4.93333C19.8495 6.73999 20.6028 7.94266 21.0708 7.99999C21.2452 7.99313 21.4115 7.92462 21.5402 7.80666C22.2101 7.12894 22.6029 6.2255 22.6415 5.27333C22.9215 1.77866 20.2668 2.00666 20.0268 4.93333ZM27.7815 18.6667C25.2988 18.6667 23.7362 15.7787 24.0388 12.6773C24.0747 11.9437 24.2553 11.2244 24.5701 10.5608C24.885 9.89723 25.3279 9.30244 25.8735 8.81066C26.2383 8.50852 26.6601 8.28273 27.1138 8.14668C27.5675 8.01063 28.044 7.9671 28.5148 8.01866C30.4735 8.23733 32.2868 10.1987 31.9628 13.5227C31.8594 15.1864 31.1153 16.7453 29.8868 17.872C29.2984 18.3729 28.5542 18.6538 27.7815 18.6667V18.6667ZM26.6935 12.9333C26.5162 14.74 27.2695 15.9427 27.7375 16C27.9114 15.9908 28.0769 15.9226 28.2068 15.8067C28.8768 15.1289 29.2695 14.2255 29.3082 13.2733C29.4415 11.856 28.9882 10.764 28.2188 10.6787C28.1855 10.6667 26.8202 10.548 26.6935 12.9333ZM21.3335 32C20.1938 32.0228 19.0682 31.744 18.0708 31.192C17.4324 30.8557 16.7217 30.6799 16.0002 30.6799C15.2786 30.6799 14.5679 30.8557 13.9295 31.192C9.91218 33.444 5.22951 30.9693 5.33351 25.3333C5.33351 19.1533 11.3428 13.3333 16.0002 13.3333C20.6575 13.3333 26.6668 19.152 26.6668 25.3333C26.6668 29.2587 24.4735 32 21.3335 32ZM16.0002 28C17.1397 27.9776 18.265 28.2558 19.2628 28.8067C22.2455 30.4307 24.0468 28.2293 24.0002 25.3333C24.0002 20.8267 19.3055 16 16.0002 16C12.6948 16 8.00018 20.8267 8.00018 25.3333C7.95751 28.2253 9.74418 30.4307 12.7375 28.8067C13.7353 28.2558 14.8606 27.9776 16.0002 28Z" fill="#FF654E"/>
</g>
<defs>
<clipPath id="clip0_470_599">
<rect width="32" height="32" fill="white"/>
</clipPath>
</defs>
</svg>
