<svg width="20" height="20" viewBox="0 0 20 20" fill="none" xmlns="http://www.w3.org/2000/svg">
<g clipPath="url(#clip0_689_27)">
<path d="M18.5992 3.69251L7.08334 15.2075C7.00592 15.2852 6.91391 15.3469 6.81259 15.389C6.71127 15.4311 6.60264 15.4527 6.49293 15.4527C6.38321 15.4527 6.27458 15.4311 6.17326 15.389C6.07195 15.3469 5.97993 15.2852 5.90251 15.2075L1.44918 10.75C1.37175 10.6723 1.27974 10.6106 1.17842 10.5685C1.0771 10.5264 0.968471 10.5048 0.85876 10.5048C0.749048 10.5048 0.640416 10.5264 0.539098 10.5685C0.437779 10.6106 0.345767 10.6723 0.268343 10.75V10.75C0.190612 10.8274 0.128935 10.9194 0.0868504 11.0208C0.0447657 11.1221 0.0231018 11.2307 0.0231018 11.3404C0.0231018 11.4501 0.0447657 11.5588 0.0868504 11.6601C0.128935 11.7614 0.190612 11.8534 0.268343 11.9308L4.72334 16.385C5.1933 16.8541 5.83017 17.1175 6.49418 17.1175C7.15818 17.1175 7.79505 16.8541 8.26501 16.385L19.78 4.87251C19.8576 4.7951 19.9192 4.70314 19.9612 4.6019C20.0032 4.50065 20.0248 4.39212 20.0248 4.28251C20.0248 4.17289 20.0032 4.06436 19.9612 3.96312C19.9192 3.86188 19.8576 3.76992 19.78 3.69251C19.7026 3.61478 19.6106 3.5531 19.5093 3.51101C19.4079 3.46893 19.2993 3.44727 19.1896 3.44727C19.0799 3.44727 18.9713 3.46893 18.8699 3.51101C18.7686 3.5531 18.6766 3.61478 18.5992 3.69251Z" fill="white"/>
</g>
<defs>
<clipPath id="clip0_689_27">
<rect width="20" height="20" fill="white"/>
</clipPath>
</defs>
</svg>
