<svg width="17" height="17" viewBox="0 0 17 17" fill="none" xmlns="http://www.w3.org/2000/svg">
<path d="M11.6673 4.24271L8.48528 7.42469L5.3033 4.24271C5.01041 3.94982 4.53553 3.94982 4.24264 4.24271C3.94975 4.5356 3.94975 5.01048 4.24264 5.30337L7.42462 8.48535L4.24264 11.6673C3.94975 11.9602 3.94975 12.4351 4.24264 12.728C4.53553 13.0209 5.01041 13.0209 5.3033 12.728L8.48528 9.54601L11.6673 12.728C11.9602 13.0209 12.435 13.0209 12.7279 12.728C13.0208 12.4351 13.0208 11.9602 12.7279 11.6673L9.54594 8.48535L12.7279 5.30337C13.0208 5.01048 13.0208 4.5356 12.7279 4.24271C12.435 3.94982 11.9602 3.94982 11.6673 4.24271Z" fill="#FF654E"/>
</svg>
