<svg width="10" height="10" viewBox="0 0 10 10" fill="none" xmlns="http://www.w3.org/2000/svg">
<g clipPath="url(#clip0_677_12)">
<path d="M5.8837 4.99999L9.81688 1.06724C10.061 0.823086 10.061 0.427243 9.81688 0.183113C9.57273 -0.0610375 9.17688 -0.0610375 8.93275 0.183113L4.99999 4.11627L1.06724 0.183113C0.823086 -0.0610375 0.427243 -0.0610375 0.183113 0.183113C-0.061018 0.427263 -0.0610375 0.823106 0.183113 1.06724L4.11627 4.99999L0.183113 8.93275C-0.0610375 9.1769 -0.0610375 9.57275 0.183113 9.81688C0.427263 10.061 0.823106 10.061 1.06724 9.81688L4.99999 5.8837L8.93273 9.81688C9.17688 10.061 9.57273 10.061 9.81686 9.81688C10.061 9.57273 10.061 9.17688 9.81686 8.93275L5.8837 4.99999Z" fill="#9F9F9F"/>
</g>
<defs>
<clipPath id="clip0_677_12">
<rect width="10" height="10" fill="white"/>
</clipPath>
</defs>
</svg>
