<svg width="142" height="142" viewBox="0 0 142 142" fill="none" xmlns="http://www.w3.org/2000/svg">
<g clip-path="url(#clip0_622_7)">
<path d="M86.4938 124.283L92.9835 118.229C94.335 116.944 95.2214 115.247 95.5037 113.403C95.786 111.56 95.4481 109.675 94.5431 108.045C93.694 106.427 93.3999 104.576 93.706 102.775C94.012 100.974 94.9013 99.3236 96.2371 98.0776C97.5728 96.8316 99.2809 96.0589 101.099 95.8786C102.916 95.6982 104.743 96.1201 106.298 97.0793C107.861 98.0953 109.718 98.5632 111.577 98.4095C113.435 98.2559 115.19 97.4893 116.566 96.2303L123.055 90.1764C125.48 87.915 126.906 84.7832 127.021 81.47C127.136 78.1568 125.93 74.9335 123.669 72.5094L112.3 60.3222L100.113 71.691C99.305 72.4448 98.2306 72.8468 97.1262 72.8084C96.0218 72.77 94.9779 72.2945 94.2241 71.4865C93.4703 70.6784 93.0683 69.604 93.1067 68.4996C93.1451 67.3952 93.6206 66.3513 94.4286 65.5975L106.616 54.2286L78.1937 23.7607C74.4212 19.7264 69.2027 17.3531 63.6827 17.1613C58.1627 16.9695 52.792 18.975 48.7487 22.7378L48.3526 23.1073C47.0011 24.3922 46.1147 26.0896 45.8324 27.933C45.5501 29.7763 45.888 31.6612 46.793 33.2917C47.6421 34.909 47.9362 36.7606 47.6301 38.5614C47.3241 40.3623 46.4348 42.0127 45.099 43.2587C43.7633 44.5047 42.0552 45.2773 40.2375 45.4577C38.4197 45.6381 36.5931 45.2162 35.0385 44.2569C33.4748 43.2409 31.6179 42.7731 29.7594 42.9267C27.9009 43.0804 26.1461 43.8469 24.7704 45.106L24.3743 45.4755C20.34 49.2479 17.9667 54.4665 17.775 59.9865C17.5832 65.5065 19.5887 70.8772 23.3514 74.9205L51.7736 105.388L63.9607 94.0196C64.7688 93.2658 65.8432 92.8638 66.9476 92.9022C68.052 92.9406 69.0959 93.4161 69.8497 94.2241C70.6035 95.0322 71.0055 96.1066 70.9671 97.211C70.9287 98.3154 70.4532 99.3594 69.6451 100.113L57.458 111.482L68.8268 123.669C71.0882 126.093 74.22 127.52 77.5332 127.635C80.8464 127.75 84.0697 126.544 86.4938 124.283ZM76.1479 82.6507L82.2415 76.9663C83.0495 76.2125 84.1239 75.8106 85.2283 75.8489C86.3328 75.8873 87.3767 76.3628 88.1305 77.1709C88.8843 77.9789 89.2862 79.0534 89.2478 80.1578C89.2095 81.2622 88.734 82.3061 87.9259 83.0599L81.8323 88.7443C81.0243 89.4981 79.9498 89.9 78.8454 89.8617C77.741 89.8233 76.6971 89.3478 75.9433 88.5397C75.1895 87.7317 74.7876 86.6573 74.826 85.5529C74.8643 84.4485 75.3398 83.4045 76.1479 82.6507V82.6507Z" fill="#F13C47" fill-opacity="0.3"/>
</g>
<defs>
<clipPath id="clip0_622_7">
<rect width="100" height="100" fill="white" transform="translate(0 68.2131) rotate(-43.0104)"/>
</clipPath>
</defs>
</svg>
