<svg width="16" height="16" viewBox="0 0 16 16" fill="none" xmlns="http://www.w3.org/2000/svg">
<path d="M1.27812 8.40312C1.21871 8.27732 1.1879 8.13991 1.1879 8.00078C1.1879 7.86165 1.21871 7.72425 1.27812 7.59844C2.75937 4.47656 4.99687 2.90625 8 2.90625C4.99687 2.90625 2.75937 4.47656 1.27812 7.59844C1.21871 7.72425 1.1879 7.86165 1.1879 8.00078C1.1879 8.13991 1.21871 8.27732 1.27812 8.40312C2.75937 11.5234 4.99844 13.0938 8 13.0938C4.99844 13.0938 2.75937 11.5234 1.27812 8.40312Z" fill="#9F9F9F" fill-opacity="0.15"/>
<path d="M8 4.03125C5.47968 4.03125 3.63437 5.30938 2.33281 8C3.63437 10.6906 5.47968 11.9688 8 11.9688C10.5219 11.9688 12.3672 10.6906 13.6672 8C12.3656 5.30938 10.5203 4.03125 8 4.03125ZM7.9375 10.75C6.41875 10.75 5.1875 9.51875 5.1875 8C5.1875 6.48125 6.41875 5.25 7.9375 5.25C9.45625 5.25 10.6875 6.48125 10.6875 8C10.6875 9.51875 9.45625 10.75 7.9375 10.75Z" fill="#9F9F9F" fill-opacity="0.15"/>
<path d="M14.7219 7.59688C13.2406 4.47656 11.0016 2.90625 8 2.90625C4.99687 2.90625 2.75937 4.47656 1.27812 7.59844C1.21871 7.72425 1.1879 7.86165 1.1879 8.00078C1.1879 8.13991 1.21871 8.27732 1.27812 8.40312C2.75937 11.5234 4.99844 13.0938 8 13.0938C11.0031 13.0938 13.2406 11.5234 14.7219 8.40156C14.8422 8.14844 14.8422 7.85469 14.7219 7.59688ZM8 11.9688C5.47969 11.9688 3.63437 10.6906 2.33281 8C3.63437 5.30938 5.47969 4.03125 8 4.03125C10.5203 4.03125 12.3656 5.30938 13.6672 8C12.3672 10.6906 10.5219 11.9688 8 11.9688Z" fill="#9F9F9F"/>
<path d="M7.9375 5.25C6.41875 5.25 5.1875 6.48125 5.1875 8C5.1875 9.51875 6.41875 10.75 7.9375 10.75C9.45625 10.75 10.6875 9.51875 10.6875 8C10.6875 6.48125 9.45625 5.25 7.9375 5.25ZM7.9375 9.75C6.97031 9.75 6.1875 8.96719 6.1875 8C6.1875 7.03281 6.97031 6.25 7.9375 6.25C8.90469 6.25 9.6875 7.03281 9.6875 8C9.6875 8.96719 8.90469 9.75 7.9375 9.75Z" fill="#9F9F9F"/>
</svg>
