<svg width="60" height="84" viewBox="0 0 60 84" fill="none" xmlns="http://www.w3.org/2000/svg">
<path d="M29.8203 83.0937C24.1953 83.0937 19.1953 82.1302 14.8203 80.2031C10.4714 78.276 7.03385 75.5937 4.50781 72.1562C1.98177 68.7187 0.640625 64.7474 0.484375 60.2422H15.1719C15.3021 62.4036 16.0182 64.2917 17.3203 65.9062C18.6224 67.4948 20.3542 68.7318 22.5156 69.6172C24.6771 70.5026 27.099 70.9453 29.7812 70.9453C32.6458 70.9453 35.1849 70.4505 37.3984 69.4609C39.612 68.4453 41.3437 67.0391 42.5937 65.2422C43.8437 63.4453 44.4557 61.375 44.4297 59.0312C44.4557 56.6094 43.8307 54.474 42.5547 52.625C41.2786 50.776 39.4297 49.3307 37.0078 48.2891C34.612 47.2474 31.7214 46.7266 28.3359 46.7266H21.2656V35.5547H28.3359C31.1224 35.5547 33.5573 35.0729 35.6406 34.1094C37.75 33.1458 39.4036 31.7917 40.6016 30.0469C41.7995 28.276 42.3854 26.2318 42.3594 23.9141C42.3854 21.6484 41.8776 19.6823 40.8359 18.0156C39.8203 16.3229 38.375 15.0078 36.5 14.0703C34.651 13.1328 32.4766 12.6641 29.9766 12.6641C27.5286 12.6641 25.263 13.1068 23.1797 13.9922C21.0964 14.8776 19.4167 16.1406 18.1406 17.7812C16.8646 19.3958 16.1875 21.3229 16.1094 23.5625H2.16406C2.26823 19.0833 3.55729 15.151 6.03125 11.7656C8.53125 8.35416 11.8646 5.69791 16.0312 3.79687C20.1979 1.86979 24.8724 0.906245 30.0547 0.906245C35.3932 0.906245 40.0286 1.90885 43.9609 3.91406C47.9193 5.89322 50.9792 8.56249 53.1406 11.9219C55.3021 15.2812 56.3828 18.9922 56.3828 23.0547C56.4089 27.5599 55.0807 31.3359 52.3984 34.3828C49.7422 37.4297 46.2526 39.4219 41.9297 40.3594V40.9844C47.5547 41.7656 51.8646 43.849 54.8594 47.2344C57.8802 50.5937 59.3776 54.7734 59.3516 59.7734C59.3516 64.2526 58.0755 68.263 55.5234 71.8047C52.9974 75.3203 49.5078 78.0807 45.0547 80.0859C40.6276 82.0911 35.5495 83.0937 29.8203 83.0937Z" fill="#D9D9D9"/>
</svg>
