<svg width="56" height="82" viewBox="0 0 56 82" fill="none" xmlns="http://www.w3.org/2000/svg">
<path d="M1.10938 82V71.5312L28.8828 44.3047C31.5391 41.6224 33.7526 39.2396 35.5234 37.1562C37.2943 35.0729 38.6224 33.0547 39.5078 31.1016C40.3932 29.1484 40.8359 27.0651 40.8359 24.8516C40.8359 22.3255 40.263 20.1641 39.1172 18.3672C37.9714 16.5443 36.3958 15.138 34.3906 14.1484C32.3854 13.1588 30.1068 12.6641 27.5547 12.6641C24.9245 12.6641 22.6198 13.2109 20.6406 14.3047C18.6615 15.3724 17.125 16.8958 16.0312 18.875C14.9635 20.8542 14.4297 23.2109 14.4297 25.9453H0.640625C0.640625 20.8672 1.79948 16.4531 4.11719 12.7031C6.4349 8.95312 9.625 6.04947 13.6875 3.99219C17.776 1.93489 22.4635 0.906245 27.75 0.906245C33.1146 0.906245 37.8281 1.90885 41.8906 3.91406C45.9531 5.91927 49.1042 8.66666 51.3437 12.1562C53.6094 15.6458 54.7422 19.6302 54.7422 24.1094C54.7422 27.1042 54.1693 30.0469 53.0234 32.9375C51.8776 35.8281 49.8594 39.0312 46.9687 42.5469C44.1042 46.0625 40.0807 50.3203 34.8984 55.3203L21.1094 69.3437V69.8906H55.9531V82H1.10938Z" fill="#D9D9D9"/>
</svg>
