<svg width="85" height="95" viewBox="0 0 85 95" fill="none" xmlns="http://www.w3.org/2000/svg">
<path d="M69.1701 16.3864C68.9538 16.3864 68.7433 16.3162 68.5702 16.1864C68.3593 16.0289 68.219 15.7947 68.1797 15.5345C68.1404 15.2743 68.2052 15.0091 68.3601 14.7964L72.6701 8.98638C72.917 8.67319 73.088 8.30702 73.1696 7.91662C73.2511 7.52622 73.241 7.12223 73.1401 6.73638C72.7201 5.34638 73.1401 3.73638 74.4301 2.04638C74.7078 1.55025 75.0881 1.11901 75.5456 0.781426C76.003 0.443841 76.5273 0.207675 77.0832 0.088647C77.6392 -0.0303814 78.2141 -0.0295391 78.7697 0.0911494C79.3253 0.211838 79.8488 0.449586 80.3053 0.788537C80.7617 1.12749 81.1407 1.55986 81.4169 2.05682C81.6931 2.55378 81.8602 3.1039 81.907 3.67053C81.9538 4.23715 81.8793 4.80727 81.6885 5.34283C81.4976 5.87839 81.1948 6.3671 80.8001 6.77639C80.722 6.88211 80.6238 6.97138 80.5112 7.03915C80.3985 7.10691 80.2736 7.15185 80.1436 7.17135C80.0136 7.19085 79.8811 7.18453 79.7535 7.15279C79.6259 7.12106 79.5059 7.06452 79.4001 6.98638C79.2944 6.90825 79.2052 6.81006 79.1374 6.69741C79.0696 6.58477 79.0247 6.45989 79.0052 6.32989C78.9857 6.19989 78.992 6.06732 79.0237 5.93975C79.0555 5.81218 79.112 5.6921 79.1902 5.58639C80.1902 4.21639 79.7301 3.10639 79.0201 2.58639C78.785 2.41678 78.5166 2.29873 78.2327 2.23995C77.9488 2.18117 77.6557 2.18296 77.3725 2.24526C77.0893 2.30756 76.8225 2.42895 76.5894 2.60146C76.3564 2.77398 76.1624 2.99375 76.0201 3.24639C75.1601 4.41639 74.8201 5.42638 75.0201 6.17638C75.2048 6.85899 75.2295 7.57497 75.0925 8.2687C74.9555 8.96243 74.6604 9.61522 74.2301 10.1764L69.9301 15.9864C69.8411 16.1053 69.7267 16.2029 69.5953 16.2721C69.4638 16.3413 69.3186 16.3803 69.1701 16.3864V16.3864Z" fill="#263238"/>
<path d="M72.1299 27.5264L56.8799 16.2164L67.5599 8.52637L76.3799 15.0764L72.1299 27.5264Z" fill="#F3F3F3"/>
<path d="M76.5601 76.8764C72.2383 82.7106 66.4917 87.3381 59.8701 90.3164C58.4417 90.9557 56.9795 91.5165 55.49 91.9964C54.43 92.3364 53.36 92.6364 52.27 92.8964L50.7501 93.2364C45.4704 94.2716 40.0435 94.3089 34.7501 93.3464C33.8101 93.1764 32.8601 92.9663 31.9101 92.7263C21.1795 89.97 11.9481 83.1352 6.18005 73.6764C5.67005 72.8464 5.18006 72.0063 4.75006 71.1363C2.28482 66.355 0.747721 61.1499 0.220057 55.7963C0.170057 55.2663 0.130052 54.7963 0.0900522 54.2263C0.0200522 53.1163 4.48758e-05 52.0063 0.0200449 50.8863C0.113881 44.6364 1.60355 38.4865 4.38006 32.8863C5.51495 30.6005 6.8537 28.4217 8.38006 26.3764C9.05006 25.4564 9.75005 24.5763 10.49 23.7363C10.87 23.3163 11.25 22.8863 11.64 22.4763C12.03 22.0663 12.35 21.7363 12.71 21.3863C16.2865 17.8563 20.4657 14.9945 25.05 12.9364C26.4732 12.2927 27.9323 11.7318 29.42 11.2563C30.48 10.9163 31.5501 10.6164 32.6301 10.3664C33.1401 10.2364 33.63 10.1263 34.17 10.0163C39.4485 8.9714 44.8765 8.9307 50.17 9.89635C51.11 10.0664 52.05 10.2763 52.99 10.5163C63.738 13.2693 72.9873 20.1076 78.77 29.5763C79.27 30.3963 79.77 31.2364 80.17 32.0864C82.6447 36.8682 84.1855 42.0778 84.71 47.4364C84.77 47.9664 84.81 48.4863 84.84 49.0163C84.91 50.1263 84.9401 51.2364 84.9101 52.3464C84.9151 52.3829 84.9151 52.4199 84.9101 52.4563C84.8797 53.9844 84.7696 55.5098 84.58 57.0264C83.9368 62.0043 82.4166 66.8288 80.09 71.2764C79.85 71.7264 79.6 72.1864 79.34 72.6264C79.08 73.0664 78.7701 73.6264 78.4701 74.0864C77.8701 75.0264 77.2401 75.9664 76.5601 76.8764Z" fill="#31A169"/>
<g opacity="0.5">
<path d="M12.5099 23.0764L11.6299 22.4164C11.9799 22.0464 12.3399 21.6764 12.6999 21.3264L12.5099 23.0764Z" fill="white"/>
<path d="M6.10986 41.1765L2.10986 38.2465C2.72883 36.3912 3.47391 34.5803 4.33987 32.8265C5.47476 30.5407 6.81352 28.3618 8.33987 26.3165C9.00987 25.3965 9.70986 24.5165 10.4499 23.6765L9.44986 32.7865L7.15988 31.0865L6.10986 41.1765Z" fill="white"/>
<path d="M31.8899 60.2963L32.9899 50.2163L35.2799 51.9063L36.4799 40.8463L38.2999 42.1963L39.8099 28.2163L26.8799 33.7363L28.6999 35.0863L18.4599 39.4463L20.7499 41.1363L11.4199 45.1163L19.4299 51.0563L17.0999 54.2063L21.5499 57.5063L23.8799 54.3563L31.8899 60.2963Z" fill="white"/>
<path d="M57.68 79.4164L58.77 69.3364L61.06 71.0264L62.26 59.9664L64.09 61.3164L65.6 47.3364L52.67 52.8564L54.49 54.2064L44.25 58.5664L46.54 60.2664L37.21 64.2364L45.22 70.1764L42.89 73.3264L47.34 76.6264L49.67 73.4764L57.68 79.4164Z" fill="white"/>
<path d="M79.3397 72.6764L78.4497 72.0164L80.0897 71.3264C79.8697 71.7264 79.5997 72.1864 79.3397 72.6764Z" fill="white"/>
<path d="M76.5598 76.8764C73.8765 80.507 70.6287 83.684 66.9398 86.2864L62.9897 83.3664L72.3297 79.3664L70.0398 77.6764L78.4698 74.0764C77.8698 75.0264 77.2398 75.9664 76.5598 76.8764Z" fill="white"/>
</g>
<g opacity="0.5">
<path d="M84.58 57.0263L25.04 12.8763C26.4632 12.2327 27.9223 11.6717 29.41 11.1963L84.87 52.3463C84.8751 52.3828 84.8751 52.4198 84.87 52.4563C84.853 53.9836 84.7562 55.5091 84.58 57.0263V57.0263Z" fill="white"/>
<path d="M84.8699 49.0165L32.6499 10.3065C33.1599 10.1765 33.6499 10.0665 34.1899 9.95654L84.7399 47.4366C84.7699 47.9666 84.8099 48.4865 84.8699 49.0165Z" fill="white"/>
<path d="M80.1699 32.0864L50.1699 9.83643C51.1099 10.0064 52.0499 10.2164 52.9899 10.4564L78.7699 29.5764C79.2699 30.3964 79.7299 31.2364 80.1699 32.0864Z" fill="white"/>
<path d="M59.87 90.3165C58.4417 90.9558 56.9795 91.5166 55.49 91.9965L0 50.8465C0.028432 49.2848 0.14193 47.7258 0.339996 46.1765L59.87 90.3165Z" fill="white"/>
<path d="M52.2899 92.8965L50.7698 93.2365L0.219849 55.7565C0.169849 55.2265 0.129844 54.7565 0.0898438 54.1865L52.2899 92.8965Z" fill="white"/>
<path d="M34.76 93.3465C33.82 93.1765 32.87 92.9665 31.92 92.7265L6.17999 73.6765C5.66999 72.8465 5.18 72.0065 4.75 71.1365L34.76 93.3465Z" fill="white"/>
</g>
<path opacity="0.3" d="M84.8699 52.3465V52.4565C84.8412 53.9849 84.7277 55.5106 84.5299 57.0265C83.8969 62.0067 82.3762 66.833 80.0399 71.2765C79.8099 71.7265 79.5499 72.1865 79.2999 72.6265C79.0499 73.0665 78.7299 73.6265 78.4299 74.0865C77.8299 75.0265 77.1999 75.9665 76.5199 76.8765C72.2031 82.6995 66.4725 87.3253 59.8699 90.3165C58.4409 90.9542 56.9788 91.515 55.4899 91.9965C54.4199 92.3365 53.3499 92.6365 52.2699 92.8965L50.7499 93.2365C45.4702 94.2717 40.0433 94.309 34.7499 93.3465C33.8099 93.1765 32.8499 92.9665 31.9099 92.7265C21.1784 89.9666 11.9451 83.1331 6.16986 73.6765C5.66986 72.8465 5.16988 72.0065 4.74988 71.1365C3.43414 68.5834 2.38202 65.9029 1.60986 63.1365C7.14641 69.0372 14.2453 73.2438 22.0799 75.2665C23.0199 75.5065 23.9699 75.7165 24.9099 75.8865C30.2039 76.8457 35.6308 76.805 40.9099 75.7665C41.4099 75.6665 41.9099 75.5565 42.4399 75.4265C43.5199 75.1798 44.5899 74.8798 45.6499 74.5265C47.1452 74.0538 48.6111 73.4929 50.0399 72.8465C52.4968 71.7421 54.8411 70.4025 57.0399 68.8465C60.7297 66.2417 63.9805 63.0652 66.6699 59.4365C67.3499 58.5165 67.9799 57.5865 68.5799 56.6465C68.8799 56.1565 69.1699 55.6465 69.4499 55.1865C69.7299 54.7265 69.9599 54.2765 70.1899 53.8265C72.5222 49.3849 74.0428 44.5626 74.6799 39.5865C74.8723 38.0701 74.9858 36.5447 75.0199 35.0165C75.0244 34.9766 75.0244 34.9364 75.0199 34.8965C75.0199 33.7865 75.0199 32.6865 74.9499 31.5765C74.9499 31.0365 74.8799 30.5265 74.8199 29.9965C74.5821 27.5059 74.1168 25.0423 73.4299 22.6365C75.4379 24.7768 77.2144 27.1231 78.7299 29.6365C79.2299 30.4565 79.7299 31.2965 80.1299 32.1465C82.6046 36.9283 84.1453 42.1379 84.6699 47.4965C84.7199 48.0265 84.7599 48.5465 84.7899 49.0765C84.8699 50.1265 84.9299 51.2365 84.8699 52.3465Z" fill="black"/>
<path opacity="0.2" d="M42.4699 30.8364C52.1956 30.8364 60.0799 26.413 60.0799 20.9564C60.0799 15.4998 52.1956 11.0764 42.4699 11.0764C32.7441 11.0764 24.8599 15.4998 24.8599 20.9564C24.8599 26.413 32.7441 30.8364 42.4699 30.8364Z" fill="white"/>
<path opacity="0.2" d="M43.2702 41.1863C47.578 41.1863 51.0702 39.2253 51.0702 36.8063C51.0702 34.3873 47.578 32.4263 43.2702 32.4263C38.9624 32.4263 35.4702 34.3873 35.4702 36.8063C35.4702 39.2253 38.9624 41.1863 43.2702 41.1863Z" fill="white"/>
</svg>
