<svg width="12" height="12" viewBox="0 0 12 12" fill="none" xmlns="http://www.w3.org/2000/svg">
<path d="M7.06045 5.99999L11.7803 1.28068C12.0732 0.987705 12.0732 0.512692 11.7803 0.219735C11.4873 -0.0732451 11.0123 -0.0732451 10.7193 0.219735L5.99999 4.93953L1.28068 0.219735C0.987705 -0.0732451 0.512692 -0.0732451 0.219735 0.219735C-0.0732217 0.512716 -0.0732451 0.987728 0.219735 1.28068L4.93953 5.99999L0.219735 10.7193C-0.0732451 11.0123 -0.0732451 11.4873 0.219735 11.7803C0.512716 12.0732 0.987728 12.0732 1.28068 11.7803L5.99999 7.06045L10.7193 11.7803C11.0123 12.0732 11.4873 12.0732 11.7802 11.7803C12.0732 11.4873 12.0732 11.0123 11.7802 10.7193L7.06045 5.99999Z" fill="#FF654E"/>
</svg>
