<svg width="24" height="24" viewBox="0 0 24 24" fill="none" xmlns="http://www.w3.org/2000/svg">
<g clip-path="url(#clip0_964_18)">
<path d="M23 15H22.333C22.083 15 21.835 15.019 21.588 15.057L14.542 9.77302L16.23 8.15702C16.629 7.77502 16.643 7.14102 16.261 6.74302C15.878 6.34402 15.244 6.33102 14.847 6.71202L10.674 10.707C10.466 10.915 10.183 11.022 9.88602 10.997C9.58802 10.973 9.32603 10.822 9.14703 10.572C8.87303 10.192 8.95702 9.59702 9.31502 9.23802L14.018 4.80902C14.909 3.97202 16.302 3.76702 17.392 4.31402L19.708 5.47202C20.398 5.81702 21.172 5.99902 21.943 5.99902H22.999C23.552 5.99902 23.999 5.55202 23.999 4.99902C23.999 4.44602 23.552 3.99902 22.999 3.99902H21.943C21.48 3.99902 21.015 3.89002 20.601 3.68302L18.287 2.52502C16.463 1.61202 14.134 1.95102 12.646 3.35302L12.028 3.93502L11.328 3.29702C10.409 2.46002 9.21902 1.99902 7.93802 1.99902C7.16702 1.99902 6.39802 2.18102 5.71102 2.52402L3.39702 3.68202C2.98202 3.88902 2.51702 3.99802 2.05402 3.99802H1.00002C0.447024 3.99802 2.34377e-05 4.44502 2.34377e-05 4.99802C2.34377e-05 5.55102 0.447024 5.99802 1.00002 5.99802H2.05602C2.82702 5.99802 3.60102 5.81502 4.29202 5.47102L6.60802 4.31302C7.63002 3.79902 9.06603 3.93802 9.98203 4.77502L10.569 5.31002L7.92302 7.80202C6.85002 8.87402 6.67902 10.569 7.52502 11.74C8.04502 12.463 9.07802 12.999 9.96902 12.999C10.762 12.999 11.523 12.687 12.073 12.136L13.079 11.173L19.425 15.932C19.394 15.954 13.227 20.578 13.227 20.578C12.504 21.14 11.495 21.14 10.757 20.567L4.66602 15.999C3.80702 15.354 2.74102 14.999 1.66602 14.999H0.999024C0.446024 14.999 -0.000976562 15.446 -0.000976562 15.999C-0.000976562 16.552 0.446024 16.999 0.999024 16.999H1.66602C2.31102 16.999 2.95002 17.212 3.46602 17.599L9.54303 22.157C10.268 22.721 11.137 23.003 12.004 23.003C12.866 23.003 13.727 22.724 14.441 22.168L20.534 17.6C21.049 17.213 21.688 17 22.333 17H23C23.553 17 24 16.553 24 16C24 15.447 23.553 15 23 15Z" fill="#303030"/>
</g>
<defs>
<clipPath id="clip0_964_18">
<rect width="24" height="24" fill="white"/>
</clipPath>
</defs>
</svg>
