<svg width="30" height="30" viewBox="0 0 30 30" fill="none" xmlns="http://www.w3.org/2000/svg">
<g clip-path="url(#clip0_966_6)">
<path d="M30 12.5V23.75C29.998 25.407 29.3389 26.9956 28.1672 28.1672C26.9956 29.3389 25.407 29.998 23.75 30H6.25C4.59301 29.998 3.00445 29.3389 1.83277 28.1672C0.661102 26.9956 0.00198482 25.407 0 23.75L0 10C0.00198482 8.34301 0.661102 6.75445 1.83277 5.58277C3.00445 4.4111 4.59301 3.75198 6.25 3.75H16.25C16.5815 3.75 16.8995 3.8817 17.1339 4.11612C17.3683 4.35054 17.5 4.66848 17.5 5C17.5 5.33152 17.3683 5.64946 17.1339 5.88388C16.8995 6.1183 16.5815 6.25 16.25 6.25H6.25C5.57026 6.25188 4.9039 6.4391 4.32265 6.79151C3.74139 7.14392 3.26725 7.64817 2.95125 8.25L12.3475 17.6475C13.0521 18.3488 14.0058 18.7426 15 18.7426C15.9942 18.7426 16.9479 18.3488 17.6525 17.6475L22.4288 12.875C22.6645 12.6473 22.9803 12.5213 23.308 12.5242C23.6357 12.527 23.9493 12.6585 24.181 12.8902C24.4128 13.122 24.5442 13.4355 24.5471 13.7632C24.5499 14.091 24.4239 14.4067 24.1963 14.6425L19.42 19.42C18.2466 20.59 16.6571 21.247 15 21.247C13.3429 21.247 11.7534 20.59 10.58 19.42L2.5 11.3388V23.75C2.5 24.7446 2.89509 25.6984 3.59835 26.4017C4.30161 27.1049 5.25544 27.5 6.25 27.5H23.75C24.7446 27.5 25.6984 27.1049 26.4017 26.4017C27.1049 25.6984 27.5 24.7446 27.5 23.75V12.5C27.5 12.1685 27.6317 11.8505 27.8661 11.6161C28.1005 11.3817 28.4185 11.25 28.75 11.25C29.0815 11.25 29.3995 11.3817 29.6339 11.6161C29.8683 11.8505 30 12.1685 30 12.5V12.5ZM21.25 6.25H23.75V8.75C23.75 9.08152 23.8817 9.39946 24.1161 9.63388C24.3505 9.8683 24.6685 10 25 10C25.3315 10 25.6495 9.8683 25.8839 9.63388C26.1183 9.39946 26.25 9.08152 26.25 8.75V6.25H28.75C29.0815 6.25 29.3995 6.1183 29.6339 5.88388C29.8683 5.64946 30 5.33152 30 5C30 4.66848 29.8683 4.35054 29.6339 4.11612C29.3995 3.8817 29.0815 3.75 28.75 3.75H26.25V1.25C26.25 0.918479 26.1183 0.600537 25.8839 0.366117C25.6495 0.131696 25.3315 0 25 0C24.6685 0 24.3505 0.131696 24.1161 0.366117C23.8817 0.600537 23.75 0.918479 23.75 1.25V3.75H21.25C20.9185 3.75 20.6005 3.8817 20.3661 4.11612C20.1317 4.35054 20 4.66848 20 5C20 5.33152 20.1317 5.64946 20.3661 5.88388C20.6005 6.1183 20.9185 6.25 21.25 6.25Z" fill="#FF654E"/>
</g>
<defs>
<clipPath id="clip0_966_6">
<rect width="30" height="30" fill="white"/>
</clipPath>
</defs>
</svg>
