<svg width="8" height="8" viewBox="0 0 8 8" fill="none" xmlns="http://www.w3.org/2000/svg">
<path d="M4.70696 3.99999L7.8535 0.853789C8.04882 0.658469 8.04882 0.341795 7.8535 0.14649C7.65818 -0.04883 7.34151 -0.04883 7.1462 0.14649L3.99999 3.29302L0.853789 0.14649C0.658469 -0.04883 0.341795 -0.04883 0.14649 0.14649C-0.0488144 0.34181 -0.04883 0.658485 0.14649 0.853789L3.29302 3.99999L0.14649 7.1462C-0.04883 7.34152 -0.04883 7.6582 0.14649 7.8535C0.34181 8.04881 0.658485 8.04882 0.853789 7.8535L3.99999 4.70696L7.14619 7.8535C7.34151 8.04882 7.65818 8.04882 7.85349 7.8535C8.04881 7.65818 8.04881 7.34151 7.85349 7.1462L4.70696 3.99999Z" fill="#F2F2F2"/>
</svg>
