<svg width="80" height="80" viewBox="0 0 80 80" fill="none" xmlns="http://www.w3.org/2000/svg">
<g clip-path="url(#clip0_871_10)">
<path d="M40 13.3333C39.1159 13.3333 38.2681 12.9821 37.643 12.357C37.0179 11.7319 36.6667 10.8841 36.6667 10V3.33333C36.6667 2.44928 37.0179 1.60143 37.643 0.976311C38.2681 0.35119 39.1159 0 40 0C40.8841 0 41.7319 0.35119 42.357 0.976311C42.9821 1.60143 43.3333 2.44928 43.3333 3.33333V10C43.3333 10.8841 42.9821 11.7319 42.357 12.357C41.7319 12.9821 40.8841 13.3333 40 13.3333ZM43.3333 76.6667V70C43.3333 69.1159 42.9821 68.2681 42.357 67.643C41.7319 67.0179 40.8841 66.6667 40 66.6667C39.1159 66.6667 38.2681 67.0179 37.643 67.643C37.0179 68.2681 36.6667 69.1159 36.6667 70V76.6667C36.6667 77.5507 37.0179 78.3986 37.643 79.0237C38.2681 79.6488 39.1159 80 40 80C40.8841 80 41.7319 79.6488 42.357 79.0237C42.9821 78.3986 43.3333 77.5507 43.3333 76.6667ZM13.3333 40C13.3333 39.1159 12.9821 38.2681 12.357 37.643C11.7319 37.0179 10.8841 36.6667 10 36.6667H3.33333C2.44928 36.6667 1.60143 37.0179 0.976311 37.643C0.35119 38.2681 0 39.1159 0 40C0 40.8841 0.35119 41.7319 0.976311 42.357C1.60143 42.9821 2.44928 43.3333 3.33333 43.3333H10C10.8841 43.3333 11.7319 42.9821 12.357 42.357C12.9821 41.7319 13.3333 40.8841 13.3333 40ZM80 40C80 39.1159 79.6488 38.2681 79.0237 37.643C78.3986 37.0179 77.5507 36.6667 76.6667 36.6667H70C69.1159 36.6667 68.2681 37.0179 67.643 37.643C67.0179 38.2681 66.6667 39.1159 66.6667 40C66.6667 40.8841 67.0179 41.7319 67.643 42.357C68.2681 42.9821 69.1159 43.3333 70 43.3333H76.6667C77.5507 43.3333 78.3986 42.9821 79.0237 42.357C79.6488 41.7319 80 40.8841 80 40ZM57.93 15.7167L61.2633 9.94667C61.674 9.18351 61.7713 8.2904 61.5347 7.4567C61.298 6.62301 60.7459 5.91426 59.9955 5.48074C59.245 5.04722 58.3553 4.92301 57.5148 5.13444C56.6744 5.34588 55.9493 5.87633 55.4933 6.61333L52.16 12.3833C51.7177 13.1485 51.5974 14.058 51.8256 14.9119C52.0537 15.7658 52.6117 16.4941 53.3767 16.9367C53.8823 17.2323 54.4576 17.3877 55.0433 17.3867C55.6288 17.3863 56.2038 17.2318 56.7105 16.9386C57.2173 16.6455 57.6379 16.224 57.93 15.7167V15.7167ZM24.4967 73.3833L27.83 67.6133C28.2407 66.8502 28.338 65.9571 28.1013 65.1234C27.8646 64.2897 27.3126 63.5809 26.5621 63.1474C25.8117 62.7139 24.9219 62.5897 24.0815 62.8011C23.241 63.0125 22.516 63.543 22.06 64.28L18.7267 70.05C18.2841 70.8148 18.1633 71.724 18.3908 72.5778C18.6183 73.4316 19.1756 74.1602 19.94 74.6033C20.4457 74.8987 21.021 75.054 21.6067 75.0533C22.1917 75.0546 22.7667 74.9018 23.274 74.6104C23.7813 74.3191 24.203 73.8993 24.4967 73.3933V73.3833ZM16.93 26.6233C17.3726 25.8585 17.4934 24.9493 17.2658 24.0955C17.0383 23.2417 16.4811 22.5132 15.7167 22.07L9.94667 18.7367C9.18351 18.326 8.2904 18.2287 7.4567 18.4653C6.62301 18.702 5.91426 19.2541 5.48074 20.0045C5.04722 20.755 4.92301 21.6447 5.13444 22.4852C5.34588 23.3256 5.87633 24.0507 6.61333 24.5067L12.3833 27.84C13.1485 28.2823 14.058 28.4026 14.9119 28.1744C15.7658 27.9463 16.4941 27.3883 16.9367 26.6233H16.93ZM74.5967 60.06C74.8163 59.6812 74.9592 59.2628 75.0171 58.8287C75.075 58.3946 75.0468 57.9534 74.9341 57.5303C74.8214 57.1071 74.6265 56.7103 74.3604 56.3625C74.0943 56.0147 73.7623 55.7228 73.3833 55.5033L67.6133 52.17C66.8502 51.7593 65.9571 51.662 65.1234 51.8987C64.2897 52.1354 63.5809 52.6874 63.1474 53.4379C62.7139 54.1883 62.5897 55.0781 62.8011 55.9185C63.0125 56.759 63.543 57.484 64.28 57.94L70.05 61.2733C70.5556 61.569 71.131 61.7244 71.7167 61.7233C72.302 61.7242 72.8773 61.571 73.3846 61.279C73.8919 60.987 74.3134 60.5666 74.6067 60.06H74.5967ZM26.6233 16.93C27.3883 16.4874 27.9463 15.7591 28.1744 14.9052C28.4026 14.0514 28.2823 13.1419 27.84 12.3767L24.5067 6.60667C24.0507 5.86966 23.3256 5.33921 22.4852 5.12778C21.6447 4.91635 20.755 5.04056 20.0045 5.47408C19.2541 5.9076 18.702 6.61634 18.4653 7.45004C18.2287 8.28374 18.326 9.17684 18.7367 9.94L22.07 15.71C22.3626 16.2167 22.7833 16.6375 23.29 16.9301C23.7968 17.2226 24.3716 17.3767 24.9567 17.3767C25.5421 17.3787 26.1174 17.2245 26.6233 16.93V16.93ZM60.06 74.5967C60.8244 74.1535 61.3817 73.425 61.6092 72.5711C61.8367 71.7173 61.7159 70.8081 61.2733 70.0433L57.94 64.2733C57.484 63.5363 56.759 63.0059 55.9185 62.7944C55.0781 62.583 54.1883 62.7072 53.4379 63.1407C52.6874 63.5743 52.1354 64.283 51.8987 65.1167C51.662 65.9504 51.7593 66.8435 52.17 67.6067L55.5033 73.3767C55.7228 73.7556 56.0147 74.0876 56.3625 74.3537C56.7103 74.6198 57.1071 74.8148 57.5303 74.9274C57.9534 75.0401 58.3946 75.0683 58.8287 75.0104C59.2628 74.9525 59.6812 74.8097 60.06 74.59V74.5967ZM67.6233 27.83L73.3933 24.4967C74.1303 24.0407 74.6608 23.3156 74.8722 22.4752C75.0837 21.6347 74.9594 20.745 74.5259 19.9945C74.0924 19.2441 73.3837 18.692 72.55 18.4553C71.7163 18.2187 70.8232 18.316 70.06 18.7267L64.29 22.06C63.553 22.516 63.0225 23.241 62.8111 24.0815C62.5997 24.9219 62.7239 25.8117 63.1574 26.5621C63.5909 27.3126 64.2997 27.8646 65.1334 28.1013C65.9671 28.338 66.8602 28.2407 67.6233 27.83ZM9.95667 61.2633L15.7267 57.93C16.4637 57.474 16.9941 56.749 17.2056 55.9085C17.417 55.0681 17.2928 54.1783 16.8593 53.4279C16.4257 52.6774 15.717 52.1254 14.8833 51.8887C14.0496 51.652 13.1565 51.7493 12.3933 52.16L6.62333 55.4933C5.9879 55.8602 5.49129 56.4266 5.21051 57.1045C4.92974 57.7824 4.88048 58.534 5.0704 59.2427C5.26031 59.9515 5.67877 60.5778 6.26089 61.0245C6.843 61.4712 7.55625 61.7133 8.29 61.7133C8.8714 61.7156 9.44302 61.5638 9.94667 61.2733L9.95667 61.2633Z" fill="#FF654E"/>
</g>
<defs>
<clipPath id="clip0_871_10">
<rect width="80" height="80" fill="white"/>
</clipPath>
</defs>
</svg>
