<svg width="24" height="24" viewBox="0 0 24 24" fill="none" xmlns="http://www.w3.org/2000/svg">
<g clip-path="url(#clip0_964_20)">
<path d="M18 3H6C2.691 3 0 5.691 0 9V18C0 19.654 1.346 21 3 21H21C22.654 21 24 19.654 24 18V9C24 5.691 21.309 3 18 3ZM2 18V9C2 6.794 3.794 5 6 5C8.206 5 10 6.794 10 9V18C10 18.552 9.551 19 9 19H3C2.449 19 2 18.552 2 18ZM22 18C22 18.552 21.552 19 21 19H11.828C11.939 18.687 12 18.351 12 18V9C12 7.465 11.42 6.062 10.468 5H18C20.206 5 22 6.794 22 9V18ZM20 10V12C20 12.552 19.553 13 19 13C18.447 13 18 12.552 18 12V11H15C14.447 11 14 10.552 14 10C14 9.448 14.447 9 15 9H19C19.553 9 20 9.448 20 10ZM8 10C8 10.552 7.552 11 7 11H5C4.448 11 4 10.552 4 10C4 9.448 4.448 9 5 9H7C7.552 9 8 9.448 8 10Z" fill="#303030"/>
</g>
<defs>
<clipPath id="clip0_964_20">
<rect width="24" height="24" fill="white"/>
</clipPath>
</defs>
</svg>
