<svg width="83" height="86" viewBox="0 0 83 86" fill="none" xmlns="http://www.w3.org/2000/svg">
<path d="M69.0161 15.1372C66.3708 13.9543 63.3476 13.9775 60.7197 15.2029L60.4603 15.3239C52.6239 2.4494 36.1597 -2.76801 22.2056 3.73886C8.25164 10.2457 1.66539 26.2117 6.49068 40.4903L6.32173 40.5691C3.69687 41.7931 1.73886 44.0927 0.941643 46.8808C0.144423 49.669 0.59905 52.6604 2.18588 55.0945L15.8454 76.0299C21.25 84.3118 32.0746 87.4071 41.0232 83.2343L71.1005 69.209C80.0492 65.0362 84.6345 54.7514 81.7657 45.2908L74.5084 21.37C73.6651 18.5928 71.6628 16.3231 69.0161 15.1372ZM25.0231 9.78091C35.6432 4.82866 48.1371 8.61308 54.3778 18.1601L12.5731 37.654C9.27108 26.7366 14.403 14.7332 25.0231 9.78091ZM36.9031 66.7659C37.6822 68.4365 36.9632 70.4158 35.2948 71.1938C33.6263 71.9718 31.648 71.2503 30.869 69.5797L22.4166 51.4535C21.6376 49.7829 22.3565 47.8036 24.025 47.0256C25.6934 46.2476 27.6718 46.9691 28.4508 48.6398L36.9031 66.7659ZM51.9886 59.7315C52.7676 61.4021 52.0486 63.3814 50.3802 64.1594C48.7118 64.9374 46.7334 64.2159 45.9544 62.5452L37.502 44.4191C36.723 42.7485 37.4419 40.7692 39.1104 39.9912C40.7788 39.2132 42.7572 39.9347 43.5362 41.6053L51.9886 59.7315ZM67.074 52.697C67.853 54.3676 67.1341 56.3469 65.4656 57.1249C63.7972 57.9029 61.8188 57.1814 61.0398 55.5108L52.5874 37.3846C51.8084 35.714 52.5274 33.7347 54.1958 32.9567C55.8642 32.1787 57.8426 32.9002 58.6216 34.5709L67.074 52.697Z" fill="#F13C47" fill-opacity="0.3"/>
</svg>
