<svg width="20" height="20" viewBox="0 0 20 20" fill="none" xmlns="http://www.w3.org/2000/svg">
<path d="M14.9342 1.25417C14.9339 1.58558 14.802 1.90331 14.5675 2.1375L8.17418 8.53084C7.98067 8.7243 7.82716 8.95399 7.72243 9.20679C7.6177 9.45958 7.56379 9.73054 7.56379 10.0042C7.56379 10.2778 7.6177 10.5488 7.72243 10.8016C7.82716 11.0544 7.98067 11.284 8.17418 11.4775L14.5592 17.8625C14.7869 18.0983 14.9129 18.414 14.91 18.7418C14.9072 19.0695 14.7757 19.383 14.544 19.6148C14.3122 19.8465 13.9987 19.978 13.6709 19.9808C13.3432 19.9837 13.0274 19.8577 12.7917 19.63L6.40668 13.25C5.54815 12.3898 5.06598 11.2241 5.06598 10.0088C5.06598 8.79341 5.54815 7.62772 6.40668 6.7675L12.8 0.370002C12.9748 0.195072 13.1976 0.0759295 13.4402 0.027651C13.6827 -0.0206274 13.9341 0.00412773 14.1626 0.098784C14.3911 0.19344 14.5864 0.353743 14.7237 0.559409C14.861 0.765075 14.9343 1.00686 14.9342 1.25417V1.25417Z" fill="black"/>
</svg>
