<svg width="20" height="20" viewBox="0 0 20 20" fill="none" xmlns="http://www.w3.org/2000/svg">
<path d="M5.06586 18.7501C5.06615 18.4186 5.19804 18.1009 5.43252 17.8667L11.8259 11.4734C12.0194 11.2799 12.1729 11.0502 12.2776 10.7974C12.3823 10.5446 12.4362 10.2737 12.4362 10.0001C12.4362 9.72642 12.3823 9.45547 12.2776 9.20267C12.1729 8.94987 12.0194 8.72018 11.8259 8.52672L5.44086 2.13755C5.21316 1.9018 5.08717 1.58605 5.09001 1.2583C5.09286 0.930557 5.22432 0.617042 5.45608 0.385282C5.68784 0.153521 6.00136 0.0220603 6.32911 0.0192123C6.65685 0.0163643 6.9726 0.142357 7.20836 0.370055L13.5934 6.75422C14.4519 7.61444 14.9341 8.78013 14.9341 9.99547C14.9341 11.2108 14.4519 12.3765 13.5934 13.2367L7.20002 19.6301C7.02546 19.8047 6.80306 19.9238 6.5609 19.9722C6.31873 20.0206 6.06766 19.9962 5.83935 19.9021C5.61104 19.8079 5.41573 19.6483 5.27807 19.4432C5.14041 19.2382 5.06657 18.997 5.06586 18.7501V18.7501Z" fill="black"/>
</svg>
