<svg width="12" height="13" viewBox="0 0 12 13" fill="none" xmlns="http://www.w3.org/2000/svg">
<path d="M7.77817 3.65692L5.65685 5.77824L3.53553 3.65692C3.34027 3.46166 3.02369 3.46166 2.82843 3.65692C2.63317 3.85219 2.63317 4.16877 2.82843 4.36403L4.94975 6.48535L2.82843 8.60667C2.63317 8.80193 2.63317 9.11852 2.82843 9.31378C3.02369 9.50904 3.34027 9.50904 3.53553 9.31378L5.65685 7.19246L7.77817 9.31378C7.97344 9.50904 8.29002 9.50904 8.48528 9.31378C8.68054 9.11852 8.68054 8.80193 8.48528 8.60667L6.36396 6.48535L8.48528 4.36403C8.68054 4.16877 8.68054 3.85219 8.48528 3.65692C8.29002 3.46166 7.97344 3.46166 7.77817 3.65692Z" fill="#F2F2F2"/>
</svg>
