<svg width="139" height="134" viewBox="0 0 139 134" fill="none" xmlns="http://www.w3.org/2000/svg">
<g clip-path="url(#clip0_622_10)">
<path d="M124.825 62.2946L119.883 54.923C118.83 53.384 117.295 52.2384 115.521 51.6659C113.746 51.0935 111.831 51.1267 110.077 51.7603C108.345 52.3407 106.471 52.336 104.742 51.7468C103.012 51.1577 101.525 50.0167 100.508 48.4995C99.4904 46.9823 98.9999 45.1728 99.1115 43.3496C99.2232 41.5263 99.9308 39.7902 101.126 38.4085C102.378 37.0266 103.136 35.268 103.28 33.4088C103.425 31.5496 102.947 29.695 101.924 28.1363L96.9815 20.7647C95.1354 18.0112 92.271 16.1037 89.0184 15.462C85.7659 14.8204 82.3917 15.4971 79.6381 17.3432L65.7949 26.6245L75.0761 40.4677C75.6915 41.3856 75.9171 42.5103 75.7032 43.5945C75.4893 44.6787 74.8535 45.6335 73.9356 46.2489C73.0177 46.8643 71.893 47.0898 70.8088 46.8759C69.7247 46.662 68.7699 46.0262 68.1545 45.1084L58.8732 31.2651L24.265 54.4682C19.6811 57.5495 16.5064 62.3231 15.4374 67.742C14.3683 73.1609 15.4922 78.7825 18.5625 83.3739L18.8641 83.8238C19.9173 85.3628 21.4517 86.5084 23.2265 87.0808C25.0013 87.6533 26.916 87.6201 28.6698 86.9865C30.4018 86.4061 32.2766 86.4108 34.0056 86.9999C35.7347 87.5891 37.2223 88.7301 38.2395 90.2473C39.2567 91.7645 39.7472 93.574 39.6356 95.3972C39.524 97.2205 38.8163 98.9565 37.6216 100.338C36.3694 101.72 35.6115 103.479 35.4671 105.338C35.3226 107.197 35.7996 109.052 36.8234 110.611L37.125 111.06C40.2063 115.644 44.9799 118.819 50.3988 119.888C55.8177 120.957 61.4393 119.833 66.0307 116.763L100.639 93.5598L91.3576 79.7166C90.7422 78.7987 90.5166 77.674 90.7305 76.5898C90.9444 75.5056 91.5802 74.5508 92.4981 73.9354C93.416 73.32 94.5407 73.0945 95.6249 73.3084C96.709 73.5222 97.6638 74.1581 98.2792 75.0759L107.56 88.9192L121.404 79.638C124.157 77.7918 126.065 74.9274 126.706 71.6749C127.348 68.4224 126.671 65.0482 124.825 62.2946ZM82.0763 65.8733L77.4357 58.9516C76.8203 58.0338 76.5948 56.909 76.8087 55.8249C77.0225 54.7407 77.6584 53.7859 78.5762 53.1705C79.4941 52.5551 80.6188 52.3296 81.703 52.5435C82.7872 52.7573 83.742 53.3932 84.3574 54.311L88.998 61.2327C89.6134 62.1505 89.8389 63.2753 89.625 64.3594C89.4111 65.4436 88.7753 66.3984 87.8575 67.0138C86.9396 67.6292 85.8149 67.8547 84.7307 67.6408C83.6465 67.427 82.6917 66.7911 82.0763 65.8733Z" fill="#F13C47" fill-opacity="0.3"/>
</g>
<defs>
<clipPath id="clip0_622_10">
<rect width="100" height="100" fill="white" transform="translate(55.6875 138.747) rotate(-123.84)"/>
</clipPath>
</defs>
</svg>
