<svg width="600" height="600" viewBox="0 0 600 600" fill="none" xmlns="http://www.w3.org/2000/svg">
<path d="M391.268 398.385L363.882 225.561C363.537 223.183 362.701 220.903 361.426 218.866C360.151 216.83 358.466 215.081 356.477 213.732L287.663 166.99C284.079 164.559 279.716 163.557 275.431 164.181C271.146 164.806 267.25 167.011 264.509 170.364L211.898 234.804C210.381 236.668 209.267 238.826 208.627 241.142C207.987 243.458 207.835 245.882 208.18 248.26L235.567 421.085C235.895 423.335 236.663 425.5 237.827 427.454C238.992 429.407 240.53 431.113 242.353 432.472C244.177 433.832 246.251 434.818 248.456 435.376C250.661 435.934 252.954 436.051 255.205 435.722L376.631 418.024C378.882 417.696 381.046 416.928 383 415.763C384.954 414.599 386.659 413.061 388.018 411.237C389.378 409.414 390.364 407.34 390.922 405.135C391.48 402.93 391.597 400.636 391.268 398.385V398.385ZM284.865 225.551C281.657 225.801 278.448 225.094 275.643 223.52C272.837 221.946 270.561 219.576 269.103 216.709C267.645 213.841 267.07 210.606 267.45 207.412C267.831 204.217 269.15 201.208 271.241 198.763C273.333 196.319 276.102 194.549 279.199 193.679C282.295 192.808 285.581 192.875 288.639 193.872C291.698 194.869 294.392 196.75 296.382 199.278C298.371 201.806 299.566 204.867 299.815 208.075C300.15 212.375 298.763 216.631 295.959 219.909C293.155 223.186 289.164 225.216 284.865 225.551V225.551Z" fill="#FF654E"/>
<path d="M236.971 309.367C234.284 292.477 243.255 280.647 257.61 278.334C271.964 276.02 284.309 284.506 286.996 301.366C289.683 318.226 280.713 330.086 266.226 332.4C251.74 334.713 239.679 326.369 236.971 309.367ZM270.176 304.084C268.6 294.194 264.499 290.84 259.761 291.598C255.296 292.305 252.165 296.81 253.7 306.7C255.236 316.59 259.66 319.903 264.115 319.186C268.853 318.429 271.712 313.974 270.176 304.084ZM315.534 270.424L335.566 267.222L284.501 375.383L264.438 378.576L315.534 270.424ZM313.18 344.38C310.493 327.52 319.322 315.681 333.809 313.378C348.295 311.074 360.518 319.55 363.205 336.41C365.892 353.27 356.922 365.13 342.426 367.443C327.929 369.757 315.847 361.382 313.14 344.38H313.18ZM346.345 339.097C344.769 329.207 340.516 325.884 335.92 326.611C331.324 327.338 328.323 331.824 329.859 341.714C331.394 351.603 335.678 354.937 340.274 354.2C344.87 353.462 347.881 349.048 346.305 339.097H346.345Z" fill="white"/>
<path d="M308.707 49.2929C309.098 49.6834 309.098 50.3166 308.707 50.7071L302.343 57.0711C301.953 57.4616 301.319 57.4616 300.929 57.0711C300.538 56.6805 300.538 56.0474 300.929 55.6569L306.586 50L300.929 44.3431C300.538 43.9526 300.538 43.3195 300.929 42.9289C301.319 42.5384 301.953 42.5384 302.343 42.9289L308.707 49.2929ZM307.117 49H308V51H307.117V49Z" fill="#FF654E"/>
<path d="M291.293 549.293C290.902 549.683 290.902 550.317 291.293 550.707L297.657 557.071C298.047 557.462 298.681 557.462 299.071 557.071C299.462 556.681 299.462 556.047 299.071 555.657L293.414 550L299.071 544.343C299.462 543.953 299.462 543.319 299.071 542.929C298.681 542.538 298.047 542.538 297.657 542.929L291.293 549.293ZM293 549H292V551H293V549Z" fill="#FF654E"/>
<path d="M300 550C363.587 550 424.784 525.77 471.137 482.242C517.49 438.714 545.514 379.159 549.507 315.698C553.499 252.236 533.16 189.638 492.628 140.644C452.097 91.6496 394.419 59.9409 331.333 51.9713" stroke="#FF654E" stroke-miterlimit="11.4737" stroke-linecap="round" stroke-dasharray="6 6"/>
<path d="M300 50C236.413 50 175.216 74.2297 128.863 117.758C82.5105 161.286 54.4859 220.841 50.4933 284.302C46.5007 347.764 66.84 410.362 107.372 459.356C147.903 508.35 205.581 540.059 268.667 548.029" stroke="#FF654E" stroke-linecap="round" stroke-linejoin="round" stroke-dasharray="6 6"/>
</svg>
