<svg width="65" height="65" viewBox="0 0 65 65" fill="none" xmlns="http://www.w3.org/2000/svg">
<path d="M62.9688 6.09375C62.9688 4.0625 60.9375 2.03125 58.9062 2.03125H6.09375C4.0625 2.03125 2.03125 4.0625 2.03125 6.09375V44.6875H62.9688V6.09375Z" fill="#212528"/>
<path d="M2.03125 44.6875V48.75C2.03125 50.7812 4.0625 52.8125 6.09375 52.8125H58.9062C60.9375 52.8125 62.9688 50.7812 62.9688 48.75V44.6875H2.03125Z" fill="#DDDDDD"/>
<path d="M24.375 54.8438C24.375 58.9062 20.3125 58.9062 16.25 58.9062H48.75C44.6875 58.9062 40.625 58.9062 40.625 54.8438V52.8125H24.375V54.8438Z" fill="#BFBEBE"/>
<path d="M6.09375 6.09375H58.9062V40.625H6.09375V6.09375Z" fill="#3E4347"/>
<path d="M32.5 49.6641C33.0609 49.6641 33.5156 49.2094 33.5156 48.6484C33.5156 48.0875 33.0609 47.6328 32.5 47.6328C31.9391 47.6328 31.4844 48.0875 31.4844 48.6484C31.4844 49.2094 31.9391 49.6641 32.5 49.6641Z" fill="#94989B"/>
<path d="M16.25 58.9062H48.75V62.9688H16.25V58.9062Z" fill="#94989B"/>
</svg>
