<svg width="65" height="65" viewBox="0 0 65 65" fill="none" xmlns="http://www.w3.org/2000/svg">
<path d="M18.6083 42.5791L21.5516 39.6338L25.4312 43.5114L22.4859 46.4568L18.6083 42.5791Z" fill="#B0BDC6"/>
<path d="M19.5406 43.5114L22.4859 40.5681L24.4969 42.5791L21.5516 45.5234L19.5406 43.5114Z" fill="#DFE9EF"/>
<path d="M20.2658 40.8546L21.4866 39.6338L25.3642 43.5135L24.1434 44.7332L20.2658 40.8546Z" fill="#B0BDC6"/>
<path d="M22.8516 42.1485C31.9922 51.2891 46.9219 51.2891 56.1641 42.1485C65.3047 33.0079 65.3047 18.0782 56.1641 8.83599C47.0234 -0.406198 32.0938 -0.304635 22.8516 8.83599C13.6094 18.0782 13.6094 33.0079 22.8516 42.1485ZM24.9844 11.0704C33.0078 3.04693 45.9063 3.04693 53.8281 11.0704C61.8516 19.0938 61.8516 31.9922 53.8281 39.9141C45.8047 47.9376 32.9063 47.9376 24.9844 39.9141C17.0625 31.9922 17.0625 19.0938 24.9844 11.0704Z" fill="#DFE9EF"/>
<path d="M24.4766 40.5234C32.7031 48.75 46.1094 48.75 54.4375 40.5234C62.6641 32.2969 62.6641 18.8906 54.4375 10.5625C46.2109 2.33594 32.8047 2.33594 24.4766 10.5625C16.25 18.8906 16.25 32.2969 24.4766 40.5234ZM25.5938 11.6797C33.2109 4.0625 45.7031 4.0625 53.3203 11.6797C60.9375 19.2969 60.9375 31.7891 53.3203 39.4062C45.7031 47.0234 33.2109 47.0234 25.5938 39.4062C17.9766 31.7891 17.9766 19.2969 25.5938 11.6797" fill="#B0BDC6"/>
<path opacity="0.6" d="M28.3359 30.2656C34.9375 36.8672 45.7031 36.8672 52.3047 30.2656C54.0313 28.5391 55.3516 26.5078 56.1641 24.2734C56.5703 29.1484 54.9453 34.125 51.2891 37.7813C44.6875 44.3828 33.9219 44.3828 27.3203 37.7813C22.4453 32.9063 21.2266 25.7969 23.4609 19.8047C23.8672 23.6641 25.4922 27.3203 28.3359 30.2656" fill="#A6AEB0"/>
<path d="M3.54147 54.4354L17.5449 40.4309L24.5832 47.4692L10.5787 61.4726L3.54147 54.4354Z" fill="#333333"/>
<path d="M5.12079 56.0149L19.1263 42.0125L23.0039 45.8911L8.99844 59.8915L5.12079 56.0149Z" fill="#575B5E"/>
<path d="M2.13282 53.7265C1.01563 54.8437 10.0547 63.9843 11.2734 62.8672L11.9844 62.1562C13.1016 61.039 4.0625 51.8984 2.84375 53.0156L2.13282 53.7265" fill="#B0BDC6"/>
<path d="M3.65625 55.2499C2.53906 56.3671 8.53125 62.4608 9.75 61.3436L10.4609 60.6327C11.5781 59.5155 5.58593 53.4218 4.36718 54.539L3.65625 55.2499" fill="#DFE9EF"/>
</svg>
