<svg width="50" height="50" viewBox="0 0 50 50" fill="none" xmlns="http://www.w3.org/2000/svg">
<g clip-path="url(#clip0_622_12)">
<path d="M3.12506 50.0001C2.32506 50.0001 1.52507 49.6959 0.914648 49.0855C-0.306185 47.8646 -0.306185 45.8876 0.914648 44.6667L44.6646 0.914648C45.8855 -0.306185 47.8626 -0.306185 49.0834 0.914648C50.3042 2.1334 50.3042 4.11465 49.0834 5.3334L5.33548 49.0855C4.72507 49.6959 3.92506 50.0001 3.12506 50.0001ZM18.7501 9.37507C18.7501 4.20632 14.5438 6.51218e-05 9.37507 6.51218e-05C4.20632 6.51218e-05 6.51218e-05 4.20632 6.51218e-05 9.37507C6.51218e-05 14.5438 4.20632 18.7501 9.37507 18.7501C14.5438 18.7501 18.7501 14.5438 18.7501 9.37507ZM12.5001 9.37507C12.5001 11.098 11.098 12.5001 9.37507 12.5001C7.65215 12.5001 6.25006 11.098 6.25006 9.37507C6.25006 7.65215 7.65215 6.25006 9.37507 6.25006C11.098 6.25006 12.5001 7.65215 12.5001 9.37507ZM50.0001 40.6251C50.0001 35.4563 45.7938 31.2501 40.6251 31.2501C35.4563 31.2501 31.2501 35.4563 31.2501 40.6251C31.2501 45.7938 35.4563 50.0001 40.6251 50.0001C45.7938 50.0001 50.0001 45.7938 50.0001 40.6251ZM43.7501 40.6251C43.7501 42.348 42.348 43.7501 40.6251 43.7501C38.9021 43.7501 37.5001 42.348 37.5001 40.6251C37.5001 38.9021 38.9021 37.5001 40.6251 37.5001C42.348 37.5001 43.7501 38.9021 43.7501 40.6251Z" fill="#F13C47" fill-opacity="0.3"/>
</g>
<defs>
<clipPath id="clip0_622_12">
<rect width="50" height="50" fill="white"/>
</clipPath>
</defs>
</svg>
