<svg width="18" height="18" viewBox="0 0 18 18" fill="none" xmlns="http://www.w3.org/2000/svg">
<g clipPath="url(#clip0_659_4)">
<path d="M17.7802 16.7198L13.3035 12.243C14.5235 10.751 15.1233 8.84707 14.9789 6.92518C14.8345 5.00328 13.9569 3.2104 12.5277 1.91739C11.0985 0.624387 9.22693 -0.0698265 7.30022 -0.0216526C5.37351 0.0265212 3.53902 0.813397 2.1762 2.17621C0.813382 3.53903 0.026506 5.37352 -0.0216679 7.30024C-0.0698418 9.22695 0.624372 11.0985 1.91738 12.5277C3.21039 13.9569 5.00326 14.8345 6.92516 14.9789C8.84706 15.1233 10.7509 14.5235 12.243 13.3035L16.7197 17.7803C16.8612 17.9169 17.0506 17.9925 17.2473 17.9908C17.4439 17.9891 17.632 17.9102 17.7711 17.7711C17.9102 17.6321 17.989 17.444 17.9907 17.2473C17.9925 17.0507 17.9169 16.8612 17.7802 16.7198ZM7.49999 13.5C6.3133 13.5 5.15326 13.1481 4.16657 12.4888C3.17987 11.8295 2.41084 10.8925 1.95671 9.79611C1.50259 8.69975 1.38377 7.49335 1.61528 6.32946C1.84679 5.16558 2.41823 4.09648 3.25735 3.25736C4.09646 2.41825 5.16556 1.8468 6.32945 1.61529C7.49333 1.38378 8.69973 1.5026 9.79609 1.95673C10.8924 2.41085 11.8295 3.17989 12.4888 4.16658C13.1481 5.15328 13.5 6.31332 13.5 7.5C13.4982 9.09076 12.8655 10.6158 11.7407 11.7407C10.6158 12.8655 9.09074 13.4982 7.49999 13.5Z" fill="#9F9F9F"/>
</g>
<defs>
<clipPath id="clip0_659_4">
<rect width="18" height="18" fill="white"/>
</clipPath>
</defs>
</svg>
