<svg width="14" height="14" viewBox="0 0 14 14" fill="none" xmlns="http://www.w3.org/2000/svg">
<path opacity="0.3" d="M6.99999 2.33334C4.4275 2.33334 2.33333 4.42751 2.33333 7.00001C2.33333 9.57251 4.4275 11.6667 6.99999 11.6667C9.57249 11.6667 11.6667 9.57251 11.6667 7.00001C11.6667 4.42751 9.57249 2.33334 6.99999 2.33334ZM9.45 9.45001L6.41666 7.58334V4.08334H7.29166V7.11668L9.91666 8.69168L9.45 9.45001Z" fill="#9F9F9F"/>
<path d="M7 1.16666C3.79167 1.16666 1.16667 3.79166 1.16667 6.99999C1.16667 10.2083 3.79167 12.8333 7 12.8333C10.2083 12.8333 12.8333 10.2083 12.8333 6.99999C12.8333 3.79166 10.2083 1.16666 7 1.16666ZM7 11.6667C4.42751 11.6667 2.33334 9.57249 2.33334 6.99999C2.33334 4.42749 4.42751 2.33332 7 2.33332C9.5725 2.33332 11.6667 4.42749 11.6667 6.99999C11.6667 9.57249 9.5725 11.6667 7 11.6667ZM7.29167 4.08332H6.41667V7.58332L9.45001 9.44999L9.91667 8.69166L7.29167 7.11666V4.08332Z" fill="#9F9F9F"/>
</svg>
